<svg width="182" height="200" viewBox="0 0 182 200" fill="none" xmlns="http://www.w3.org/2000/svg">
<path d="M59.8993 101.502L59.8351 101.887C59.8223 101.772 59.8223 101.656 59.8223 101.541V101.489H59.8993V101.502Z" fill="white"/>
<path d="M181.288 36.0894V26.1523L127.199 0L19.0464 17.4092L15.5543 27.924L20.7282 29.4646L12.1905 59.7894C11.0351 59.6996 9.84108 59.8536 8.65993 60.2645C4.75699 61.6125 2.12507 65.3229 1.97101 69.7265L2.07372 70.561C3.57584 75.4782 3.94816 78.919 1.16218 80.8063L0.301989 81.8205C-0.301426 83.0787 0.0195398 84.5038 1.08515 85.364C1.72708 85.8775 2.79268 86.0829 4.10222 86.0829C8.67277 86.0829 16.1448 83.4382 18.3146 82.0003C23.925 79.0474 27.1604 71.6523 25.2346 66.0804C24.0534 62.6139 21.1776 60.6753 17.2618 60.5726L25.6069 30.9154L60.7077 41.366V60.8165C50.9632 63.2045 42.5282 68.096 36.7637 74.8235C31.2687 81.2556 28.7267 88.7405 29.3943 96.4951L29.4585 97.3167H29.4328L53.5181 147.914C54.0701 149.069 54.237 150.404 53.9931 151.663L44.4925 199.987H53.762L62.9159 153.421C63.5322 150.263 63.1214 146.925 61.7348 144.011L42.0275 102.619L55.0587 104.481C57.2413 112.132 67.6791 117.55 77.1154 117.55C86.5518 117.55 93.9725 112.325 96.0524 105.328L109.726 105.983C111.305 109.167 115.67 115.394 125.812 116.934L120.934 139.376C120.073 143.292 120.42 147.336 121.922 151.098L141.938 200H151.772L130.37 147.683C129.561 145.654 129.369 143.446 129.844 141.302L135.133 117.037C137.919 116.729 140.307 116.138 142.361 115.368L145.327 120.786L148.511 119.04L145.648 113.814C148.639 112.068 150.642 109.873 151.965 107.703L156.124 112.877L158.949 110.592L153.685 104.044C154.134 102.747 154.365 101.592 154.494 100.68C154.963 97.5514 154.284 96.6269 152.067 94.6078C148.126 91.4366 144.197 89.5494 140.423 88.5736C139.729 83.8619 137.842 79.4069 134.889 75.3755L141.642 45.1406L181.288 36.0894ZM20.4201 67.7365C21.4087 70.6252 19.5856 75.6451 15.8367 77.5453L15.413 77.8149C14.3603 78.6494 10.7013 79.792 7.67136 80.4853C9.09644 76.6337 7.90245 72.2301 7.08078 69.5211C7.32471 67.146 8.83967 65.5925 10.3161 65.0918C11.9209 64.5397 13.5129 65.0661 14.7968 66.6068L15.8496 65.7209C18.3146 65.4128 19.8552 66.0932 20.4201 67.7365ZM77.1154 112.376C68.7447 112.376 60.2327 107.164 59.8347 101.913V101.887C59.8218 101.772 59.8218 101.656 59.8218 101.541V101.489C59.8732 96.1356 68.5778 90.7177 77.1154 90.7177C85.0112 90.7177 91.4433 95.5707 91.4433 101.541C91.4433 107.511 85.0112 112.376 77.1154 112.376ZM110.239 97.3809L109.623 97.9715L108.968 102.311L96.6045 101.72V101.541C96.6045 92.7205 87.8614 85.5309 77.1154 85.5309C66.3695 85.5309 55.3155 92.0015 54.6735 100.757L40.1531 98.6776L38.3685 94.9416C38.1502 89.9474 39.9605 85.0558 43.6452 80.7421C49.6536 73.7065 59.6164 69.2002 70.9657 68.3913L91.9184 66.902C103.871 66.0547 115.618 69.5468 123.347 76.2742C127.25 79.6765 129.831 83.6051 130.961 87.829C119.085 88.9588 110.367 97.2525 110.239 97.3809ZM148.357 98.1769L148.87 98.5878C149.294 98.9344 149.525 99.4479 149.461 99.9486C148.883 103.993 146.085 110.938 133.824 112.043C119.008 113.391 114.81 105.212 113.988 103.158L114.399 100.475C117.621 97.6634 132.617 86.0701 148.357 98.1769ZM134.016 37.5401L127.263 67.7365C117.827 60.5598 104.603 56.8879 91.3021 57.8251L70.3495 59.3144C70.1698 59.3273 69.99 59.3401 69.8103 59.3529V34.5872L34.6581 24.1238L125.812 9.44922L167.923 29.7984L134.016 37.5401Z" fill="white"/>
<path d="M129.123 97.124C129.123 97.124 132.178 97.1754 132.743 100.013C133.193 102.285 132.628 104.84 130.856 106.56C130.009 107.395 129.084 107.549 127.993 107.279C127.556 107.177 127.03 107.138 126.606 106.984C126.08 106.792 125.579 106.124 125.169 105.752C123.487 104.172 123.166 101.22 124.18 99.114C124.629 98.3308 125.579 97.7916 126.285 97.2267L129.123 97.124Z" fill="white"/>
<path d="M76.5017 96.4053C76.5017 96.4053 79.5573 96.4566 80.1222 99.294C80.5716 101.566 80.0067 104.121 78.2349 105.842C77.3876 106.676 76.4632 106.83 75.3719 106.561C74.9354 106.458 74.409 106.419 73.9854 106.265C73.459 106.073 72.9583 105.405 72.5474 105.033C70.8656 103.454 70.5446 100.501 71.5589 98.3953C72.0082 97.6121 72.9583 97.0729 73.6644 96.508L76.5017 96.4053Z" fill="white"/>
</svg>
