<svg width="219" height="200" viewBox="0 0 219 200" fill="none" xmlns="http://www.w3.org/2000/svg">
<path d="M117.302 105.42C115.733 105.42 114.15 105.263 112.595 104.907C101.168 102.253 99.3565 88.0594 99.2852 87.4603L107.317 86.4902C107.317 86.5758 108.543 95.6486 114.421 97.018C120.298 98.3732 128.215 94.8782 130.754 93.4232L134.791 100.427C134.378 100.67 126.047 105.42 117.288 105.42H117.302Z" fill="white"/>
<path d="M90.2867 120.188L82.1172 135.749L85.6916 137.626L93.8611 122.065L90.2867 120.188Z" fill="white"/>
<path d="M102.386 121.61L95.625 136.196L99.2877 137.894L106.049 123.308L102.386 121.61Z" fill="white"/>
<path d="M114.74 121.875L108.518 140.387L112.344 141.673L118.567 123.162L114.74 121.875Z" fill="white"/>
<path d="M218.943 63.7078L218.772 59.685L201.083 60.441L212.938 42.9375L209.6 40.6836L197.745 58.1871V41.4682H193.708V57.0316C187.032 49.6137 176.518 41.1258 163.68 41.6964C146.005 42.4525 137.218 60.2271 134.265 67.8162C133.266 70.3412 133.651 73.18 135.306 75.3911L137.275 78.0016L137.375 77.9018C145.006 86.6179 155.192 91.0259 167.703 91.0259C187.046 91.0259 196.69 77.2741 199.956 71.3397C201.126 69.1714 200.998 66.5751 199.628 64.5352L218.943 63.7078ZM163.936 47.3455C173.737 46.9175 182.324 53.4082 188.116 59.3997H145.035C149.115 53.451 155.277 47.7307 163.936 47.3455ZM194.978 68.6293C192.21 73.665 184.022 85.3768 167.703 85.3768C155.919 85.3768 146.547 80.869 139.857 71.9817L139.685 71.7534C139.357 71.1828 139.3 70.4981 139.543 69.8847C140.056 68.5723 140.77 66.889 141.697 65.0487H163.737C163.394 65.334 163.081 65.6479 162.781 65.976C159.971 69.0716 162.524 72.6664 162.524 72.6664L165.063 75.8618C166.319 76.2042 167.76 76.8604 169.058 76.7035C172.382 76.0758 175.534 73.1657 175.934 69.8562C176.005 69.0716 176.347 67.9018 176.133 67.1315C175.962 66.5038 175.548 65.8761 175.292 65.2627C175.263 65.1914 175.235 65.1201 175.192 65.0487H192.995C193.808 66.0901 194.464 67.0031 194.935 67.6878C195.135 67.9731 195.135 68.3298 194.978 68.6293Z" fill="white"/>
<path d="M166.205 20.2139L43.2381 19.6719V6.06276H42.7673C41.5833 2.53922 38.2452 0 34.3365 0H8.9586C4.06561 0 0.0855917 3.98002 0.0855917 8.88729V19.4864H0V134.094L61.9399 135.692C55.5775 167.888 47.4321 192.724 40.9984 200H52.9527C61.7829 184.008 68.4734 154.993 72.0825 136.462C72.596 133.823 71.9256 131.112 70.2565 129.015C68.5732 126.918 66.0768 125.677 63.3806 125.606L10.1141 124.237V29.6433L156.433 30.2852L156.647 36.4764L166.747 36.1198L166.205 20.2139ZM5.73464 8.88729C5.73464 7.10412 7.1897 5.66333 8.9586 5.66333H34.3365C36.1197 5.66333 37.5605 7.10412 37.5605 8.88729L37.589 19.1583L5.73464 18.9729V8.88729Z" fill="white"/>
<path d="M137.117 200H147.93L147.987 199.958C145.277 196.163 141.211 174.551 138.201 134.751L163.594 134.465L162.41 94.9648L152.31 95.2644L153.18 124.466L137.017 124.651C134.507 124.679 132.11 125.749 130.412 127.604C128.715 129.444 127.859 131.926 128.044 134.423C129.799 157.989 132.723 186.591 137.117 200Z" fill="white"/>
<path d="M60.1427 100.256C45.4066 100.256 28.2598 88.2306 28.2598 72.7385C28.2598 57.2464 45.3924 45.2207 60.1427 45.2207C74.893 45.2207 87.6604 57.5745 87.6604 72.7385C87.6604 87.9025 75.3067 100.256 60.1427 100.256ZM60.1427 50.8698C48.274 50.8698 33.9231 60.6272 33.9231 72.7385C33.9231 84.8497 48.2597 94.6072 60.1427 94.6072C72.0256 94.6072 82.0113 84.7927 82.0113 72.7385C82.0113 60.6843 72.1968 50.8698 60.1427 50.8698Z" fill="white"/>
<path d="M59.9733 65.578C59.9733 65.578 64.3813 65.421 65.4227 69.4581C66.25 72.6964 65.6366 76.4339 63.2115 79.0587C62.0561 80.3283 60.7294 80.6279 59.1459 80.314C58.504 80.1856 57.7479 80.1856 57.1203 79.9859C56.3499 79.7434 55.5796 78.8162 54.9519 78.3311C52.4127 76.1914 51.6995 71.9546 53.0119 68.8305C53.5967 67.6607 54.9234 66.8048 55.9077 65.9489L59.9733 65.578Z" fill="white"/>
</svg>
