<svg width="149" height="200" viewBox="0 0 149 200" fill="none" xmlns="http://www.w3.org/2000/svg">
<path d="M56.5895 96.8236C56.5895 101.574 53.6082 105.294 49.791 105.294C45.9738 105.294 42.9785 101.574 42.9785 96.8236C42.9785 92.073 45.9738 88.3672 49.791 88.3672C53.6082 88.3672 56.5895 92.073 56.5895 96.8236Z" fill="white"/>
<path d="M121.242 98.4526C121.242 102.841 117.675 106.408 113.287 106.408C108.898 106.408 105.332 102.841 105.332 98.4526C105.332 94.0642 108.898 90.5117 113.287 90.5117C117.675 90.5117 121.242 94.0642 121.242 98.4526Z" fill="white"/>
<path d="M147.646 93.898C145.584 90.5127 140.763 84.341 131.597 80.9L132.028 45.0683C132.07 41.5436 130.51 38.2558 127.751 36.0546L82.3767 0H75.3135L23.4188 26.5812C19.5598 28.5595 17.066 32.4742 16.8989 36.8208L11.9811 172.36L0 173.168L0.529395 181.053L11.6885 180.287L10.978 200H20.8554L21.5938 179.618L37.9493 178.504L105.851 184.007L106.116 180.775L106.311 180.816L110.922 157.091L51.1702 154.806V171.649L39.9415 170.744V155.893C44.4971 155.238 47.9799 151.31 47.9799 146.573C47.9799 141.363 43.7587 137.127 38.5483 137.127C33.338 137.127 29.1167 141.363 29.1167 146.573C29.1167 150.906 32.0284 154.556 35.9989 155.656V170.73L21.8863 171.691L25.5503 70.6046C25.9822 70.6186 26.4558 70.6186 26.9295 70.6186C35.1351 70.6186 49.1084 69.0164 60.6576 59.5988C68.5428 53.1624 74.2268 44.8036 77.4171 35.2466C79.9805 42.6442 85.0933 50.0975 94.6782 55.8512C106.032 62.6916 116.23 65.4361 121.886 66.5227L121.747 78.657C118.821 78.3505 115.603 78.3227 112.079 78.6431C91.9058 80.4681 86.3332 90.234 84.8147 95.9042C84.6197 96.6565 84.5222 97.4366 84.5222 98.1889C84.5222 99.8746 84.9958 101.519 85.8735 102.926L78.2669 107.356L80.2452 110.755L88.7295 105.823C90.9167 107.328 93.0621 108.638 95.1519 109.752L91.6272 118.292L95.2772 119.797L98.7044 111.493C101.142 112.58 103.511 113.416 105.795 114.029L106.715 123.851L110.644 123.488L109.85 114.935C112.204 115.352 114.475 115.534 116.648 115.534C118.25 115.534 119.811 115.436 121.301 115.241L120.298 199.986H130.176L131.22 112.678C138.827 109.641 144.177 104.89 146.698 102.313C148.913 100.056 149.303 96.5868 147.646 93.898ZM59.0694 163.012L101.421 164.642L99.3034 175.536L59.0694 172.29V163.012ZM34.6336 146.573C34.6336 144.413 36.389 142.672 38.5483 142.672C40.7077 142.672 42.4631 144.413 42.4631 146.573C42.4631 148.732 40.7077 150.474 38.5483 150.474C36.389 150.474 34.6336 148.732 34.6336 146.573ZM55.6701 53.4689C45.5141 61.7442 32.6275 62.803 25.8429 62.6776L26.7623 37.1831C26.7902 36.4168 27.236 35.7342 27.9047 35.3859L72.4297 12.5662C73.4049 29.1725 67.4422 43.8841 55.6701 53.4689ZM98.7462 49.0805C81.6801 38.827 82.0145 22.1092 83.547 13.5553L121.594 43.8005C121.956 44.0791 122.151 44.511 122.151 44.9568L121.984 58.4703C116.787 57.328 108.192 54.7506 98.7462 49.0805ZM142.742 98.4397C136.041 105.294 117.637 119.267 91.5018 101.003C90.3316 100.195 89.7882 98.7044 90.1644 97.3252C92.1427 89.9554 100.098 85.2745 112.58 84.1599C131.248 82.4603 139.607 91.3346 142.937 96.7818C143.257 97.3112 143.188 97.9939 142.742 98.4397Z" fill="white"/>
<path d="M49.2203 118.809C37.4343 118.809 33.0041 113.459 31.6527 98.8452C30.8168 89.7201 30.5243 83.9386 33.7006 80.5532C36.8909 77.1539 42.4496 77.3072 50.8642 77.5301C63.6951 77.8645 71.636 81.4448 71.5106 98.1486V100.893H71.3992C70.4936 114.337 63.5279 117.764 53.4276 118.614C51.923 118.739 50.5159 118.809 49.2063 118.809H49.2203ZM45.5424 82.9634C41.3908 82.9634 38.7438 83.242 37.7268 84.3286C36.1665 86.0004 36.5566 91.9074 37.1556 98.3298C38.4513 112.331 41.6834 114.058 52.9678 113.097C60.7555 112.428 65.8684 111.035 65.9659 98.0929V96.8391C65.8126 86.2373 62.4691 83.3674 50.7109 83.047C48.7884 82.9912 47.0609 82.9634 45.5424 82.9634Z" fill="white"/>
</svg>
