<svg width="122" height="207" viewBox="0 0 122 207" fill="none" xmlns="http://www.w3.org/2000/svg">
<path d="M57.2169 123.081C57.2169 115.03 50.6675 108.48 42.6159 108.48C34.5643 108.48 25.9065 114.727 25.9065 123.081C25.9065 127.443 28.3048 131.225 31.7179 133.848L27.3297 138.236L29.9652 140.871L34.986 135.864C36.4092 136.549 37.9114 137.063 39.4269 137.366V143.23H43.1562V137.682C45.2383 137.603 47.2149 137.089 48.9808 136.22L53.4085 140.647L56.044 138.012L52.1566 134.124C55.2534 131.449 57.2169 127.483 57.2169 123.081ZM42.6159 132.464C37.4502 132.464 31.1249 128.129 31.1249 123.081C31.1249 118.034 37.4502 113.712 42.6159 113.712C47.7816 113.712 51.9985 117.916 51.9985 123.081C51.9985 128.247 47.7816 132.464 42.6159 132.464Z" fill="white"/>
<path d="M121.67 121.96L63.8595 125.808L64.492 135.138L106.595 132.318L89.3848 169.545L32.6281 169.558H32.615L10.9375 133.056L64.6369 47.2555V107.504H72.1087V49.812L103.551 110.337L111.853 106.028L68.7616 23.0743L38.1101 72.0428C33.8669 65.1772 28.1345 53.1196 30.5329 41.1673C33.7483 25.1036 43.1045 16.3668 59.1023 14.4955C59.3263 14.4692 59.5635 14.4428 59.8007 14.4165V21.1371H80.9378V0H59.8007V6.91833C59.5635 6.91833 59.3263 6.94468 59.1023 6.98422C39.2302 8.98724 27.1594 19.9907 23.206 39.6914C19.8852 56.2295 28.9647 72.1087 33.7351 79.0402L0 132.924L25.1168 175.225L8.40741 206.799H18.976L33.7219 178.901L89.7011 178.888H89.7142L106.213 206.799H117.071L97.6341 173.96L121.657 121.96H121.67ZM64.3339 4.53315H76.3915V16.604H64.3339V4.53315Z" fill="white"/>
<path d="M38.0579 122.29C38.0579 122.29 38.4796 120.195 40.6802 119.681C42.4461 119.259 44.4095 119.615 45.6878 120.906C46.3071 121.526 46.3862 122.224 46.149 123.054C46.0568 123.397 46.0041 123.792 45.8723 124.122C45.701 124.53 45.1739 124.925 44.8708 125.242C43.5925 126.56 41.2996 126.902 39.7051 126.204C39.1121 125.887 38.7299 125.189 38.3214 124.662L38.0579 122.29Z" fill="white"/>
</svg>
