<svg width="119" height="218" viewBox="0 0 119 218" fill="none" xmlns="http://www.w3.org/2000/svg">
<path d="M109.169 120.364L109.606 104.714C109.677 102.007 108.591 99.3703 106.603 97.4811C91.8132 83.4525 75.3314 25.1387 70.2416 3.83495L69.3252 0H56.3681L55.1415 3.21459C54.8736 3.90545 28.5224 72.8782 9.43229 100.061C8.02238 102.077 7.28923 104.559 7.40202 107.04L7.99418 121.111L0.0845945 121.012L0 129.007L8.33256 129.105L12.097 218H19.5131H19.499L22.0792 217.901L18.3288 129.218L51.2502 129.599L51.0528 187.264L67.309 187.687L67.5064 179.707L59.0611 179.481L59.2584 121.703L17.9904 121.224L17.4406 108.38C22.9674 112.37 29.0018 114.428 34.8811 114.428C37.278 114.428 39.6466 114.09 41.9448 113.385C46.6257 111.961 50.5593 109.141 53.3932 105.306C54.1264 106.448 55.0428 107.534 56.1566 108.549C61.2464 113.202 68.8458 114.879 74.6123 112.652C76.7836 111.82 80.0123 109.902 82.1976 105.602C83.5089 107.083 85.1444 108.394 86.9913 109.367C91.1365 111.538 95.5918 111.665 99.469 109.818L99.2434 117.854C97.7348 117.699 96.1557 117.6 94.5061 117.558C84.6368 117.276 78.123 117.107 74.2176 121.266C70.3403 125.397 70.6646 132.179 71.6515 142.866C73.2447 160.166 78.4896 166.51 92.5041 166.51C94.055 166.51 95.7187 166.426 97.4952 166.285C97.6361 166.27 97.763 166.256 97.904 166.242L96.4518 218H106.448L107.957 163.958C114.273 161.153 118.869 155.16 118.968 142.006C119.067 129.754 115.5 123.466 109.169 120.364ZM89.5997 104.404C86.3146 102.684 84.4112 99.6523 84.4112 97.6643C84.4112 97.5656 84.4112 97.4811 84.4253 97.3824L78.8421 96.8466C78.3204 102.402 76.1632 106.053 72.6103 107.435C68.7894 108.901 63.46 107.632 59.9352 104.418C58.765 103.36 57.0308 101.344 57.0308 98.8628C57.0308 98.3834 57.1013 97.8758 57.2423 97.3683L51.8564 95.8456C50.1504 101.88 45.9348 106.321 40.3093 108.041C33.7109 110.057 26.1961 108.196 19.5272 102.966C30.3976 86.4556 42.7625 59.3994 51.7577 38.1662C58.9483 39.703 64.5174 39.3505 69.2688 38.0111C76.4593 61.6694 87.3015 91.785 98.6936 103.727C95.1124 106.575 91.4748 105.377 89.5997 104.404ZM110.974 141.95C110.861 156.105 105.546 157.571 96.8184 158.319C84.383 159.362 81.0556 157.91 79.6034 142.133C79.1381 137.043 78.3486 128.541 80.0405 126.737C81.0274 125.679 84.3548 125.425 88.3589 125.425C90.2482 125.425 92.2785 125.482 94.2806 125.538C107.745 125.919 110.974 128.88 110.974 141.371V141.95Z" fill="white"/>
<path d="M91.6028 136.493C91.6028 136.493 94.902 134.618 97.9333 136.169C100.358 137.41 102.318 139.793 102.614 142.697C102.769 144.093 102.233 145.066 101.19 145.869C100.767 146.194 100.358 146.659 99.893 146.941C99.3291 147.279 98.3421 147.251 97.7077 147.364C95.0289 147.773 92.0398 145.912 90.8414 143.416C90.4325 142.429 90.644 141.16 90.644 140.089L91.6028 136.493Z" fill="white"/>
</svg>
