<svg width="125" height="226" viewBox="0 0 125 226" fill="none" xmlns="http://www.w3.org/2000/svg">
<path d="M58.6354 110.178C47.044 102.726 28.1863 81.4726 39.7911 54.3239C42.9318 46.9778 49.6524 42.4131 56.1468 37.9948C61.3236 34.4815 66.6735 30.8483 70.3998 25.7779C74.8979 19.6695 70.2401 9.68835 70.2002 9.59519L68.5366 6.08183L77.6527 0L80.0349 1.29089C81.9513 2.32893 126.999 27.122 124.231 57.5046L124.205 57.7042C121.197 79.849 101.887 90.2427 90.3487 96.4443C87.9932 97.7219 85.9437 98.8132 84.6661 99.6915C78.5178 103.91 77.4132 107.69 77.3999 107.716L77.4265 107.583L68.6431 105.707C68.7895 105.001 70.3865 98.5869 79.5824 92.2788C81.2725 91.121 83.5083 89.91 86.1034 88.5259C96.7632 82.7901 112.866 74.1265 115.301 56.5863C116.978 37.1431 91.2936 18.8178 80.4607 11.9907C81.7117 17.2474 82.2707 24.8597 77.666 31.1145C73.0215 37.4093 66.7534 41.6679 61.2305 45.4341C55.3083 49.4532 50.1847 52.9399 48.082 57.8639C36.5971 84.7597 62.4282 101.914 63.5328 102.633L58.6753 110.178H58.6354Z" fill="white"/>
<path d="M73.7944 70.4138C73.3553 70.4138 72.9028 70.3605 72.4104 70.2407C67.0871 68.9898 66.5282 63.1741 66.1156 58.9288C65.9559 57.3052 65.7031 54.6037 65.1574 54.0713C64.3989 53.885 64.1726 53.8185 62.6156 56.2805C61.4312 58.1569 59.7943 60.7387 56.5737 61.1779C53.3265 61.6171 49.5603 59.714 44.3568 54.9896L48.0565 50.904C53.2733 55.6284 55.3227 55.7881 55.8284 55.7082C56.4672 55.6284 57.0794 54.7101 57.9577 53.3261C59.3684 51.0903 61.7372 47.364 66.7943 48.8279C70.7868 49.9857 71.2126 54.4573 71.5986 58.3965C71.9313 61.8034 72.2773 64.4384 73.5815 64.8509C74.9522 63.9859 76.7222 57.8642 77.6804 54.5504C79.7698 47.2842 81.7527 40.4171 86.6767 39.459C91.1616 38.5806 92.3992 43.5845 93.597 48.4154C94.8612 53.539 96.4449 59.9136 100.77 61.657C104.257 63.0676 109.567 61.5904 116.554 57.2387L119.468 61.9098C110.791 67.3263 103.991 68.9099 98.7073 66.7673C91.787 63.9593 89.7509 55.7348 88.2604 49.7462C87.9011 48.3089 87.4486 46.4857 87.036 45.3944C85.5588 47.191 83.8687 53.0466 82.9904 56.0809C80.9542 63.1342 78.8648 70.4138 73.7944 70.4138Z" fill="white"/>
<path d="M79.728 121.93L74.2317 118.337C75.2165 116.833 76.0549 114.384 75.5758 112.574C75.4028 111.935 75.0036 111.004 73.4332 110.205C67.7906 107.331 62.8532 108.009 60.4578 109.966C58.7809 111.336 58.2486 113.373 58.9406 115.835L52.606 117.591C51.2086 112.561 52.566 107.93 56.3056 104.882C61.2429 100.85 69.148 100.637 76.4142 104.363C79.2622 105.814 81.1652 108.076 81.9105 110.897C82.9885 114.916 81.4846 119.228 79.728 121.93Z" fill="white"/>
<path d="M26.4431 176.308L31.7929 226H22.3042L16.9543 176.361L26.4431 176.308Z" fill="white"/>
<path d="M87.6346 153.178L87.4616 149.372C87.1023 141.666 83.7087 134.506 78.1725 129.729C73.2618 125.51 67.1534 123.54 60.9385 124.179L46.0067 125.723C33.8963 126.974 24.7802 137.567 24.035 150.516L14.5862 150.596C15.3181 132.776 28.0806 118.071 45.0485 116.327L59.9803 114.784C68.777 113.879 77.4273 116.647 84.3209 122.569C91.8134 129.023 96.4047 138.619 96.8838 148.919L97.3629 158.954L87.6479 153.164L87.6346 153.178Z" fill="white"/>
<path d="M88.4995 171.595L91.068 225.999H100.517L97.6289 158.753L88.4995 171.595Z" fill="white"/>
<path d="M95.018 153.523C72.1946 137.181 52.0726 158.54 51.873 158.753L51.2741 159.405L50.7285 165.234L50.9015 165.78C50.9548 165.913 55.3731 178.263 72.1946 178.25C73.9512 178.25 75.8543 178.116 77.8904 177.824C94.7386 175.362 97.48 164.289 97.8793 159.645C98.0922 157.276 96.9876 154.934 95.018 153.523ZM56.0917 164.516L56.3579 161.721C58.5803 159.565 66.512 152.631 76.879 152.631C81.5103 152.631 86.6339 154.015 91.9438 157.821C92.4096 158.154 92.6625 158.673 92.6226 159.192C92.2632 163.411 89.7613 170.744 77.1319 172.594C61.8807 174.829 57.0632 166.592 56.0917 164.516Z" fill="white"/>
<path d="M71.1176 157.555C71.1176 157.555 74.2849 157.435 75.0302 160.337C75.6291 162.652 75.1899 165.327 73.4465 167.217C72.6214 168.135 71.6632 168.335 70.532 168.122C70.0663 168.029 69.5206 168.029 69.0815 167.896C68.5358 167.723 67.9769 167.057 67.5244 166.711C65.7012 165.181 65.1955 162.133 66.1271 159.897C66.5396 159.059 67.4978 158.447 68.2031 157.835" fill="white"/>
<path d="M24.0885 178.369C17.0485 178.369 10.0218 176.067 8.98376 164.689C8.10542 155.093 11.1663 150.875 13.8812 149.012C16.2367 147.401 20.4288 146.15 26.9498 149.411C28.7197 150.289 30.3034 150.915 31.7141 151.46C37.1305 153.563 40.4442 155.28 40.3777 163.73C40.2845 175.508 34.1894 177.651 27.6152 178.21C26.4574 178.303 25.2862 178.369 24.1018 178.369H24.0885ZM19.404 152.671C18.4858 152.671 17.6074 152.871 16.8622 153.377C14.7063 154.854 13.7481 158.806 14.2405 164.21C14.9059 171.502 18.1664 173.712 27.1494 172.953C32.4993 172.501 35.0278 171.436 35.081 163.704C35.121 158.474 34.3092 158.154 29.7844 156.398C28.3471 155.839 26.5638 155.147 24.5809 154.149C23.29 153.51 21.2672 152.685 19.3907 152.685L19.404 152.671Z" fill="white"/>
<path d="M20.9619 159.711C20.9619 159.711 23.6236 158.207 26.0723 159.444C28.0286 160.443 29.6122 162.372 29.8518 164.714C29.9716 165.846 29.5457 166.618 28.7073 167.27C28.3613 167.536 28.0286 167.908 27.6559 168.135C27.2035 168.414 26.405 168.388 25.886 168.481C23.7167 168.8 21.308 167.31 20.3365 165.3C20.0171 164.502 20.1768 163.477 20.1768 162.612" fill="white"/>
<path d="M66.9533 135.597H63.1871V150.528H66.9533V135.597Z" fill="white"/>
<path d="M71.4673 136.657L69.5457 148.668L73.2646 149.263L75.1862 137.252L71.4673 136.657Z" fill="white"/>
<path d="M80.299 140.488L76.0387 150.809L79.5323 152.251L83.7925 141.93L80.299 140.488Z" fill="white"/>
<path d="M8.36766 140.657L5.41162 142.991L13.0559 152.674L16.012 150.34L8.36766 140.657Z" fill="white"/>
<path d="M0.462247 154.005L0 157.743L13.1151 159.365L13.5773 155.627L0.462247 154.005Z" fill="white"/>
</svg>
