<svg width="140" height="201" viewBox="0 0 140 201" fill="none" xmlns="http://www.w3.org/2000/svg">
<path d="M128.535 123.919L131.28 200.117H122.085L119.379 124.359L128.535 123.919Z" fill="white"/>
<path d="M127.253 90.0676L125.854 62.4062L19.0292 63.2092L17.7083 200.117H26.8899L28.3532 67.8841L117.333 68.4798L118.084 90.482L127.253 90.0676Z" fill="white"/>
<path d="M54.3308 150.48H124.624" stroke="white" stroke-width="9.66942" stroke-miterlimit="10"/>
<path d="M20.3498 94.9497C20.3498 94.9497 3.38525 91.4402 3.38525 78.3088C3.38525 61.0852 20.3498 62.963 20.3498 62.963V94.9497Z" stroke="white" stroke-width="6.7703" stroke-miterlimit="10"/>
<path d="M62.1786 96.3873C63.0074 96.3873 63.8362 96.4132 64.6909 96.4909C75.5301 97.3326 83.9088 103.329 83.4038 109.894C82.9376 115.942 75.0898 120.371 65.3773 120.371C64.5485 120.371 63.7197 120.345 62.865 120.267C52.0258 119.425 43.6471 113.43 44.1521 106.864C44.6183 100.816 52.4661 96.3873 62.1786 96.3873ZM62.1786 91.2461C49.4358 91.2461 39.7102 97.6434 39.0239 106.462C38.2857 116.007 48.581 124.321 62.4635 125.382C63.4348 125.46 64.406 125.499 65.3643 125.499C78.1072 125.499 87.8457 119.102 88.5191 110.283C88.9076 105.323 86.2658 100.428 81.2929 96.8535C77.0065 93.7843 71.2566 91.8289 65.0924 91.3497C64.1211 91.272 63.1499 91.2332 62.1916 91.2332L62.1786 91.2461Z" fill="white"/>
<path d="M18.2778 45.6748V64.4654H123.795V45.6748H18.2778ZM39.7491 61.189H27.5112V48.9512H39.7491V61.189ZM65.0923 61.189H52.8545V48.9512H65.0923V61.189ZM90.4227 61.189H78.1849V48.9512H90.4227V61.189ZM115.766 61.189H103.528V48.9512H115.766V61.189Z" fill="white"/>
<path d="M117.353 0L120.992 21.1604L18.8809 48.9513L11.8749 23.867L117.353 0ZM99.3008 21.9504L111.267 19.3992L108.716 7.43334L96.7496 9.98451L99.3008 21.9504ZM74.2036 27.8038L86.1694 25.2526L83.6183 13.2868L71.6524 15.8379L74.2036 27.8038ZM49.4171 33.1004L61.383 30.5492L58.8318 18.5834L46.866 21.1345L49.4171 33.1004ZM24.6307 39.0056L36.5966 36.4545L34.0454 24.4886L22.0795 27.0398L24.6307 39.0056Z" fill="white"/>
<path d="M45.2012 130.498L53.5151 121.174" stroke="white" stroke-width="4.82618" stroke-miterlimit="10" stroke-linecap="square"/>
<path d="M68.9905 122.611L71.3733 132.324" stroke="white" stroke-width="4.82618" stroke-miterlimit="10" stroke-linecap="square"/>
<path d="M110.353 107.913C110.133 117.768 117.1 123.388 124.598 122.767C132.096 122.145 134.751 113.702 134.751 107.913C134.751 102.124 133.857 91.2461 123.368 91.2461C112.878 91.2461 110.496 102.034 110.353 107.913Z" stroke="white" stroke-width="6.7703" stroke-miterlimit="10"/>
<path d="M122.953 48.5999C122.953 48.5999 135.864 49.3121 136.369 62.4305C136.887 76.0022 124.611 78.9548 124.611 78.9548L122.94 48.5999H122.953Z" stroke="white" stroke-width="6.7703" stroke-miterlimit="10"/>
<path d="M61.2333 103.782C61.2333 103.782 64.2636 102.059 67.0479 103.484C69.2753 104.623 71.0754 106.812 71.3473 109.48C71.4898 110.762 70.9977 111.655 70.0394 112.393C69.6509 112.691 69.2753 113.119 68.848 113.378C68.33 113.688 67.4235 113.663 66.8407 113.766C64.3802 114.142 61.6348 112.432 60.534 110.14C60.1585 109.234 60.3527 108.068 60.3527 107.084" fill="white"/>
<path d="M123.174 99.3789C123.174 99.3789 126.256 99.2623 126.981 102.085C127.564 104.339 127.136 106.942 125.44 108.781C124.637 109.674 123.705 109.868 122.604 109.661C122.151 109.571 121.62 109.571 121.192 109.441C120.661 109.273 120.117 108.625 119.677 108.289C117.903 106.799 117.411 103.834 118.317 101.658C118.719 100.842 119.651 100.247 120.338 99.6508" fill="white"/>
</svg>
