<?xml version="1.0" encoding="UTF-8"?>
<svg id="Capa_2" data-name="Capa 2" xmlns="http://www.w3.org/2000/svg" viewBox="0 0 153.48 140.2">
  <defs>
    <style>
      .cls-1 {
        opacity: .5;
      }

      .cls-2 {
        fill: #e1e211;
      }
    </style>
  </defs>
  <g id="Capa_2-2" data-name="Capa 2">
    <g class="cls-1">
      <g class="cls-1">
        <path class="cls-2" d="M82.23,73.9c-1.1,0-2.21-.11-3.3-.36-8.01-1.86-9.28-11.81-9.33-12.23l5.63-.68c0,.06.86,6.42,4.98,7.38,4.12.95,9.67-1.5,11.45-2.52l2.83,4.91c-.29.17-6.13,3.5-12.27,3.5Z"/>
      </g>
      <g class="cls-1">
        <rect class="cls-2" x="55.52" y="88.95" width="12.32" height="2.83" transform="translate(-47 102.97) rotate(-62.3)"/>
      </g>
      <rect class="cls-2" x="65.05" y="89.55" width="11.27" height="2.83" transform="translate(-41.57 116.83) rotate(-65.13)"/>
      <rect class="cls-2" x="72.75" y="90.95" width="13.69" height="2.83" transform="translate(-33.32 138.39) rotate(-71.42)"/>
      <g class="cls-1">
        <path class="cls-2" d="M153.48,44.66l-.12-2.82-12.4.53,8.31-12.27-2.34-1.58-8.31,12.27v-11.72h-2.83v10.91c-4.68-5.2-12.05-11.15-21.05-10.75-12.39.53-18.55,12.99-20.62,18.31-.7,1.77-.43,3.76.73,5.31l1.38,1.83.07-.07c5.35,6.11,12.49,9.2,21.26,9.2,13.56,0,20.32-9.64,22.61-13.8.82-1.52.73-3.34-.23-4.77l13.54-.58ZM114.92,33.19c6.87-.3,12.89,4.25,16.95,8.45h-30.2c2.86-4.17,7.18-8.18,13.25-8.45ZM136.68,48.11c-1.94,3.53-7.68,11.74-19.12,11.74-8.26,0-14.83-3.16-19.52-9.39l-.12-.16c-.23-.4-.27-.88-.1-1.31.36-.92.86-2.1,1.51-3.39h15.45c-.24.2-.46.42-.67.65-1.97,2.17-.18,4.69-.18,4.69l1.78,2.24c.88.24,1.89.7,2.8.59,2.33-.44,4.54-2.48,4.82-4.8.05-.55.29-1.37.14-1.91-.12-.44-.41-.88-.59-1.31-.02-.05-.04-.1-.07-.15h12.48c.57.73,1.03,1.37,1.36,1.85.14.2.14.45.03.66Z"/>
      </g>
      <g class="cls-1">
        <path class="cls-2" d="M116.51,14.17l-86.2-.38V4.25h-.33c-.83-2.47-3.17-4.25-5.91-4.25H6.28C2.85,0,.06,2.79.06,6.23v7.43h-.06v80.34l43.42,1.12c-4.46,22.57-10.17,39.98-14.68,45.08h8.38c6.19-11.21,10.88-31.55,13.41-44.54.36-1.85-.11-3.75-1.28-5.22-1.18-1.47-2.93-2.34-4.82-2.39l-37.34-.96V20.78l102.57.45.15,4.34,7.08-.25-.38-11.15ZM4.02,6.23c0-1.25,1.02-2.26,2.26-2.26h17.79c1.25,0,2.26,1.01,2.26,2.26l.02,7.2-22.33-.13v-7.07Z"/>
      </g>
      <g class="cls-1">
        <path class="cls-2" d="M96.12,140.2h7.58l.04-.03c-1.9-2.66-4.75-17.81-6.86-45.71l17.8-.2-.83-27.69-7.08.21.61,20.47-11.33.13c-1.76.02-3.44.77-4.63,2.07-1.19,1.29-1.79,3.03-1.66,4.78,1.23,16.52,3.28,36.57,6.36,45.97Z"/>
      </g>
      <g class="cls-1">
        <path class="cls-2" d="M42.16,70.28c-10.33,0-22.35-8.43-22.35-19.29s12.01-19.29,22.35-19.29,19.29,8.66,19.29,19.29-8.66,19.29-19.29,19.29ZM42.16,35.66c-8.32,0-18.38,6.84-18.38,15.33s10.05,15.33,18.38,15.33,15.33-6.88,15.33-15.33-6.88-15.33-15.33-15.33Z"/>
      </g>
      <g class="cls-1">
        <path class="cls-2" d="M42.04,45.97s3.09-.11,3.82,2.72c.58,2.27.15,4.89-1.55,6.73-.81.89-1.74,1.1-2.85.88-.45-.09-.98-.09-1.42-.23-.54-.17-1.08-.82-1.52-1.16-1.78-1.5-2.28-4.47-1.36-6.66.41-.82,1.34-1.42,2.03-2.02l2.85-.26Z"/>
      </g>
    </g>
  </g>
</svg>