<svg width="28" height="30" viewBox="0 0 28 30" fill="none" xmlns="http://www.w3.org/2000/svg">
<path d="M23.1674 29.0778C21.9597 29.0778 20.7513 29.0689 19.5436 29.0847C19.2662 29.0881 19.1001 28.9814 18.9506 28.7544C17.1024 25.9532 15.249 23.1554 13.3956 20.3576C12.8797 19.5781 12.3539 18.8062 11.8439 18.0219C11.7049 17.8086 11.612 17.8045 11.4525 17.998C9.42584 20.456 7.39386 22.9106 5.3632 25.3652C4.3907 26.5405 3.41424 27.7131 2.44372 28.8898C2.33434 29.0224 2.21245 29.0812 2.04444 29.0799C1.44025 29.0744 0.836715 29.0799 0.232524 29.0751C0.152141 29.0751 0.0407909 29.112 0.0052115 28.9965C-0.0211436 28.911 0.0585806 28.8542 0.107337 28.7954C1.99568 26.5138 3.88468 24.2329 5.77434 21.952C7.29833 20.1121 8.82033 18.2694 10.3516 16.435C10.5341 16.2162 10.5426 16.0535 10.3812 15.8114C8.15157 12.4666 5.92984 9.11569 3.7081 5.76474C2.5129 3.9638 1.32165 2.15944 0.130398 0.355084C0.0770291 0.27372 -0.0264146 0.191672 0.0230012 0.0863783C0.072417 -0.0182321 0.196945 0.00638212 0.292482 0.00706585C2.78502 0.0221079 5.27689 -0.0305392 7.76942 0.0296289C7.98817 0.0350987 8.10677 0.130821 8.2201 0.302436C10.1526 3.22401 12.0884 6.14284 14.0235 9.06168C14.316 9.50268 14.6145 9.93959 14.8991 10.3867C15.0375 10.6042 15.1258 10.6657 15.3254 10.423C17.0267 8.34992 18.7397 6.28711 20.4515 4.2243C21.5545 2.89513 22.6633 1.57075 23.7643 0.239533C23.8829 0.0959505 24.0101 0.0357824 24.19 0.0364662C24.7935 0.0398848 25.3977 0.0309963 26.0012 0.0262102C26.077 0.0262102 26.1706 0.000228561 26.2114 0.0802248C26.2635 0.182784 26.1653 0.24432 26.1119 0.30859C25.0327 1.61451 23.9521 2.91838 22.8709 4.22293C20.6953 6.84845 18.521 9.47602 16.3388 12.0961C16.1839 12.282 16.232 12.401 16.3427 12.5678C18.3576 15.5961 20.3698 18.6264 22.3813 21.6573C23.9508 24.0217 25.5183 26.3874 27.0851 28.7537C27.1384 28.8337 27.2373 28.9206 27.1707 29.0252C27.12 29.1052 27.0093 29.0765 26.9236 29.0765C25.6718 29.0778 24.4199 29.0771 23.168 29.0778H23.1674ZM23.7083 27.1251C23.1298 26.2479 22.5994 25.4397 22.0644 24.6343C19.4421 20.6871 16.8165 16.7427 14.1961 12.7935C11.8624 9.27637 9.5339 5.75517 7.2074 2.2326C7.09605 2.06372 6.97284 1.98714 6.77584 1.98851C5.79872 1.99466 4.82226 1.99056 3.84515 1.9933C3.76279 1.9933 3.6521 1.95159 3.60466 2.04936C3.55788 2.14508 3.65671 2.21209 3.69756 2.28798C3.72985 2.34747 3.7707 2.40148 3.80759 2.45823C6.77649 6.93255 9.74606 11.4055 12.7143 15.8805C15.1409 19.5391 17.5663 23.1984 19.9923 26.8571C20.0799 26.989 20.1622 27.1258 20.3454 27.1258C21.4405 27.1251 22.5362 27.1258 23.7077 27.1258L23.7083 27.1251Z" fill="#D4D4D4"/>
</svg>
