<svg width="32" height="31" viewBox="0 0 32 31" fill="none" xmlns="http://www.w3.org/2000/svg">
<path d="M29.133 30.75L18.0765 19.9875C17.199 20.6708 16.1899 21.2118 15.0491 21.6104C13.9084 22.009 12.6945 22.2083 11.4075 22.2083C8.21925 22.2083 5.52094 21.1335 3.31256 18.9839C1.10419 16.8342 0 14.2076 0 11.1042C0 8.00069 1.10419 5.37413 3.31256 3.22448C5.52094 1.07483 8.21925 0 11.4075 0C14.5957 0 17.2941 1.07483 19.5024 3.22448C21.7108 5.37413 22.815 8.00069 22.815 11.1042C22.815 12.3569 22.6103 13.5385 22.2008 14.649C21.7913 15.7594 21.2355 16.7417 20.5335 17.5958L31.59 28.3583L29.133 30.75ZM11.4075 18.7917C13.6012 18.7917 15.4659 18.0443 17.0016 16.5495C18.5372 15.0547 19.305 13.2396 19.305 11.1042C19.305 8.96875 18.5372 7.15365 17.0016 5.65885C15.4659 4.16406 13.6012 3.41667 11.4075 3.41667C9.21375 3.41667 7.34906 4.16406 5.81344 5.65885C4.27781 7.15365 3.51 8.96875 3.51 11.1042C3.51 13.2396 4.27781 15.0547 5.81344 16.5495C7.34906 18.0443 9.21375 18.7917 11.4075 18.7917Z" fill="#D0032E"/>
</svg>
