<svg width="62" height="61" viewBox="0 0 62 61" fill="none" xmlns="http://www.w3.org/2000/svg">
<path d="M31.0879 0C14.2409 0 0.587891 13.653 0.587891 30.5C0.587891 47.347 14.2409 61 31.0879 61C47.9348 61 61.5879 47.3423 61.5879 30.5C61.5879 13.6577 47.9302 0 31.0879 0ZM31.0879 57.054C16.446 57.054 4.53386 45.1419 4.53386 30.5C4.53386 15.8581 16.446 3.94597 31.0879 3.94597C45.7297 3.94597 57.6419 15.8581 57.6419 30.5C57.6419 45.1419 45.7297 57.054 31.0879 57.054Z" fill="black"/>
<path d="M46.2736 30.1559C46.4361 30.6804 46.139 31.2329 45.6144 31.3954L32.1146 35.5317L29.2131 36.423C28.6885 36.5855 28.1315 36.2884 27.9736 35.7638L27.0173 32.6395L24.0874 24C23.9249 23.4754 24.2221 22.9183 24.7466 22.7605L26.7011 22.1616C27.2256 21.9992 27.7827 22.2963 27.9405 22.8209L30.578 30.5087C30.7404 31.0333 31.2929 31.3257 31.8175 31.1679L44.3656 27.3194C44.8902 27.1569 45.4473 27.454 45.6051 27.9786L46.2736 30.1605V30.1559Z" fill="black"/>
</svg>
