<svg width="24" height="24" viewBox="0 0 24 24" fill="none" xmlns="http://www.w3.org/2000/svg">
<mask id="mask0_124_46" style="mask-type:alpha" maskUnits="userSpaceOnUse" x="0" y="0" width="24" height="24">
<rect width="24" height="24" fill="#D9D9D9"/>
</mask>
<g mask="url(#mask0_124_46)">
<path d="M14.8845 18C14.3 18 13.8013 17.7936 13.3885 17.3808C12.9757 16.968 12.7692 16.4692 12.7692 15.8845C12.7692 15.3 12.9757 14.8014 13.3885 14.3885C13.8013 13.9757 14.3 13.7693 14.8845 13.7693C15.4692 13.7693 15.9679 13.9757 16.3807 14.3885C16.7936 14.8014 17 15.3 17 15.8845C17 16.4692 16.7936 16.968 16.3807 17.3808C15.9679 17.7936 15.4692 18 14.8845 18ZM5.6155 21C5.15517 21 4.77083 20.8459 4.4625 20.5375C4.15417 20.2292 4 19.8449 4 19.3845V6.61554C4 6.1552 4.15417 5.77087 4.4625 5.46254C4.77083 5.1542 5.15517 5.00004 5.6155 5.00004H7.3845V2.76929H8.4615V5.00004H15.6155V2.76929H16.6155V5.00004H18.3845C18.8448 5.00004 19.2292 5.1542 19.5375 5.46254C19.8458 5.77087 20 6.1552 20 6.61554V19.3845C20 19.8449 19.8458 20.2292 19.5375 20.5375C19.2292 20.8459 18.8448 21 18.3845 21H5.6155ZM5.6155 20H18.3845C18.5385 20 18.6796 19.936 18.8077 19.8078C18.9359 19.6796 19 19.5385 19 19.3845V10.6155H5V19.3845C5 19.5385 5.06408 19.6796 5.19225 19.8078C5.32042 19.936 5.4615 20 5.6155 20ZM5 9.61529H19V6.61554C19 6.46154 18.9359 6.32045 18.8077 6.19229C18.6796 6.06412 18.5385 6.00004 18.3845 6.00004H5.6155C5.4615 6.00004 5.32042 6.06412 5.19225 6.19229C5.06408 6.32045 5 6.46154 5 6.61554V9.61529Z" fill="#4E4E4E"/>
</g>
</svg>
