<svg width="29" height="29" viewBox="0 0 29 29" fill="none" xmlns="http://www.w3.org/2000/svg">
<path d="M14.5014 0C10.5634 0 10.0692 0.0172138 8.52246 0.0876037C6.9788 0.158289 5.92513 0.402677 5.00315 0.761264C4.04947 1.13161 3.24047 1.62702 2.43452 2.43328C1.62795 3.23925 1.13252 4.04822 0.760957 5.00159C0.401468 5.92386 0.156773 6.97782 0.087304 8.52087C0.01813 10.0675 0 10.562 0 14.5C0 18.438 0.0175255 18.9307 0.0875986 20.4773C0.1586 22.021 0.402987 23.0746 0.761253 23.9966C1.13191 24.9503 1.62733 25.7592 2.4336 26.5652C3.23928 27.3718 4.04826 27.8684 5.00134 28.2387C5.9239 28.5973 6.9779 28.8417 8.52125 28.9124C10.0679 28.9828 10.5618 29 14.4995 29C18.4378 29 18.9306 28.9828 20.4772 28.9124C22.0209 28.8417 23.0758 28.5973 23.9984 28.2387C24.9517 27.8684 25.7595 27.3718 26.5652 26.5652C27.3718 25.7592 27.8672 24.9503 28.2387 23.9969C28.5952 23.0746 28.8399 22.0207 28.9124 20.4776C28.9819 18.931 29 18.438 29 14.5C29 10.562 28.9819 10.0678 28.9124 8.52116C28.8399 6.97751 28.5952 5.92386 28.2387 5.0019C27.8672 4.04822 27.3718 3.23923 26.5652 2.43328C25.7586 1.62671 24.952 1.1313 23.9975 0.76125C23.0731 0.402677 22.0188 0.158289 20.4751 0.0876037C18.9284 0.0172138 18.436 0 14.4968 0H14.5014ZM13.2006 2.61303C13.5866 2.61242 14.0174 2.61303 14.5014 2.61303C18.3729 2.61303 18.8318 2.62692 20.3606 2.6964C21.7744 2.76105 22.5417 2.99727 23.0528 3.19574C23.7295 3.45855 24.2119 3.77272 24.7191 4.28022C25.2266 4.78772 25.5408 5.27106 25.8042 5.94771C26.0027 6.45823 26.2392 7.22553 26.3036 8.63929C26.3731 10.1678 26.3882 10.627 26.3882 14.4967C26.3882 18.3664 26.3731 18.8255 26.3036 20.3541C26.2389 21.7678 26.0027 22.5351 25.8042 23.0456C25.5414 23.7223 25.2266 24.2041 24.7191 24.7113C24.2116 25.2188 23.7298 25.533 23.0528 25.7958C22.5423 25.9952 21.7744 26.2308 20.3606 26.2954C18.8321 26.3649 18.3729 26.38 14.5014 26.38C10.6295 26.38 10.1707 26.3649 8.64209 26.2954C7.22833 26.2302 6.46104 25.994 5.94959 25.7955C5.27292 25.5327 4.78957 25.2185 4.28208 24.711C3.77457 24.2035 3.46041 23.7214 3.19698 23.0444C2.99851 22.5339 2.76198 21.7666 2.69764 20.3529C2.62815 18.8243 2.61425 18.3652 2.61425 14.4931C2.61425 10.621 2.62815 10.1642 2.69764 8.63566C2.76229 7.2219 2.99851 6.45462 3.19698 5.94349C3.45979 5.26682 3.77457 4.78349 4.28208 4.276C4.78957 3.76849 5.27292 3.45433 5.94959 3.19091C6.46073 2.99153 7.22833 2.75592 8.64209 2.69095C9.97973 2.63054 10.4981 2.61242 13.2006 2.60938L13.2006 2.61303ZM22.2414 5.02062C21.2808 5.02062 20.5014 5.7991 20.5014 6.76001C20.5014 7.72065 21.2808 8.50003 22.2414 8.50003C23.2021 8.50003 23.9814 7.72065 23.9814 6.76001C23.9814 5.79939 23.2021 5.02003 22.2414 5.02003L22.2414 5.02062ZM14.5014 7.05364C10.3891 7.05364 7.05493 10.3877 7.05493 14.5C7.05493 18.6123 10.3891 21.9448 14.5014 21.9448C18.6137 21.9448 21.9466 18.6123 21.9466 14.5C21.9466 10.3877 18.6134 7.05364 14.5011 7.05364H14.5014ZM14.5014 9.66667C17.1706 9.66667 19.3347 11.8305 19.3347 14.5C19.3347 17.1692 17.1706 19.3333 14.5014 19.3333C11.8318 19.3333 9.66798 17.1692 9.66798 14.5C9.66798 11.8305 11.8318 9.66667 14.5014 9.66667Z" fill="#D4D4D4"/>
</svg>
