<svg width="17" height="18" viewBox="0 0 17 18" fill="none" xmlns="http://www.w3.org/2000/svg">
<path d="M15.6768 17.1535L9.41525 10.892C8.91525 11.3177 8.34025 11.6472 7.69025 11.8805C7.04025 12.1139 6.38708 12.2305 5.73075 12.2305C4.12908 12.2305 2.7735 11.6761 1.664 10.5673C0.554667 9.45846 0 8.10371 0 6.50304C0 4.90221 0.554417 3.54629 1.66325 2.43529C2.77208 1.32446 4.12683 0.769043 5.7275 0.769043C7.32833 0.769043 8.68425 1.32371 9.79525 2.43304C10.9061 3.54254 11.4615 4.89813 11.4615 6.49979C11.4615 7.19463 11.3384 7.86704 11.0922 8.51704C10.8461 9.16704 10.523 9.72279 10.123 10.1843L16.3845 16.446L15.6768 17.1535ZM5.73075 11.2305C7.05758 11.2305 8.17775 10.7738 9.09125 9.86029C10.0048 8.94696 10.4615 7.82679 10.4615 6.49979C10.4615 5.17279 10.0048 4.05263 9.09125 3.13929C8.17775 2.22579 7.05758 1.76904 5.73075 1.76904C4.40375 1.76904 3.28358 2.22579 2.37025 3.13929C1.45675 4.05263 1 5.17279 1 6.49979C1 7.82679 1.45675 8.94696 2.37025 9.86029C3.28358 10.7738 4.40375 11.2305 5.73075 11.2305Z" fill="#4E4E4E"/>
</svg>
