<svg width="27" height="29" viewBox="0 0 27 29" fill="none" xmlns="http://www.w3.org/2000/svg">
<path d="M13.4577 0.00368506C15.9441 0.00368506 18.4302 -0.00814423 20.9166 0.0105855C21.702 0.0165001 22.4901 0.0697319 23.2512 0.330469C25.3098 1.03727 26.7075 2.89743 26.915 5.21104C26.9577 5.6852 26.999 6.15886 26.999 6.63548C26.999 11.9094 27.0045 17.1833 26.9921 22.4572C26.9898 23.4592 26.9127 24.4607 26.5455 25.4051C25.8983 27.0696 24.7709 28.1628 23.1644 28.6927C22.4681 28.9224 21.7488 28.9726 21.0328 28.9825C19.2275 29.0071 17.4222 28.9909 15.6164 29.0007C15.3887 29.0022 15.3318 28.9095 15.3323 28.6823C15.3369 25.4209 15.3378 22.1599 15.3309 18.8985C15.3305 18.6422 15.4149 18.5786 15.6389 18.5816C16.4881 18.5929 17.3373 18.5816 18.1864 18.5895C18.3957 18.5914 18.4774 18.5175 18.5041 18.2849C18.6367 17.1281 18.7873 15.9742 18.9337 14.8194C18.97 14.5345 18.9539 14.5089 18.6799 14.5089C17.6622 14.5079 16.6451 14.5034 15.6274 14.5123C15.4126 14.5143 15.324 14.4463 15.3318 14.2052C15.3603 13.2875 15.2703 12.3653 15.4259 11.452C15.5691 10.6116 15.9648 9.99303 16.7538 9.73081C17.1165 9.61055 17.4974 9.65589 17.8697 9.62386C18.2043 9.59527 18.5426 9.60907 18.8791 9.61301C19.0338 9.61498 19.1003 9.55042 19.0999 9.38136C19.0966 8.3872 19.098 7.39354 19.0989 6.39939C19.0989 6.28208 19.0764 6.19583 18.9443 6.17266C18.0841 6.02184 17.2248 5.83799 16.349 5.88432C15.5315 5.9277 14.7186 6.02184 13.9497 6.36883C13.0496 6.77497 12.4006 7.46156 11.9462 8.37685C11.528 9.21821 11.3302 10.1153 11.2911 11.069C11.248 12.1203 11.2691 13.1712 11.2654 14.222C11.2645 14.4408 11.2186 14.5182 10.9988 14.5148C10.0656 14.5005 9.13241 14.5079 8.19878 14.5089C7.90823 14.5089 7.9018 14.5163 7.9018 14.8268C7.90088 15.9767 7.90593 17.1271 7.89767 18.277C7.89583 18.5121 7.96652 18.5914 8.18731 18.589C9.12048 18.5786 10.0541 18.591 10.9873 18.5796C11.2104 18.5767 11.2668 18.6511 11.2659 18.8887C11.2576 22.1254 11.2599 25.3617 11.2595 28.5985C11.2595 28.864 11.1388 28.997 10.8973 28.9973C9.25267 28.9953 7.60758 29.0062 5.96294 28.9845C5.25284 28.9751 4.54046 28.9219 3.85424 28.6937C1.94429 28.0588 0.739839 26.6975 0.221615 24.6264C0.0513213 23.9452 0.0127643 23.2453 0.0109282 22.5513C-0.00284213 17.1941 -0.00376015 11.8379 0.00909218 6.48219C0.0113872 5.48853 0.0949274 4.49635 0.464432 3.56134C1.11806 1.90771 2.24861 0.827792 3.84368 0.301882C4.51613 0.0805755 5.21245 0.016993 5.90694 0.012557C8.4237 -0.00321536 10.9405 0.00614949 13.4577 0.00614949C13.4577 0.00516372 13.4577 0.00467083 13.4577 0.00368506Z" fill="#D4D4D4"/>
</svg>
