<svg width="32" height="23" viewBox="0 0 32 23" fill="none" xmlns="http://www.w3.org/2000/svg">
<path d="M15.6987 22.9804C14.0734 22.9804 12.4463 23.0326 10.8236 22.9683C8.54634 22.8779 6.25945 22.8629 4.00419 22.4406C2.32174 22.1254 1.06628 20.8126 0.730672 19.0392C0.250978 16.4976 0.192993 13.9223 0.192993 11.3424C0.192993 9.04225 0.265914 6.74672 0.641059 4.47544C1.04608 2.02514 2.30417 0.781342 4.62445 0.482048C6.41232 0.251749 8.2081 0.175294 10.0065 0.100703C13.519 -0.0447483 17.0324 -0.00931778 20.544 0.0615433C22.8071 0.10723 25.0808 0.155714 27.3194 0.583677C29.0414 0.912808 30.1387 1.99624 30.5789 3.81065C30.8723 5.01995 30.9733 6.25815 31.0674 7.49449C31.2299 9.61846 31.2097 11.749 31.1499 13.8748C31.1025 15.5484 30.983 17.222 30.6579 18.8696C30.2371 21.001 28.9983 22.2373 26.9618 22.5208C25.2636 22.7576 23.5548 22.834 21.8451 22.9152C19.7963 23.0131 17.7484 22.9925 15.6996 22.9795L15.6987 22.9804ZM12.636 11.514C12.636 12.9732 12.6439 14.4333 12.6308 15.8925C12.6273 16.2925 12.738 16.3018 13.0279 16.1237C15.4053 14.6571 17.7862 13.196 20.1723 11.7462C20.4912 11.5522 20.4693 11.4553 20.1715 11.2734C17.7862 9.82079 15.4053 8.35974 13.027 6.8959C12.7353 6.71595 12.6273 6.74579 12.6308 7.13553C12.6439 8.5947 12.636 10.0548 12.636 11.514Z" fill="#D4D4D4"/>
</svg>
