<svg width="24" height="24" viewBox="0 0 24 24" fill="none" xmlns="http://www.w3.org/2000/svg">
<path d="M22.1333 23.945L13.7333 15.5642C13.0667 16.0964 12.3 16.5176 11.4333 16.828C10.5667 17.1384 9.64444 17.2936 8.66667 17.2936C6.24444 17.2936 4.19444 16.4566 2.51667 14.7827C0.838889 13.1088 0 11.0635 0 8.6468C0 6.23013 0.838889 4.18483 2.51667 2.5109C4.19444 0.836966 6.24444 0 8.66667 0C11.0889 0 13.1389 0.836966 14.8167 2.5109C16.4944 4.18483 17.3333 6.23013 17.3333 8.6468C17.3333 9.62234 17.1778 10.5424 16.8667 11.4071C16.5556 12.2718 16.1333 13.0367 15.6 13.7019L24 22.0826L22.1333 23.945ZM8.66667 14.633C10.3333 14.633 11.75 14.0511 12.9167 12.8871C14.0833 11.7231 14.6667 10.3096 14.6667 8.6468C14.6667 6.98395 14.0833 5.57054 12.9167 4.40654C11.75 3.24255 10.3333 2.66055 8.66667 2.66055C7 2.66055 5.58333 3.24255 4.41667 4.40654C3.25 5.57054 2.66667 6.98395 2.66667 8.6468C2.66667 10.3096 3.25 11.7231 4.41667 12.8871C5.58333 14.0511 7 14.633 8.66667 14.633Z" fill="white"/>
</svg>
