<?xml version="1.0" encoding="UTF-8"?>
<svg id="Capa_2" data-name="Capa 2" xmlns="http://www.w3.org/2000/svg" viewBox="0 0 84.38 154.63">
  <defs>
    <style>
      .cls-1 {
        fill: #6bafff;
      }

      .cls-2 {
        opacity: .5;
      }
    </style>
  </defs>
  <g id="Capa_2-2" data-name="Capa 2">
    <g class="cls-2">
      <path class="cls-1" d="M77.43,85.37l.31-11.1c.05-1.92-.72-3.79-2.13-5.13-10.49-9.95-22.18-51.31-25.79-66.42l-.65-2.72h-9.19l-.87,2.28c-.19.49-18.88,49.41-32.42,68.69-1,1.43-1.52,3.19-1.44,4.95l.42,9.98-5.61-.07-.06,5.67,5.91.07,2.67,63.05h5.26-.01s1.83-.07,1.83-.07l-2.66-62.9,23.35.27-.14,40.9,11.53.3.14-5.66-5.99-.16.14-40.98-29.27-.34-.39-9.11c3.92,2.83,8.2,4.29,12.37,4.29,1.7,0,3.38-.24,5.01-.74,3.32-1.01,6.11-3.01,8.12-5.73.52.81,1.17,1.58,1.96,2.3,3.61,3.3,9,4.49,13.09,2.91,1.54-.59,3.83-1.95,5.38-5,.93,1.05,2.09,1.98,3.4,2.67,2.94,1.54,6.1,1.63,8.85.32l-.16,5.7c-1.07-.11-2.19-.18-3.36-.21-7-.2-11.62-.32-14.39,2.63-2.75,2.93-2.52,7.74-1.82,15.32,1.13,12.27,4.85,16.77,14.79,16.77,1.1,0,2.28-.06,3.54-.16.1-.01.19-.02.29-.03l-1.03,36.71h7.09l1.07-38.33c4.48-1.99,7.74-6.24,7.81-15.57.07-8.69-2.46-13.15-6.95-15.35ZM63.55,74.05c-2.33-1.22-3.68-3.37-3.68-4.78,0-.07,0-.13.01-.2l-3.96-.38c-.37,3.94-1.9,6.53-4.42,7.51-2.71,1.04-6.49.14-8.99-2.14-.83-.75-2.06-2.18-2.06-3.94,0-.34.05-.7.15-1.06l-3.82-1.08c-1.21,4.28-4.2,7.43-8.19,8.65-4.68,1.43-10.01.11-14.74-3.6,7.71-11.71,16.48-30.9,22.86-45.96,5.1,1.09,9.05.84,12.42-.11,5.1,16.78,12.79,38.14,20.87,46.61-2.54,2.02-5.12,1.17-6.45.48ZM78.71,100.68c-.08,10.04-3.85,11.08-10.04,11.61-8.82.74-11.18-.29-12.21-11.48-.33-3.61-.89-9.64.31-10.92.7-.75,3.06-.93,5.9-.93,1.34,0,2.78.04,4.2.08,9.55.27,11.84,2.37,11.84,11.23v.41Z"/>
      <path class="cls-1" d="M64.97,96.81s2.34-1.33,4.49-.23c1.72.88,3.11,2.57,3.32,4.63.11.99-.27,1.68-1.01,2.25-.3.23-.59.56-.92.76-.4.24-1.1.22-1.55.3-1.9.29-4.02-1.03-4.87-2.8-.29-.7-.14-1.6-.14-2.36l.68-2.55Z"/>
    </g>
  </g>
</svg>