<svg width="49" height="24" viewBox="0 0 49 24" fill="none" xmlns="http://www.w3.org/2000/svg">
<path d="M16.5507 16.3883L3.99243 11.6707L16.471 7.08161L16.5507 16.3883Z" fill="white"/>
<path d="M0 0V23.3387H49V0H0ZM24.8033 4.4041L18.9399 6.62157L19.0196 17.2875L24.7378 19.3765L24.7292 21.6454L1.58046 13.1481V9.80003L24.8033 1.7267V4.4041ZM25.1906 16.5372C25.8057 16.5578 30.0373 15.5762 29.8351 11.9764C29.6472 8.60008 25.1906 8.05277 25.1906 8.05277V4.84862L44.9677 11.6963L25.1906 19.0759V16.5372ZM47.2544 21.8586L26.0733 21.7995L47.2544 14.2067V21.8586ZM47.2544 9.16279L26.1018 1.7267H47.2544V9.16279Z" fill="white"/>
<path d="M16.5507 16.3883L3.99243 11.6707L16.471 7.08161L16.5507 16.3883Z" fill="#1D1D1B"/>
<path d="M16.5507 16.3883L3.99243 11.6707L16.471 7.08161L16.5507 16.3883Z" fill="white"/>
</svg>
