<svg width="187" height="29" viewBox="0 0 187 29" fill="none" xmlns="http://www.w3.org/2000/svg">
<g clip-path="url(#clip0_102_10)">
<path d="M4.47279 14.3149L19.0085 19.7358V8.88421L4.47279 14.3149ZM0 0L0.0133417 28.6331L56.3852 28.6396L56.3918 0H0ZM54.534 1.92808V11.5554L28.828 1.92808H54.534ZM28.828 19.6998C31.7231 19.6834 34.0613 17.3789 34.0613 14.5342C34.0613 11.6896 31.7231 9.38506 28.828 9.36869V5.23756L53.1331 14.3444L28.828 23.3792V19.6998ZM1.89452 16.6325V11.9449L28.798 1.9248V5.22774L22.1371 7.71558L22.1538 20.911L28.798 23.389V26.7083L1.89452 16.6325ZM54.534 26.705H28.828V26.6985L54.534 17.1301V26.705ZM19.0085 19.7358V8.88421L4.47279 14.3149L19.0085 19.7358Z" fill="white"/>
<path d="M34.0614 14.5337C34.0614 17.3784 31.7233 19.6829 28.8281 19.6993V9.36816C31.7233 9.38453 34.0614 11.6891 34.0614 14.5337Z" fill="white"/>
<path d="M54.5342 11.555V17.1298L28.8281 26.6981V23.3788L53.1333 14.344L28.8281 5.23722V1.92773L54.5342 11.555Z" fill="white"/>
<path d="M34.0617 14.5337C34.0617 17.3784 31.7236 19.6829 28.8285 19.6993H28.7984C25.89 19.6993 23.5352 17.3882 23.5352 14.5337C23.5352 11.6792 25.89 9.36816 28.7984 9.36816H28.8285C31.7236 9.38453 34.0617 11.6891 34.0617 14.5337Z" fill="white"/>
<path d="M54.5682 11.5692V17.1177L54.5349 17.1308L28.8288 26.6992L28.7988 26.709V23.3897L28.8288 23.3799L53.134 14.3451L28.8288 5.23825L28.7988 5.22843V1.91895L28.8288 1.92877L54.5349 11.5561L54.5682 11.5692Z" fill="white"/>
<path d="M64.4076 4.90332H68.1199V5.75115H65.4116V8.2259H67.9932V9.07373H65.4116V11.8365H68.2667V12.6844H64.4043V4.90332H64.4076Z" fill="white"/>
<path d="M72.6537 5.95073C72.2768 5.72814 71.7865 5.59392 71.2928 5.59392C70.539 5.59392 70.0487 6.09477 70.0487 6.75273C70.0487 7.25358 70.2555 7.56783 71.3962 8.2127C72.6303 8.90341 73.0406 9.58429 73.0406 10.4747C73.0406 11.7121 72.2534 12.681 70.7225 12.681C70.0821 12.681 69.4783 12.5468 69.0547 12.3471V11.3323C69.5117 11.6008 70.1054 11.8332 70.5724 11.8332C71.4763 11.8332 71.9899 11.2439 71.9899 10.6089C71.9899 10.0066 71.8298 9.66285 70.7558 9.0278C69.3149 8.17997 68.998 7.70204 68.998 6.69709C68.998 5.41388 70.002 4.74609 71.2128 4.74609C71.7398 4.74609 72.2968 4.85739 72.6537 5.00142V5.94746V5.95073Z" fill="white"/>
<path d="M78.8033 12.4486C78.323 12.5926 77.8194 12.681 77.3524 12.681C74.8275 12.681 73.7635 10.8086 73.7635 8.70373C73.7635 6.27481 75.2144 4.74609 77.2924 4.74609C77.8627 4.74609 78.4331 4.84757 78.8 5.02434V5.98347C78.3664 5.71504 77.8627 5.59392 77.3024 5.59392C76.0016 5.59392 74.8108 6.6087 74.8108 8.50404C74.8108 10.5107 75.6347 11.8364 77.3691 11.8364C77.8827 11.8364 78.3864 11.7022 78.7966 11.4698V12.4519L78.8033 12.4486Z" fill="white"/>
<path d="M84.7766 9.73868C84.7766 10.5079 84.7299 10.9302 84.4564 11.4769C84.1262 12.125 83.4291 12.6815 82.275 12.6815C81.1209 12.6815 80.4238 12.125 80.0936 11.4769C79.8201 10.9302 79.7734 10.5079 79.7734 9.73868V4.8252H80.7774V9.88599C80.7774 11.1004 81.3244 11.8828 82.275 11.8828C83.2256 11.8828 83.7726 11.1037 83.7726 9.88599V4.8252H84.7766V9.73868Z" fill="white"/>
<path d="M86.1205 4.90332H89.8328V5.75115H87.1245V8.2259H89.7061V9.07373H87.1245V11.8365H89.9796V12.6844H86.1172V4.90332H86.1205Z" fill="white"/>
<path d="M91.3041 4.90332H92.3081V11.8365H94.923V12.6844H91.3008V4.90332H91.3041Z" fill="white"/>
<path d="M99.2494 4.90332L101.854 12.6811H100.804L100.163 10.6515H97.1247L96.4843 12.6811H95.4803L98.1553 4.90332H99.2527H99.2494ZM99.8998 9.80699L98.6757 5.92792H98.6523L97.3949 9.80699H99.8964H99.8998Z" fill="white"/>
<path d="M105.213 4.90332H106.951C108.011 4.90332 108.619 5.14883 109.075 5.45981C109.783 5.93774 110.55 6.91978 110.55 8.67109C110.55 10.9232 109.452 12.6844 106.461 12.6844H105.216V4.90332H105.213ZM106.217 11.8365H106.824C108.582 11.8365 109.499 10.6679 109.499 8.67109C109.499 7.04417 108.792 5.75115 106.824 5.75115H106.217V11.8365Z" fill="white"/>
<path d="M111.363 4.90332H115.075V5.75115H112.367V8.2259H114.948V9.07373H112.367V11.8365H115.222V12.6844H111.359V4.90332H111.363Z" fill="white"/>
<path d="M121.366 4.90332L123.971 12.6811H122.921L122.28 10.6515H119.242L118.601 12.6811H117.597L120.272 4.90332H121.37H121.366ZM122.017 9.80699L120.793 5.92792H120.769L119.512 9.80699H122.014H122.017Z" fill="white"/>
<path d="M124.752 4.90332H126.797C127.644 4.90332 128.111 5.103 128.474 5.4369C128.885 5.81662 129.068 6.3502 129.068 6.91978C129.068 7.7447 128.668 8.53688 127.49 8.78239V8.8053C127.971 8.89369 128.197 9.11628 128.358 9.56148L129.478 12.6811H128.394L127.48 10.0492C127.254 9.40435 126.967 9.15884 126.213 9.15884H125.756V12.6811H124.752V4.90332ZM125.759 8.35684H126.536C127.61 8.35684 128.021 7.66613 128.021 6.98525C128.021 6.11451 127.437 5.70205 126.56 5.70205H125.759V8.35356V8.35684Z" fill="white"/>
<path d="M131.486 5.75115H129.658V4.90332H134.318V5.75115H132.49V12.6844H131.486V5.75115Z" fill="white"/>
<path d="M135.101 4.90332H138.813V5.75115H136.105V8.2259H138.687V9.07373H136.105V11.8365H138.96V12.6844H135.098V4.90332H135.101Z" fill="white"/>
<path d="M143.695 5.95073C143.318 5.72814 142.827 5.59392 142.334 5.59392C141.58 5.59392 141.09 6.09477 141.09 6.75273C141.09 7.25358 141.297 7.56783 142.437 8.2127C143.671 8.90341 144.082 9.58429 144.082 10.4747C144.082 11.7121 143.294 12.681 141.763 12.681C141.123 12.681 140.519 12.5468 140.096 12.3471V11.3323C140.553 11.6008 141.146 11.8332 141.617 11.8332C142.521 11.8332 143.034 11.2439 143.034 10.6089C143.034 10.0066 142.874 9.66285 141.8 9.0278C140.359 8.17997 140.039 7.70204 140.039 6.69709C140.039 5.41388 141.043 4.74609 142.257 4.74609C142.784 4.74609 143.341 4.85739 143.698 5.00142V5.94746L143.695 5.95073Z" fill="white"/>
<path d="M146.441 4.90332H147.539L149.39 11.244H149.413L151.368 4.90332H152.372L149.87 12.6811H148.863L146.441 4.90332Z" fill="white"/>
<path d="M153.197 4.90332H154.205V12.6811H153.197V4.90332Z" fill="white"/>
<path d="M159.054 5.95073C158.677 5.72814 158.187 5.59392 157.693 5.59392C156.939 5.59392 156.449 6.09477 156.449 6.75273C156.449 7.25358 156.656 7.56783 157.797 8.2127C159.031 8.90341 159.441 9.58429 159.441 10.4747C159.441 11.7121 158.654 12.681 157.123 12.681C156.482 12.681 155.879 12.5468 155.455 12.3471V11.3323C155.912 11.6008 156.506 11.8332 156.976 11.8332C157.88 11.8332 158.394 11.2439 158.394 10.6089C158.394 10.0066 158.234 9.66285 157.16 9.0278C155.719 8.17997 155.398 7.70204 155.398 6.69709C155.398 5.41388 156.402 4.74609 157.616 4.74609C158.143 4.74609 158.7 4.85739 159.057 5.00142V5.94746L159.054 5.95073Z" fill="white"/>
<path d="M165.493 9.73868C165.493 10.5079 165.447 10.9302 165.173 11.4769C164.843 12.125 164.146 12.6815 162.992 12.6815C161.838 12.6815 161.141 12.125 160.81 11.4769C160.537 10.9302 160.49 10.5079 160.49 9.73868V4.8252H161.498V9.88599C161.498 11.1004 162.045 11.8828 162.995 11.8828C163.946 11.8828 164.493 11.1037 164.493 9.88599V4.8252H165.5V9.73868H165.493Z" fill="white"/>
<path d="M169.814 4.90332L172.419 12.6811H171.368L170.728 10.6515H167.689L167.049 12.6811H166.045L168.717 4.90332H169.814ZM170.464 9.80699L169.244 5.92792H169.22L167.963 9.80699H170.464Z" fill="white"/>
<path d="M173.389 4.90332H174.396V11.8365H177.011V12.6844H173.389V4.90332Z" fill="white"/>
<path d="M178.035 4.90332H181.747V5.75115H179.039V8.2259H181.62V9.07373H179.039V11.8365H181.894V12.6844H178.031V4.90332H178.035Z" fill="white"/>
<path d="M186.611 5.95073C186.234 5.72814 185.743 5.59392 185.25 5.59392C184.496 5.59392 184.006 6.09477 184.006 6.75273C184.006 7.25358 184.212 7.56783 185.353 8.2127C186.587 8.90341 186.997 9.58429 186.997 10.4747C186.997 11.7121 186.21 12.681 184.679 12.681C184.039 12.681 183.435 12.5468 183.012 12.3471V11.3323C183.469 11.6008 184.062 11.8332 184.533 11.8332C185.436 11.8332 185.95 11.2439 185.95 10.6089C185.95 10.0066 185.79 9.66285 184.716 9.0278C183.275 8.17997 182.955 7.70204 182.955 6.69709C182.955 5.41388 183.959 4.74609 185.173 4.74609C185.7 4.74609 186.257 4.85739 186.614 5.00142V5.94746L186.611 5.95073Z" fill="white"/>
<path d="M71.6474 17.6736H71.6207L69.6262 24.5577H68.2553L66.3375 17.6736H66.3108V24.5577H64.4062V15.8535H67.5449L68.9791 21.4512H69.0058L70.5567 15.8535H73.5553V24.5577H71.6508V17.6736H71.6474Z" fill="white"/>
<path d="M79.6995 15.8535H77.4114L74.4629 24.5577H76.4708L77.0812 22.6132H79.8629L80.4099 24.5577H82.5446L79.6995 15.8535ZM77.4614 21.1402L78.5188 17.523H78.5421L79.456 21.1402H77.4614Z" fill="white"/>
<path d="M88.6884 21.713C88.3582 20.6786 88.1047 20.3284 87.4543 20.2563V20.2302C89.1721 19.893 89.2221 18.4592 89.2221 18.0991C89.2221 16.4886 87.978 15.8535 86.5171 15.8535H83.2617V24.5577H85.3464V21.0387C86.1102 21.0387 86.387 21.0387 86.7305 22.2237L87.4176 24.5577H89.6023L88.6884 21.713ZM86.1102 19.5689H85.4598V17.3233H86.0968C87.2142 17.3233 87.3309 18.0598 87.3309 18.4232C87.3309 19.0452 86.9107 19.5689 86.1102 19.5689Z" fill="white"/>
<path d="M91.9293 17.4248H89.998V15.8535H95.9451V17.4248H94.0139V24.5577H91.9293V17.4248Z" fill="white"/>
<path d="M98.0731 13.4834L97.386 15.3035H98.5567L99.8242 13.4834H98.0731ZM97.3359 15.8534V24.5576H99.4206V15.8534H97.3359Z" fill="white"/>
<path d="M101.06 15.8535H103.498L106.076 21.8898H106.103V15.8535H107.931V24.5577H105.466L102.911 18.2595H102.884V24.5577H101.057V15.8535H101.06Z" fill="white"/>
<path d="M116.161 15.8535H113.876L110.928 24.5577H112.936L113.546 22.6132H116.328L116.875 24.5577H119.009L116.161 15.8535ZM113.926 21.1402L114.98 17.523H115.007L115.921 21.1402H113.926Z" fill="white"/>
<path d="M119.693 22.6846H121.521V24.5537H119.693V22.6846Z" fill="white"/>
<path d="M131.292 17.6736H131.265L129.271 24.5577H127.9L125.982 17.6736H125.955V24.5577H124.051V15.8535H127.189L128.624 21.4512H128.65L130.201 15.8535H133.2V24.5577H131.295V17.6736H131.292Z" fill="white"/>
<path d="M138.949 15.8535H136.661L133.713 24.5577H135.721L136.331 22.6132H139.113L139.66 24.5577H141.795L138.949 15.8535ZM136.425 21.1402L137.479 17.523H137.505L138.419 21.1402H136.425Z" fill="white"/>
<path d="M142.442 15.8535H144.526V22.9864H147.461V24.5577H142.442V15.8535Z" fill="white"/>
<path d="M152.782 20.9405H150.624V24.5577H148.539V15.8535H150.624V19.3201H152.782V15.8535H154.866V24.5577H152.782V20.9405Z" fill="white"/>
<path d="M160.932 15.8535H158.644L155.699 24.5577H157.704L158.314 22.6132H161.099L161.643 24.5577H163.778L160.932 15.8535ZM158.698 21.1402L159.752 17.523H159.775L160.692 21.1402H158.698Z" fill="white"/>
<path d="M170.061 21.713C169.731 20.6786 169.478 20.3284 168.827 20.2563V20.2302C170.545 19.893 170.595 18.4592 170.595 18.0991C170.595 16.4886 169.351 15.8535 167.89 15.8535H164.635V24.5577H166.719V21.0387C167.483 21.0387 167.76 21.0387 168.104 22.2237L168.791 24.5577H170.975L170.061 21.713ZM167.29 19.5689H166.643V17.3233H167.28C168.397 17.3233 168.511 18.0598 168.511 18.4232C168.511 19.0452 168.09 19.5689 167.29 19.5689Z" fill="white"/>
<path d="M177.798 21.713C177.468 20.6786 177.214 20.3284 176.564 20.2563V20.2302C178.281 19.893 178.331 18.4592 178.331 18.0991C178.331 16.4886 177.087 15.8535 175.626 15.8535H172.371V24.5577H174.456V21.0387C175.22 21.0387 175.496 21.0387 175.84 22.2237L176.527 24.5577H178.712L177.798 21.713ZM175.026 19.5689H174.379V17.3233H175.013C176.133 17.3233 176.247 18.0598 176.247 18.4232C176.247 19.0452 175.827 19.5689 175.026 19.5689Z" fill="white"/>
<path d="M183.058 15.5518C180.506 15.5518 179.299 17.4995 179.299 20.0561C179.299 22.6126 180.506 24.5571 183.058 24.5571C185.609 24.5571 186.834 22.6126 186.834 20.0561C186.834 17.4995 185.613 15.5518 183.058 15.5518ZM183.058 23.084C181.854 23.084 181.434 21.7255 181.434 20.0561C181.434 18.3866 181.85 17.0248 183.058 17.0248C184.265 17.0248 184.699 18.3833 184.699 20.0561C184.699 21.7288 184.265 23.084 183.058 23.084Z" fill="white"/>
</g>
<defs>
<clipPath id="clip0_102_10">
<rect width="187" height="28.6396" fill="white"/>
</clipPath>
</defs>
</svg>
