<?xml version="1.0" encoding="UTF-8"?>
<svg id="Capa_2" data-name="Capa 2" xmlns="http://www.w3.org/2000/svg" viewBox="0 0 106.66 154.53">
  <defs>
    <style>
      .cls-1 {
        fill: #5044c4;
      }

      .cls-2 {
        opacity: .7;
      }
    </style>
  </defs>
  <g id="Capa_2-2" data-name="Capa 2">
    <g class="cls-2">
      <path class="cls-1" d="M62.14,74.79c-3.31-2.37-7.75-3.88-12.51-4.25-.75-.06-1.5-.09-2.24-.09h-.01c-9.84,0-17.35,4.95-17.88,11.76-.38,4.94,3.06,9.45,8.6,12.14l-5.83,6.53,2.11,1.89,6.51-7.29c2.06.69,4.31,1.16,6.71,1.34.75.06,1.5.09,2.24.09.63,0,1.26-.02,1.87-.06l1.73,7.04,2.75-.67-1.64-6.71c7.44-1.3,12.74-5.68,13.17-11.35.3-3.83-1.74-7.61-5.58-10.37ZM49.85,92.95c-.64,0-1.28-.02-1.94-.08-8.37-.65-14.84-5.28-14.45-10.35.36-4.67,6.42-8.09,13.92-8.09.64,0,1.28.02,1.94.08,8.37.65,14.84,5.28,14.45,10.35-.36,4.67-6.42,8.09-13.92,8.09Z"/>
      <path class="cls-1" d="M97.59,68.84l-.43-8.54c3.95-1.4,9.83-5.72,9.49-14.43-.31-8.23-6.28-11.5-10.5-12.35l4.22-15.09L18.92,0l-2.81,16.34,69.55,18.93H13.48v11.33c-2.3.06-6.3.62-9.39,3.38-2.72,2.43-4.09,5.96-4.09,10.49,0,10.1,10.63,13.72,13.81,14.58l-.77,79.48h7.09l1.13-102.11,68.71.46.56,16.31c-5.58,2.09-7.8,8.47-7.93,14.09h0c-.1,4.17,1.32,7.85,3.97,10.35,1.41,1.32,3.13,2.27,4.99,2.77l.61,16.97h-50.85v5.67h51.05l1.27,35.49h7.1l-2.11-58.46c4.64-1.98,6.78-7.62,6.78-12.74,0-9.86-3.79-13.46-7.82-14.49ZM13.1,70.65c-3.38-1.24-9.14-4.22-9.14-10.18,0-3.34.93-5.87,2.76-7.52,1.97-1.77,4.64-2.25,6.38-2.36v20.06ZM102.69,46.03c.21,5.68-2.97,8.5-5.27,9.79l-1-18.14c2.47.75,6.05,2.8,6.27,8.35ZM32.86,16.95l-9.24-1.97,1.97-9.24,9.24,1.97-1.97,9.24ZM52.24,21.47l-9.24-1.97,1.97-9.24,9.24,1.97-1.97,9.24ZM71.38,25.56l-9.24-1.97,1.97-9.24,9.24,1.97-1.97,9.24ZM30.06,47.25h-9.45v-9.45h9.45v9.45ZM49.63,47.25h-9.45v-9.45h9.45v9.45ZM69.19,47.25h-9.45v-9.45h9.45v9.45ZM88.76,47.25h-9.45v-9.45h9.45v9.45ZM90.52,30.12l-9.24-1.97,1.97-9.24,9.24,1.97-1.97,9.24ZM95.42,92.82c-2.31.2-4.49-.55-6.13-2.08-1.85-1.75-2.79-4.29-2.73-7.36.07-2.57.83-10.93,8.07-10.93,2.92,0,6.8,1.12,6.8,10.88,0,3.61-1.6,9.13-6.01,9.49Z"/>
      <path class="cls-1" d="M46.65,80.14s2.34-1.33,4.49-.23c1.72.88,3.11,2.57,3.32,4.63.11.99-.27,1.68-1.01,2.25-.3.23-.59.56-.92.76-.4.24-1.1.22-1.55.3-1.9.29-4.02-1.03-4.87-2.8-.29-.7-.14-1.6-.14-2.36l.68-2.55Z"/>
      <path class="cls-1" d="M94.48,76.74s2.38-.09,2.94,2.09c.45,1.74.12,3.75-1.19,5.17-.62.69-1.34.84-2.19.68-.35-.07-.76-.07-1.09-.17-.41-.13-.83-.63-1.17-.89-1.37-1.15-1.75-3.44-1.05-5.12.31-.63,1.03-1.09,1.56-1.55l2.19-.21Z"/>
    </g>
  </g>
</svg>