<?xml version="1.0" encoding="UTF-8"?>
<svg id="Capa_2" data-name="Capa 2" xmlns="http://www.w3.org/2000/svg" viewBox="0 0 106.67 154.53">
  <defs>
    <style>
      .cls-1 {
        fill: #5044c4;
      }

      .cls-2 {
        opacity: .3;
      }
    </style>
  </defs>
  <g id="Capa_2-2" data-name="Capa 2">
    <g id="Capa_1-2" data-name="Capa 1-2" class="cls-2">
      <g>
        <polygon class="cls-1" points="98.63 95.69 100.75 154.53 93.65 154.53 91.56 96.03 98.63 95.69"/>
        <polygon class="cls-1" points="97.64 69.55 96.56 48.19 14.07 48.81 13.05 154.53 20.14 154.53 21.27 52.42 89.98 52.88 90.56 69.87 97.64 69.55"/>
        <rect class="cls-1" x="41.33" y="113.37" width="54.28" height="5.67"/>
        <path class="cls-1" d="M17.07,75.76l-2.39-.49c-.6-.12-14.68-3.17-14.68-14.79,0-4.53,1.38-8.06,4.09-10.49,4.49-4.02,10.94-3.36,11.21-3.33l1.77.2v28.92ZM13.1,50.59c-1.74.11-4.41.59-6.38,2.36-1.83,1.65-2.75,4.18-2.75,7.52,0,5.96,5.75,8.94,9.13,10.18v-20.06Z"/>
        <path class="cls-1" d="M47.39,74.43c.64,0,1.28.02,1.94.08,8.37.65,14.84,5.28,14.45,10.35-.36,4.67-6.42,8.09-13.92,8.09-.64,0-1.28-.02-1.94-.08-8.37-.65-14.84-5.28-14.45-10.35.36-4.67,6.42-8.09,13.92-8.09M47.39,70.46h0c-9.84,0-17.35,4.94-17.88,11.75-.57,7.37,7.38,13.79,18.1,14.61.75.06,1.5.09,2.24.09,9.84,0,17.36-4.94,17.88-11.75.3-3.83-1.74-7.61-5.58-10.37-3.31-2.37-7.75-3.88-12.51-4.25-.75-.06-1.5-.09-2.24-.09h0Z"/>
        <path class="cls-1" d="M13.49,35.27v14.51h81.48v-13.51c0-.55-.45-1-1-1H13.49ZM30.07,47.25h-9.45v-9.45h9.45s0,9.45,0,9.45ZM49.64,47.25h-9.45v-9.45h9.45v9.45ZM69.2,47.25h-9.45v-9.45h9.45v9.45ZM88.77,47.25h-9.45v-9.45h9.45v9.45Z"/>
        <path class="cls-1" d="M90.06,0l2.81,16.34L14.02,37.8l-5.41-19.37L90.06,0ZM76.12,16.95l9.24-1.97-1.97-9.24-9.24,1.97,1.97,9.24ZM56.74,21.47l9.24-1.97-1.97-9.24-9.24,1.97s1.97,9.24,1.97,9.24ZM37.6,25.56l9.24-1.97-1.97-9.24-9.24,1.97,1.97,9.24ZM18.46,30.12l9.24-1.97-1.97-9.24-9.24,1.97,1.97,9.24Z"/>
        <rect class="cls-1" x="31.25" y="95.76" width="12.48" height="2.83" transform="translate(-59.98 60.47) rotate(-48.27)"/>
        <rect class="cls-1" x="52.15" y="93.15" width="2.83" height="10.55" transform="translate(-21.91 15.6) rotate(-13.78)"/>
        <path class="cls-1" d="M94.73,96.82c-3.04,0-5.97-1.14-8.16-3.19-2.66-2.5-4.07-6.18-3.98-10.34h0c.16-6.83,3.42-14.81,12.03-14.81,4.92,0,10.78,2.58,10.78,14.85,0,6.09-3.02,12.9-9.66,13.45-.34.03-.68.04-1.01.04ZM86.57,83.37h0c-.07,3.07.88,5.62,2.73,7.36,1.63,1.54,3.8,2.27,6.12,2.08,4.42-.37,6.02-5.88,6.02-9.49,0-9.76-3.88-10.89-6.8-10.89-7.24,0-8,8.36-8.07,10.93Z"/>
        <path class="cls-1" d="M93.74,63.2l-1.54-27.91h2.22c4.07.23,11.87,3.15,12.23,12.59.37,9.58-6.77,13.85-10.6,14.77l-2.32.56ZM96.43,39.68l1,18.14c2.31-1.29,5.48-4.11,5.27-9.79-.21-5.55-3.8-7.59-6.27-8.35Z"/>
        <path class="cls-1" d="M46.66,80.14s2.34-1.33,4.49-.23c1.72.88,3.11,2.57,3.32,4.63.11.99-.27,1.68-1.01,2.25-.3.23-.59.56-.92.76-.4.24-1.1.22-1.55.3-1.9.29-4.02-1.03-4.87-2.8-.29-.7-.14-1.6-.14-2.36"/>
        <path class="cls-1" d="M94.49,76.74s2.38-.09,2.94,2.09c.45,1.74.12,3.75-1.19,5.17-.62.69-1.34.84-2.19.68-.35-.07-.76-.07-1.09-.17-.41-.13-.83-.63-1.17-.89-1.37-1.15-1.75-3.44-1.05-5.12.31-.63,1.03-1.09,1.56-1.55"/>
      </g>
    </g>
  </g>
</svg>