<?xml version="1.0" encoding="UTF-8"?>
<svg id="Capa_2" data-name="Capa 2" xmlns="http://www.w3.org/2000/svg" viewBox="0 0 99.54 239.55">
  <defs>
    <style>
      .cls-1 {
        fill: #98c7ff;
      }
    </style>
  </defs>
  <g id="Capa_1-2" data-name="Capa 1">
    <g>
      <polygon class="cls-1" points="73.96 206.24 56.09 205.77 56.31 142.41 0 141.76 .1 132.98 65.12 133.72 64.91 197.21 74.19 197.45 73.96 206.24"/>
      <path class="cls-1" d="M99.54,115.22v6.43c-1.33-.3-2.66-.8-3.95-1.48-2.04-1.07-3.83-2.5-5.27-4.14-2.4,4.73-5.94,6.83-8.33,7.75-6.34,2.45-14.68.6-20.28-4.51-1.22-1.11-2.24-2.31-3.04-3.56-3.11,4.22-7.43,7.31-12.58,8.88-2.52.77-5.13,1.15-7.76,1.15-6.45,0-13.08-2.27-19.16-6.64-.92-.66-1.83-1.37-2.73-2.13l3.97-4.69c.35.3.7.58,1.06.86,7.31,5.76,15.57,7.78,22.83,5.57,6.18-1.89,10.81-6.77,12.68-13.4l5.92,1.68c-.99,3.49,1.43,6.34,2.95,7.74,3.88,3.54,9.74,4.93,13.93,3.32,3.9-1.51,6.28-5.53,6.86-11.62h0s6.12.57,6.12.57c-.2,2.17,1.91,5.74,5.69,7.72.32.17.68.34,1.09.5Z"/>
      <path class="cls-1" d="M55.94,41.74c8.6,1.98,15.14,1.53,20.67-.11l-8.64-28.85-12.01,28.95h-.02Z"/>
      <path class="cls-1" d="M99.54,75.71v25.65c-9.12-16.07-17.42-39.87-23.43-59.59-3.45-11.37-6.15-21.38-7.8-27.77-2.45,6.22-6.48,16.29-11.43,27.95-9.9,23.33-23.47,53.05-35.41,71.19-.71,1.09-1.43,2.14-2.13,3.14-.19.25-.25.56-.25.89l.08,1.93.6,14.1.37,8.79,4.12,97.44-2.83.12h.01s-8.14-.01-8.14-.01l-4.13-97.67-.38-8.79-.65-15.47c-.13-2.72.68-5.45,2.23-7.66C31.34,80.08,60.3,4.29,60.59,3.53l1.35-3.53h14.24l1,4.21c3.58,14.98,12.29,46.63,22.36,71.5Z"/>
      <path class="cls-1" d="M97.1,137.83c.79,0,1.61.01,2.44.03v-8.79c-8.47-.16-14.3.24-17.99,4.18-4.25,4.54-3.9,11.99-2.82,23.73,1.67,18.12,6.99,25.3,20.81,25.93v-8.77c-3.47-.18-5.77-.93-7.29-2.3-2.51-2.26-3.98-7.09-4.77-15.67-.52-5.58-1.38-14.93.48-16.91,1.08-1.16,4.74-1.43,9.14-1.43Z"/>
    </g>
  </g>
</svg>