<?xml version="1.0" encoding="UTF-8"?>
<svg id="Capa_2" xmlns="http://www.w3.org/2000/svg" version="1.1" viewBox="0 0 106.7 154.5">
  <!-- Generator: Adobe Illustrator 29.7.1, SVG Export Plug-In . SVG Version: 2.1.1 Build 8)  -->
  <defs>
    <style>
      .st0 {
        stroke-linecap: square;
        stroke-width: 2.8px;
      }

      .st0, .st1, .st2 {
        fill: none;
        stroke: #1d1d1b;
        stroke-miterlimit: 10;
      }

      .st1 {
        stroke-width: 5.7px;
      }

      .st3 {
        fill: #1d1d1b;
      }

      .st2 {
        stroke-width: 4px;
      }
    </style>
  </defs>
  <g id="Capa_1-2">
    <g>
      <polygon class="st3" points="98.6 95.7 100.7 154.5 93.6 154.5 91.6 96 98.6 95.7"/>
      <polygon class="st3" points="97.6 69.6 96.6 48.2 14.1 48.8 13 154.5 20.1 154.5 21.3 52.4 90 52.9 90.6 69.9 97.6 69.6"/>
      <line class="st1" x1="41.3" y1="116.2" x2="95.6" y2="116.2"/>
      <path class="st2" d="M15.1,73.3s-13.1-2.7-13.1-12.8,13.1-11.8,13.1-11.8c0,0,0,24.7,0,24.7Z"/>
      <path class="st3" d="M47.4,74.4c.6,0,1.3,0,1.9,0,8.4.7,14.8,5.3,14.5,10.3-.4,4.7-6.4,8.1-13.9,8.1s-1.3,0-1.9,0c-8.4-.7-14.8-5.3-14.5-10.3.4-4.7,6.4-8.1,13.9-8.1M47.4,70.5h0c-9.8,0-17.4,4.9-17.9,11.8-.6,7.4,7.4,13.8,18.1,14.6.8,0,1.5,0,2.2,0,9.8,0,17.4-4.9,17.9-11.8.3-3.8-1.7-7.6-5.6-10.4-3.3-2.4-7.8-3.9-12.5-4.2-.8,0-1.5,0-2.2,0h0Z"/>
      <path class="st3" d="M13.5,35.3v14.5h81.5v-13.5c0-.6-.4-1-1-1H13.5ZM30.1,47.2h-9.4v-9.5h9.5s0,9.5,0,9.5ZM49.6,47.2h-9.5v-9.5h9.5v9.5ZM69.2,47.2h-9.5v-9.5h9.5v9.5ZM88.8,47.2h-9.4v-9.5h9.4v9.5Z"/>
      <path class="st3" d="M90,0l2.8,16.3L14,37.8l-5.4-19.4L90,0ZM76.1,17l9.2-2-2-9.2-9.2,2,2,9.2ZM56.7,21.5l9.2-2-2-9.2-9.2,2s2,9.2,2,9.2ZM37.6,25.6l9.2-2-2-9.2-9.2,2,2,9.2ZM18.4,30.1l9.2-2-2-9.2-9.2,2,2,9.2Z"/>
      <line class="st0" x1="34.3" y1="100.8" x2="40.7" y2="93.6"/>
      <line class="st0" x1="52.6" y1="94.7" x2="54.5" y2="102.2"/>
      <path class="st2" d="M84.6,83.3c-.2,7.6,5.2,11.9,11,11.5,5.8-.5,7.8-7,7.8-11.5s-.7-12.9-8.8-12.9-9.9,8.3-10.1,12.9"/>
      <path class="st2" d="M94.3,37.3s10,.5,10.4,10.7c.4,10.5-9.1,12.8-9.1,12.8l-1.3-23.4h0Z"/>
      <path class="st3" d="M46.7,80.1s2.3-1.3,4.5-.2c1.7.9,3.1,2.6,3.3,4.6.1,1-.3,1.7-1,2.2-.3.2-.6.6-.9.8-.4.2-1.1.2-1.5.3-1.9.3-4-1-4.9-2.8-.3-.7-.1-1.6-.1-2.4"/>
      <path class="st3" d="M94.5,76.7s2.4,0,2.9,2.1c.4,1.7.1,3.8-1.2,5.2-.6.7-1.3.8-2.2.7-.3,0-.8,0-1.1-.2-.4-.1-.8-.6-1.2-.9-1.4-1.2-1.8-3.4-1.1-5.1.3-.6,1-1.1,1.6-1.6"/>
    </g>
  </g>
</svg>