<?xml version="1.0" encoding="UTF-8"?>
<svg id="Capa_2" data-name="Capa 2" xmlns="http://www.w3.org/2000/svg" viewBox="0 0 89.44 227.35">
  <defs>
    <style>
      .cls-1 {
        fill: #f85c8d;
      }
    </style>
  </defs>
  <g id="Capa_1-2" data-name="Capa 1">
    <g>
      <path class="cls-1" d="M46.7,119.62c-8.65,0-18.32,6.85-18.32,16.01,0,4.78,2.63,8.92,6.38,11.8,1.1.85,2.3,1.59,3.57,2.2,1.55.75,3.2,1.31,4.86,1.64,1.17.24,2.35.36,3.51.36.19,0,.39,0,.58-.01,2.29-.08,4.45-.65,6.4-1.59,1.26-.62,2.42-1.39,3.47-2.31,3.4-2.92,5.55-7.26,5.55-12.09,0-8.83-7.18-16.01-16-16.01ZM34.11,135.63c0-5.54,6.92-10.28,12.59-10.28s10.27,4.61,10.27,10.28-4.61,10.27-10.27,10.27-12.59-4.74-12.59-10.27Z"/>
      <rect class="cls-1" x="70.83" y="39.47" width="8.19" height="79.09"/>
      <path class="cls-1" d="M39.88,91.31c-.79-.94-19.2-23.38-14.46-47.04,4.43-22.11,18.2-34.22,40.93-35.99l.64,8.16c-18.9,1.47-29.87,11.1-33.54,29.44-3.97,19.79,12.55,39.99,12.72,40.2l-6.29,5.24Z"/>
      <path class="cls-1" d="M64.75,0v24.69h24.69V0h-24.69ZM70.48,18.96V5.74h13.23v13.22h-13.23Z"/>
      <path class="cls-1" d="M65.52.77v23.16h23.15V.77h-23.15ZM84.47,19.73h-14.75V4.97h14.75v14.76Z"/>
      <rect class="cls-1" x="43.19" y="146.39" width="4.09" height="11.3"/>
      <rect class="cls-1" x="29.6" y="147.31" width="12.22" height="4.09" transform="translate(-95.04 68.81) rotate(-44.92)"/>
      <rect class="cls-1" x="54.7" y="145.65" width="4.09" height="9.11" transform="translate(-89.6 84.13) rotate(-45)"/>
      <g>
        <polygon class="cls-1" points="69.97 138.62 89.44 137.32 89.44 147.58 70.66 148.83 69.97 138.62"/>
        <polygon class="cls-1" points="70.83 52.55 11.99 146.55 35.74 186.53 35.75 186.54 89.44 186.54 89.44 196.78 29.92 196.78 27.52 192.74 0 146.41 36.95 87.37 41.76 79.69 75.33 26.06 89.44 53.22 89.44 75.41 79.02 55.35 74.51 46.67 70.83 52.55"/>
      </g>
      <path class="cls-1" d="M41.7,134.76s.46-2.3,2.87-2.86c1.93-.46,4.09-.07,5.49,1.34.68.68.77,1.44.51,2.35-.1.38-.16.81-.3,1.17-.19.45-.77.88-1.1,1.23-1.4,1.44-3.91,1.82-5.66,1.05-.65-.35-1.07-1.11-1.52-1.69l-.29-2.6Z"/>
      <polygon class="cls-1" points="89.44 186.53 89.44 196.77 36.97 196.77 36.96 196.78 20.79 227.35 9.22 227.35 27.52 192.74 30.81 186.53 89.44 186.53"/>
    </g>
  </g>
</svg>