<?xml version="1.0" encoding="UTF-8"?>
<svg id="Capa_2" data-name="Capa 2" xmlns="http://www.w3.org/2000/svg" viewBox="0 0 84.38 154.75">
  <defs>
    <style>
      .cls-1, .cls-2 {
        fill: none;
      }

      .cls-1, .cls-2, .cls-3 {
        stroke: #1d1d1b;
      }

      .cls-1, .cls-3 {
        stroke-miterlimit: 10;
        stroke-width: 5.67px;
      }

      .cls-4, .cls-3 {
        fill: #fff;
      }

      .cls-2 {
        stroke-linejoin: bevel;
        stroke-width: 3.97px;
      }

      .cls-5 {
        fill: #1d1d1b;
      }
    </style>
  </defs>
  <g id="Capa_1-2" data-name="Capa 1">
    <g>
      <polyline class="cls-4" points="72.8 154.75 71.45 140.48 72.8 115.25 79.22 110.6 81.11 95.01 74.34 87.17 75.1 81.81 69.74 69.3 58.76 41.73 50.33 22.33 36.11 21.05 11.89 71.86 12.61 107.34 13.83 154.61"/>
      <polyline class="cls-1" points=".03 88.65 39.19 89.1 39.05 130.04 47.81 130.27"/>
      <path class="cls-2" d="M11.89,73.97c10.71,9.07,23.67,5.58,26.8-5.47-2.55,9,17.61,17.14,19.21.36-.45,4.72,7.51,11.17,13.55,6.08"/>
      <path class="cls-5" d="M36.11,26.92c5.55,1.28,9.77.99,13.34-.07l-5.58-18.62-7.75,18.69Z"/>
      <path class="cls-5" d="M13.83,154.61l1.83-.08-3.34-78.92c0-.21.04-.41.16-.57,11.8-16.8,26.68-53.49,31.61-66.02,3.57,13.81,14.69,53.79,26.56,65.17l-2.24,80.41h7.09l2.24-80.35c.05-1.92-.72-3.79-2.13-5.13-10.49-9.95-22.18-51.31-25.79-66.42l-.65-2.72h-9.19l-.87,2.28c-.19.49-18.88,49.41-32.42,68.69-1,1.43-1.52,3.19-1.44,4.95l3.33,78.7h5.26Z"/>
      <path class="cls-3" d="M81.54,100.68c-.09,11.58-5.03,13.77-12.63,14.41-10.8.91-14.14-1.78-15.27-14.04-1.37-14.86-.17-15.23,13.31-14.86,10.66.29,14.68,3.28,14.59,14.49Z"/>
      <path class="cls-5" d="M64.97,96.79s2.34-1.33,4.49-.23c1.72.88,3.11,2.57,3.32,4.63.11.99-.27,1.68-1.01,2.25-.3.23-.59.56-.92.76-.4.24-1.1.22-1.55.3-1.9.29-4.02-1.03-4.87-2.8-.29-.7-.14-1.6-.14-2.36"/>
    </g>
  </g>
</svg>