<?xml version="1.0" encoding="UTF-8"?>
<svg id="Capa_2" data-name="Capa 2" xmlns="http://www.w3.org/2000/svg" viewBox="0 0 124.13 267">
  <defs>
    <style>
      .cls-1 {
        fill: #f0f188;
      }
    </style>
  </defs>
  <g id="Capa_1-2" data-name="Capa 1">
    <g>
      <polygon class="cls-1" points="124.13 162.35 124.13 165.17 114.39 183.72 109.61 181.22 120.52 160.45 124.13 162.35"/>
      <path class="cls-1" d="M57.71,8.09h-.62c-1.58-4.7-6.03-8.09-11.25-8.09H11.96C5.42,0,.1,5.33.1,11.87v20.98l57.63.35V11.87l-.02-3.78ZM7.67,11.87c0-2.38,1.92-4.31,4.29-4.31h33.88c2.38,0,4.31,1.93,4.31,4.31l.02,13.72-42.5-.26v-13.46Z"/>
      <path class="cls-1" d="M13.5,39.58v126.28l71.11,1.83c3.6.09,6.93,1.75,9.18,4.55,2.23,2.8,3.12,6.42,2.44,9.94-4.82,24.74-13.75,63.47-25.54,84.82h-15.96c8.59-9.71,19.46-42.87,27.96-85.85L0,179.02V26.02h.1l57.63.25,66.4.29v13.51l-110.63-.49Z"/>
      <path class="cls-1" d="M80.29,60.35c-19.68,0-42.55,16.05-42.55,36.74s22.87,36.75,42.55,36.75,36.74-16.49,36.74-36.75-16.48-36.74-36.74-36.74ZM80.29,126.28c-15.85,0-34.99-13.02-34.99-29.19s19.14-29.18,34.99-29.18,29.18,13.09,29.18,29.18-13.09,29.19-29.18,29.19Z"/>
      <path class="cls-1" d="M80.06,87.55s5.88-.21,7.27,5.18c1.1,4.32.29,9.31-2.95,12.82-1.54,1.69-3.31,2.1-5.43,1.68-.86-.17-1.87-.17-2.7-.44-1.03-.32-2.06-1.56-2.89-2.21-3.39-2.86-4.34-8.51-2.59-12.68.78-1.56,2.55-2.7,3.87-3.85l5.43-.5Z"/>
    </g>
  </g>
</svg>