<svg width="1232" height="255" viewBox="0 0 1232 255" fill="none" xmlns="http://www.w3.org/2000/svg">
<path d="M867.149 175.332L869.895 251.53H860.7L857.994 175.772L867.149 175.332Z" fill="#5044C4"/>
<path d="M865.868 141.48L864.469 113.819L757.644 114.622L756.323 251.53H765.505L766.968 119.297L855.948 119.892L856.699 141.895L865.868 141.48Z" fill="#5044C4"/>
<path d="M792.946 201.892H863.239" stroke="#5044C4" stroke-width="9.66942" stroke-miterlimit="10"/>
<path d="M758.965 146.362C758.965 146.362 742 142.853 742 129.721C742 112.498 758.965 114.376 758.965 114.376V146.362Z" stroke="#5044C4" stroke-width="6.7703" stroke-miterlimit="10"/>
<path d="M800.793 147.8C801.622 147.8 802.451 147.826 803.306 147.903C814.145 148.745 822.524 154.741 822.019 161.307C821.552 167.354 813.705 171.783 803.992 171.783C803.163 171.783 802.334 171.758 801.48 171.68C790.641 170.838 782.262 164.842 782.767 158.276C783.233 152.229 791.081 147.8 800.793 147.8ZM800.793 142.659C788.05 142.659 778.325 149.056 777.639 157.875C776.9 167.419 787.196 175.733 801.078 176.795C802.05 176.873 803.021 176.912 803.979 176.912C816.722 176.912 826.46 170.514 827.134 161.695C827.522 156.735 824.881 151.84 819.908 148.266C815.621 145.197 809.871 143.241 803.707 142.762C802.736 142.685 801.765 142.646 800.806 142.646L800.793 142.659Z" fill="#5044C4"/>
<path d="M756.893 97.0874V115.878H862.41V97.0874H756.893ZM778.364 112.602H766.126V100.364H778.364V112.602ZM803.707 112.602H791.469V100.364H803.707V112.602ZM829.037 112.602H816.8V100.364H829.037V112.602ZM854.381 112.602H842.143V100.364H854.381V112.602Z" fill="#5044C4"/>
<path d="M855.968 51.4126L859.607 72.573L757.496 100.364L750.49 75.2796L855.968 51.4126ZM837.916 73.363L849.881 70.8118L847.33 58.8459L835.364 61.3971L837.916 73.363ZM812.818 79.2164L824.784 76.6652L822.233 64.6994L810.267 67.2505L812.818 79.2164ZM788.032 84.513L799.998 81.9618L797.447 69.996L785.481 72.5471L788.032 84.513ZM763.245 90.4182L775.211 87.8671L772.66 75.9012L760.694 78.4523L763.245 90.4182Z" fill="#5044C4"/>
<path d="M783.816 181.91L792.13 172.586" stroke="#5044C4" stroke-width="4.82618" stroke-miterlimit="10" stroke-linecap="square"/>
<path d="M807.605 174.024L809.988 183.736" stroke="#5044C4" stroke-width="4.82618" stroke-miterlimit="10" stroke-linecap="square"/>
<path d="M848.968 159.325C848.748 169.18 855.715 174.801 863.213 174.179C870.711 173.558 873.366 165.114 873.366 159.325C873.366 153.537 872.472 142.659 861.983 142.659C851.493 142.659 849.11 153.446 848.968 159.325Z" stroke="#5044C4" stroke-width="6.7703" stroke-miterlimit="10"/>
<path d="M861.568 100.012C861.568 100.012 874.479 100.725 874.984 113.843C875.502 127.415 863.225 130.367 863.225 130.367L861.555 100.012H861.568Z" stroke="#5044C4" stroke-width="6.7703" stroke-miterlimit="10"/>
<path d="M799.848 155.194C799.848 155.194 802.878 153.472 805.663 154.896C807.89 156.036 809.69 158.225 809.962 160.892C810.105 162.174 809.612 163.068 808.654 163.806C808.266 164.104 807.89 164.531 807.463 164.79C806.945 165.101 806.038 165.075 805.455 165.179C802.995 165.554 800.25 163.845 799.149 161.553C798.773 160.646 798.967 159.481 798.967 158.497" fill="#5044C4"/>
<path d="M861.788 150.791C861.788 150.791 864.871 150.675 865.596 153.498C866.178 155.751 865.751 158.354 864.055 160.193C863.252 161.087 862.319 161.281 861.219 161.074C860.765 160.983 860.234 160.983 859.807 160.854C859.276 160.685 858.732 160.038 858.292 159.701C856.518 158.212 856.026 155.246 856.932 153.071C857.334 152.255 858.266 151.659 858.952 151.063" fill="#5044C4"/>
<path d="M57.2169 146.682C57.2169 138.63 50.6675 132.081 42.6159 132.081C34.5643 132.081 25.9065 138.327 25.9065 146.682C25.9065 151.044 28.3048 154.826 31.7179 157.448L27.3297 161.836L29.9652 164.472L34.986 159.464C36.4092 160.15 37.9114 160.664 39.4269 160.967V166.831H43.1562V161.283C45.2383 161.204 47.2149 160.69 48.9808 159.82L53.4085 164.248L56.044 161.612L52.1566 157.725C55.2534 155.05 57.2169 151.083 57.2169 146.682ZM42.6159 156.065C37.4502 156.065 31.1249 151.729 31.1249 146.682C31.1249 141.635 37.4502 137.313 42.6159 137.313C47.7816 137.313 51.9985 141.516 51.9985 146.682C51.9985 151.848 47.7816 156.065 42.6159 156.065Z" fill="#F4155B"/>
<path d="M121.67 145.561L63.8595 149.409L64.492 158.739L106.595 155.919L89.3848 193.146L32.6281 193.159H32.615L10.9375 156.656L64.6369 70.8561V131.105H72.1087V73.4125L103.551 133.938L111.853 129.629L68.7616 46.6749L38.1101 95.6434C33.8669 88.7778 28.1345 76.7202 30.5329 64.7679C33.7483 48.7042 43.1045 39.9674 59.1023 38.0961C59.3263 38.0698 59.5635 38.0434 59.8007 38.0171V44.7377H80.9378V23.6006H59.8007V30.5189C59.5635 30.5189 59.3263 30.5453 59.1023 30.5848C39.2302 32.5878 27.1594 43.5913 23.206 63.292C19.8852 79.8301 28.9647 95.7093 33.7351 102.641L0 156.525L25.1168 198.825L8.40741 230.399H18.976L33.7219 202.502L89.7011 202.489H89.7142L106.213 230.399H117.071L97.6341 197.56L121.657 145.561H121.67ZM64.3339 28.1337H76.3915V40.2046H64.3339V28.1337Z" fill="#F4155B"/>
<path d="M38.0579 145.89C38.0579 145.89 38.4796 143.795 40.6802 143.281C42.4461 142.86 44.4095 143.215 45.6878 144.507C46.3071 145.126 46.3862 145.825 46.149 146.655C46.0568 146.997 46.0041 147.393 45.8723 147.722C45.701 148.131 45.1739 148.526 44.8708 148.842C43.5925 150.16 41.2996 150.503 39.7051 149.804C39.1121 149.488 38.7299 148.79 38.3214 148.262L38.0579 145.89Z" fill="#F4155B"/>
<path d="M216.59 145.824C216.59 150.574 213.608 154.294 209.791 154.294C205.974 154.294 202.979 150.574 202.979 145.824C202.979 141.073 205.974 137.367 209.791 137.367C213.608 137.367 216.59 141.073 216.59 145.824Z" fill="#018C8C"/>
<path d="M281.242 147.453C281.242 151.841 277.675 155.408 273.287 155.408C268.898 155.408 265.332 151.841 265.332 147.453C265.332 143.064 268.898 139.512 273.287 139.512C277.675 139.512 281.242 143.064 281.242 147.453Z" fill="#018C8C"/>
<path d="M307.646 142.898C305.584 139.513 300.763 133.341 291.597 129.9L292.028 94.0683C292.07 90.5436 290.51 87.2558 287.751 85.0546L242.377 49H235.313L183.419 75.5812C179.56 77.5595 177.066 81.4742 176.899 85.8208L171.981 221.36L160 222.168L160.529 230.053L171.688 229.287L170.978 249H180.855L181.594 228.618L197.949 227.504L265.851 233.007L266.116 229.775L266.311 229.816L270.922 206.091L211.17 203.806V220.649L199.941 219.744V204.893C204.497 204.238 207.98 200.31 207.98 195.573C207.98 190.363 203.759 186.127 198.548 186.127C193.338 186.127 189.117 190.363 189.117 195.573C189.117 199.906 192.028 203.556 195.999 204.656V219.73L181.886 220.691L185.55 119.605C185.982 119.619 186.456 119.619 186.93 119.619C195.135 119.619 209.108 118.016 220.658 108.599C228.543 102.162 234.227 93.8036 237.417 84.2466C239.98 91.6442 245.093 99.0975 254.678 104.851C266.032 111.692 276.23 114.436 281.886 115.523L281.747 127.657C278.821 127.351 275.603 127.323 272.079 127.643C251.906 129.468 246.333 139.234 244.815 144.904C244.62 145.656 244.522 146.437 244.522 147.189C244.522 148.875 244.996 150.519 245.874 151.926L238.267 156.356L240.245 159.755L248.729 154.823C250.917 156.328 253.062 157.638 255.152 158.752L251.627 167.292L255.277 168.797L258.704 160.493C261.142 161.58 263.511 162.416 265.795 163.029L266.715 172.851L270.644 172.488L269.85 163.935C272.204 164.352 274.475 164.534 276.648 164.534C278.25 164.534 279.811 164.436 281.301 164.241L280.298 248.986H290.176L291.22 161.678C298.827 158.641 304.177 153.89 306.698 151.313C308.913 149.056 309.303 145.587 307.646 142.898ZM219.069 212.012L261.421 213.642L259.303 224.536L219.069 221.29V212.012ZM194.634 195.573C194.634 193.413 196.389 191.672 198.548 191.672C200.708 191.672 202.463 193.413 202.463 195.573C202.463 197.732 200.708 199.474 198.548 199.474C196.389 199.474 194.634 197.732 194.634 195.573ZM215.67 102.469C205.514 110.744 192.627 111.803 185.843 111.678L186.762 86.1831C186.79 85.4168 187.236 84.7342 187.905 84.3859L232.43 61.5662C233.405 78.1725 227.442 92.8841 215.67 102.469ZM258.746 98.0805C241.68 87.827 242.014 71.1092 243.547 62.5553L281.594 92.8005C281.956 93.0791 282.151 93.511 282.151 93.9568L281.984 107.47C276.787 106.328 268.192 103.751 258.746 98.0805ZM302.742 147.44C296.041 154.294 277.637 168.267 251.502 150.003C250.332 149.195 249.788 147.704 250.164 146.325C252.143 138.955 260.098 134.274 272.58 133.16C291.248 131.46 299.607 140.335 302.937 145.782C303.257 146.311 303.188 146.994 302.742 147.44Z" fill="#018C8C"/>
<path d="M209.22 167.809C197.434 167.809 193.004 162.459 191.653 147.845C190.817 138.72 190.524 132.939 193.701 129.553C196.891 126.154 202.45 126.307 210.864 126.53C223.695 126.864 231.636 130.445 231.511 147.149V149.893H231.399C230.494 163.337 223.528 166.764 213.428 167.614C211.923 167.739 210.516 167.809 209.206 167.809H209.22ZM205.542 131.963C201.391 131.963 198.744 132.242 197.727 133.329C196.167 135 196.557 140.907 197.156 147.33C198.451 161.331 201.683 163.058 212.968 162.097C220.756 161.428 225.868 160.035 225.966 147.093V145.839C225.813 135.237 222.469 132.367 210.711 132.047C208.788 131.991 207.061 131.963 205.542 131.963Z" fill="#018C8C"/>
<path d="M463.302 160.42C461.733 160.42 460.15 160.263 458.595 159.907C447.168 157.253 445.356 143.059 445.285 142.46L453.317 141.49C453.317 141.576 454.543 150.649 460.421 152.018C466.298 153.373 474.215 149.878 476.754 148.423L480.791 155.427C480.378 155.67 472.047 160.42 463.288 160.42H463.302Z" fill="#E1E211"/>
<path d="M436.287 175.188L428.117 190.749L431.692 192.626L439.861 177.065L436.287 175.188Z" fill="#E1E211"/>
<path d="M448.386 176.61L441.625 191.196L445.288 192.894L452.049 178.308L448.386 176.61Z" fill="#E1E211"/>
<path d="M460.74 176.875L454.518 195.387L458.344 196.673L464.567 178.162L460.74 176.875Z" fill="#E1E211"/>
<path d="M564.943 118.708L564.772 114.685L547.083 115.441L558.938 97.9375L555.6 95.6836L543.745 113.187V96.4682H539.708V112.032C533.032 104.614 522.518 96.1258 509.68 96.6964C492.005 97.4525 483.218 115.227 480.265 122.816C479.266 125.341 479.651 128.18 481.306 130.391L483.275 133.002L483.375 132.902C491.006 141.618 501.192 146.026 513.703 146.026C533.046 146.026 542.69 132.274 545.956 126.34C547.126 124.171 546.998 121.575 545.628 119.535L564.943 118.708ZM509.936 102.345C519.737 101.918 528.324 108.408 534.116 114.4H491.035C495.115 108.451 501.277 102.731 509.936 102.345ZM540.978 123.629C538.21 128.665 530.022 140.377 513.703 140.377C501.919 140.377 492.547 135.869 485.857 126.982L485.685 126.753C485.357 126.183 485.3 125.498 485.543 124.885C486.056 123.572 486.77 121.889 487.697 120.049H509.737C509.394 120.334 509.081 120.648 508.781 120.976C505.971 124.072 508.524 127.666 508.524 127.666L511.063 130.862C512.319 131.204 513.76 131.86 515.058 131.703C518.382 131.076 521.534 128.166 521.934 124.856C522.005 124.072 522.347 122.902 522.133 122.131C521.962 121.504 521.548 120.876 521.292 120.263C521.263 120.191 521.235 120.12 521.192 120.049H538.995C539.808 121.09 540.464 122.003 540.935 122.688C541.135 122.973 541.135 123.33 540.978 123.629Z" fill="#E1E211"/>
<path d="M512.205 75.2139L389.238 74.6719V61.0628H388.767C387.583 57.5392 384.245 55 380.337 55H354.959C350.066 55 346.086 58.98 346.086 63.8873V74.4864H346V189.094L407.94 190.692C401.578 222.888 393.432 247.724 386.998 255H398.953C407.783 239.008 414.473 209.993 418.082 191.462C418.596 188.823 417.926 186.112 416.257 184.015C414.573 181.918 412.077 180.677 409.381 180.606L356.114 179.237V84.6433L502.433 85.2852L502.647 91.4764L512.747 91.1198L512.205 75.2139ZM351.735 63.8873C351.735 62.1041 353.19 60.6633 354.959 60.6633H380.337C382.12 60.6633 383.56 62.1041 383.56 63.8873L383.589 74.1583L351.735 73.9729V63.8873Z" fill="#E1E211"/>
<path d="M483.117 255H493.93L493.987 254.958C491.277 251.163 487.211 229.551 484.201 189.751L509.594 189.465L508.41 149.965L498.31 150.264L499.18 179.466L483.017 179.651C480.507 179.679 478.11 180.749 476.412 182.604C474.715 184.444 473.859 186.926 474.044 189.423C475.799 212.989 478.723 241.591 483.117 255Z" fill="#E1E211"/>
<path d="M406.143 155.256C391.407 155.256 374.26 143.231 374.26 127.738C374.26 112.246 391.392 100.221 406.143 100.221C420.893 100.221 433.66 112.574 433.66 127.738C433.66 142.903 421.307 155.256 406.143 155.256ZM406.143 105.87C394.274 105.87 379.923 115.627 379.923 127.738C379.923 139.85 394.26 149.607 406.143 149.607C418.026 149.607 428.011 139.793 428.011 127.738C428.011 115.684 418.197 105.87 406.143 105.87Z" fill="#E1E211"/>
<path d="M405.973 120.578C405.973 120.578 410.381 120.421 411.423 124.458C412.25 127.696 411.637 131.434 409.212 134.059C408.056 135.328 406.729 135.628 405.146 135.314C404.504 135.186 403.748 135.186 403.12 134.986C402.35 134.743 401.58 133.816 400.952 133.331C398.413 131.191 397.699 126.955 399.012 123.83C399.597 122.661 400.923 121.805 401.908 120.949L405.973 120.578Z" fill="#E1E211"/>
<path d="M695.258 148.364L695.695 132.714C695.765 130.007 694.68 127.37 692.692 125.481C677.902 111.452 661.42 53.1387 656.33 31.835L655.414 28H642.457L641.23 31.2146C640.962 31.9054 614.611 100.878 595.521 128.061C594.111 130.077 593.378 132.559 593.49 135.04L594.083 149.111L586.173 149.012L586.088 157.007L594.421 157.105L598.185 246H605.602H605.587L608.168 245.901L604.417 157.218L637.339 157.599L637.141 215.264L653.397 215.687L653.595 207.707L645.149 207.481L645.347 149.703L604.079 149.224L603.529 136.38C609.056 140.37 615.09 142.428 620.97 142.428C623.366 142.428 625.735 142.09 628.033 141.385C632.714 139.961 636.648 137.141 639.482 133.306C640.215 134.448 641.131 135.534 642.245 136.549C647.335 141.202 654.934 142.879 660.701 140.652C662.872 139.82 666.101 137.902 668.286 133.602C669.597 135.083 671.233 136.394 673.08 137.367C677.225 139.538 681.68 139.665 685.557 137.818L685.332 145.854C683.823 145.699 682.244 145.6 680.595 145.558C670.725 145.276 664.211 145.107 660.306 149.266C656.429 153.397 656.753 160.179 657.74 170.866C659.333 188.166 664.578 194.51 678.592 194.51C680.143 194.51 681.807 194.426 683.584 194.285C683.725 194.27 683.851 194.256 683.992 194.242L682.54 246H692.536L694.045 191.958C700.361 189.153 704.958 183.16 705.056 170.006C705.155 157.754 701.588 151.466 695.258 148.364ZM675.688 132.404C672.403 130.684 670.5 127.652 670.5 125.664C670.5 125.566 670.5 125.481 670.514 125.382L664.93 124.847C664.409 130.402 662.252 134.053 658.699 135.435C654.878 136.901 649.548 135.632 646.024 132.418C644.853 131.36 643.119 129.344 643.119 126.863C643.119 126.383 643.19 125.876 643.331 125.368L637.945 123.846C636.239 129.88 632.023 134.321 626.398 136.041C619.799 138.057 612.284 136.196 605.616 130.966C616.486 114.456 628.851 87.3994 637.846 66.1662C645.037 67.703 650.606 67.3505 655.357 66.0111C662.548 89.6694 673.39 119.785 684.782 131.727C681.201 134.575 677.563 133.377 675.688 132.404ZM697.062 169.95C696.949 184.105 691.634 185.571 682.907 186.319C670.471 187.362 667.144 185.91 665.692 170.133C665.227 165.043 664.437 156.541 666.129 154.737C667.116 153.679 670.443 153.425 674.447 153.425C676.337 153.425 678.367 153.482 680.369 153.538C693.834 153.919 697.062 156.88 697.062 169.371V169.95Z" fill="#6BAFFF"/>
<path d="M677.691 164.493C677.691 164.493 680.99 162.618 684.022 164.169C686.447 165.41 688.406 167.793 688.703 170.697C688.858 172.093 688.322 173.066 687.279 173.869C686.856 174.194 686.447 174.659 685.981 174.941C685.417 175.279 684.431 175.251 683.796 175.364C681.117 175.773 678.128 173.912 676.93 171.416C676.521 170.429 676.732 169.16 676.732 168.089L677.691 164.493Z" fill="#6BAFFF"/>
<path d="M973.899 136.502L973.835 136.887C973.822 136.772 973.822 136.656 973.822 136.541V136.489H973.899V136.502Z" fill="#FDC103"/>
<path d="M1095.29 71.0894V61.1523L1041.2 35L933.046 52.4092L929.554 62.924L934.728 64.4646L926.191 94.7894C925.035 94.6996 923.841 94.8536 922.66 95.2645C918.757 96.6125 916.125 100.323 915.971 104.727L916.074 105.561C917.576 110.478 917.948 113.919 915.162 115.806L914.302 116.821C913.699 118.079 914.02 119.504 915.085 120.364C915.727 120.878 916.793 121.083 918.102 121.083C922.673 121.083 930.145 118.438 932.315 117C937.925 114.047 941.16 106.652 939.235 101.08C938.053 97.6139 935.178 95.6753 931.262 95.5726L939.607 65.9154L974.708 76.366V95.8165C964.963 98.2045 956.528 103.096 950.764 109.823C945.269 116.256 942.727 123.741 943.394 131.495L943.458 132.317H943.433L967.518 182.914C968.07 184.069 968.237 185.404 967.993 186.663L958.493 234.987H967.762L976.916 188.421C977.532 185.263 977.121 181.925 975.735 179.011L956.028 137.619L969.059 139.481C971.241 147.132 981.679 152.55 991.115 152.55C1000.55 152.55 1007.97 147.325 1010.05 140.328L1023.73 140.983C1025.3 144.167 1029.67 150.394 1039.81 151.934L1034.93 174.376C1034.07 178.292 1034.42 182.336 1035.92 186.098L1055.94 235H1065.77L1044.37 182.683C1043.56 180.654 1043.37 178.446 1043.84 176.302L1049.13 152.037C1051.92 151.729 1054.31 151.138 1056.36 150.368L1059.33 155.786L1062.51 154.04L1059.65 148.814C1062.64 147.068 1064.64 144.873 1065.96 142.703L1070.12 147.877L1072.95 145.592L1067.68 139.044C1068.13 137.747 1068.37 136.592 1068.49 135.68C1068.96 132.551 1068.28 131.627 1066.07 129.608C1062.13 126.437 1058.2 124.549 1054.42 123.574C1053.73 118.862 1051.84 114.407 1048.89 110.376L1055.64 80.1406L1095.29 71.0894ZM934.42 102.737C935.409 105.625 933.586 110.645 929.837 112.545L929.413 112.815C928.36 113.649 924.701 114.792 921.671 115.485C923.096 111.634 921.902 107.23 921.081 104.521C921.325 102.146 922.84 100.593 924.316 100.092C925.921 99.5397 927.513 100.066 928.797 101.607L929.85 100.721C932.315 100.413 933.855 101.093 934.42 102.737ZM991.115 147.376C982.745 147.376 974.233 142.164 973.835 136.913V136.887C973.822 136.772 973.822 136.656 973.822 136.541V136.489C973.873 131.136 982.578 125.718 991.115 125.718C999.011 125.718 1005.44 130.571 1005.44 136.541C1005.44 142.511 999.011 147.376 991.115 147.376ZM1024.24 132.381L1023.62 132.971L1022.97 137.311L1010.6 136.72V136.541C1010.6 127.72 1001.86 120.531 991.115 120.531C980.37 120.531 969.315 127.002 968.674 135.757L954.153 133.678L952.368 129.942C952.15 124.947 953.96 120.056 957.645 115.742C963.654 108.707 973.616 104.2 984.966 103.391L1005.92 101.902C1017.87 101.055 1029.62 104.547 1037.35 111.274C1041.25 114.676 1043.83 118.605 1044.96 122.829C1033.08 123.959 1024.37 132.253 1024.24 132.381ZM1062.36 133.177L1062.87 133.588C1063.29 133.934 1063.53 134.448 1063.46 134.949C1062.88 138.993 1060.08 145.938 1047.82 147.043C1033.01 148.391 1028.81 140.212 1027.99 138.158L1028.4 135.475C1031.62 132.663 1046.62 121.07 1062.36 133.177ZM1048.02 72.5401L1041.26 102.737C1031.83 95.5598 1018.6 91.8879 1005.3 92.8251L984.349 94.3144C984.17 94.3273 983.99 94.3401 983.81 94.3529V69.5872L948.658 59.1238L1039.81 44.4492L1081.92 64.7984L1048.02 72.5401Z" fill="#FDC103"/>
<path d="M1043.12 132.124C1043.12 132.124 1046.18 132.175 1046.74 135.013C1047.19 137.285 1046.63 139.84 1044.86 141.56C1044.01 142.395 1043.08 142.549 1041.99 142.279C1041.56 142.177 1041.03 142.138 1040.61 141.984C1040.08 141.792 1039.58 141.124 1039.17 140.752C1037.49 139.172 1037.17 136.22 1038.18 134.114C1038.63 133.331 1039.58 132.792 1040.29 132.227L1043.12 132.124Z" fill="#FDC103"/>
<path d="M990.502 131.405C990.502 131.405 993.557 131.457 994.122 134.294C994.572 136.566 994.007 139.121 992.235 140.842C991.388 141.676 990.463 141.83 989.372 141.561C988.935 141.458 988.409 141.419 987.985 141.265C987.459 141.073 986.958 140.405 986.547 140.033C984.866 138.454 984.545 135.501 985.559 133.395C986.008 132.612 986.958 132.073 987.664 131.508L990.502 131.405Z" fill="#FDC103"/>
<path d="M1165.64 110.178C1154.04 102.726 1135.19 81.4726 1146.79 54.3239C1149.93 46.9778 1156.65 42.4131 1163.15 37.9948C1168.32 34.4815 1173.67 30.8483 1177.4 25.7779C1181.9 19.6695 1177.24 9.68835 1177.2 9.59519L1175.54 6.08183L1184.65 0L1187.03 1.29089C1188.95 2.32893 1234 27.122 1231.23 57.5046L1231.2 57.7042C1228.2 79.849 1208.89 90.2427 1197.35 96.4443C1194.99 97.7219 1192.94 98.8132 1191.67 99.6915C1185.52 103.91 1184.41 107.69 1184.4 107.716L1184.43 107.583L1175.64 105.707C1175.79 105.001 1177.39 98.5869 1186.58 92.2788C1188.27 91.121 1190.51 89.91 1193.1 88.5259C1203.76 82.7901 1219.87 74.1265 1222.3 56.5863C1223.98 37.1431 1198.29 18.8178 1187.46 11.9907C1188.71 17.2474 1189.27 24.8597 1184.67 31.1145C1180.02 37.4093 1173.75 41.6679 1168.23 45.4341C1162.31 49.4532 1157.18 52.9399 1155.08 57.8639C1143.6 84.7597 1169.43 101.914 1170.53 102.633L1165.68 110.178H1165.64Z" fill="#AF1374"/>
<path d="M1180.79 70.4138C1180.36 70.4138 1179.9 70.3605 1179.41 70.2407C1174.09 68.9898 1173.53 63.1741 1173.12 58.9288C1172.96 57.3052 1172.7 54.6037 1172.16 54.0713C1171.4 53.885 1171.17 53.8185 1169.62 56.2805C1168.43 58.1569 1166.79 60.7387 1163.57 61.1779C1160.33 61.6171 1156.56 59.714 1151.36 54.9896L1155.06 50.904C1160.27 55.6284 1162.32 55.7881 1162.83 55.7082C1163.47 55.6284 1164.08 54.7101 1164.96 53.3261C1166.37 51.0903 1168.74 47.364 1173.79 48.8279C1177.79 49.9857 1178.21 54.4573 1178.6 58.3965C1178.93 61.8034 1179.28 64.4384 1180.58 64.8509C1181.95 63.9859 1183.72 57.8642 1184.68 54.5504C1186.77 47.2842 1188.75 40.4171 1193.68 39.459C1198.16 38.5806 1199.4 43.5845 1200.6 48.4154C1201.86 53.539 1203.44 59.9136 1207.77 61.657C1211.26 63.0676 1216.57 61.5904 1223.55 57.2387L1226.47 61.9098C1217.79 67.3263 1210.99 68.9099 1205.71 66.7673C1198.79 63.9593 1196.75 55.7348 1195.26 49.7462C1194.9 48.3089 1194.45 46.4857 1194.04 45.3944C1192.56 47.191 1190.87 53.0466 1189.99 56.0809C1187.95 63.1342 1185.86 70.4138 1180.79 70.4138Z" fill="#AF1374"/>
<path d="M1186.73 121.93L1181.23 118.337C1182.22 116.833 1183.05 114.384 1182.58 112.574C1182.4 111.935 1182 111.004 1180.43 110.205C1174.79 107.331 1169.85 108.009 1167.46 109.966C1165.78 111.336 1165.25 113.373 1165.94 115.835L1159.61 117.591C1158.21 112.561 1159.57 107.93 1163.31 104.882C1168.24 100.85 1176.15 100.637 1183.41 104.363C1186.26 105.814 1188.17 108.076 1188.91 110.897C1189.99 114.916 1188.48 119.228 1186.73 121.93Z" fill="#AF1374"/>
<path d="M1133.44 176.308L1138.79 226H1129.3L1123.95 176.361L1133.44 176.308Z" fill="#AF1374"/>
<path d="M1194.63 153.178L1194.46 149.372C1194.1 141.666 1190.71 134.506 1185.17 129.729C1180.26 125.51 1174.15 123.54 1167.94 124.179L1153.01 125.723C1140.9 126.974 1131.78 137.567 1131.03 150.516L1121.59 150.596C1122.32 132.776 1135.08 118.071 1152.05 116.327L1166.98 114.784C1175.78 113.879 1184.43 116.647 1191.32 122.569C1198.81 129.023 1203.4 138.619 1203.88 148.919L1204.36 158.954L1194.65 153.164L1194.63 153.178Z" fill="#AF1374"/>
<path d="M1195.5 171.595L1198.07 225.999H1207.52L1204.63 158.753L1195.5 171.595Z" fill="#AF1374"/>
<path d="M1202.02 153.523C1179.19 137.181 1159.07 158.54 1158.87 158.753L1158.27 159.405L1157.73 165.234L1157.9 165.78C1157.95 165.913 1162.37 178.263 1179.19 178.25C1180.95 178.25 1182.85 178.116 1184.89 177.824C1201.74 175.362 1204.48 164.289 1204.88 159.645C1205.09 157.276 1203.99 154.934 1202.02 153.523ZM1163.09 164.516L1163.36 161.721C1165.58 159.565 1173.51 152.631 1183.88 152.631C1188.51 152.631 1193.63 154.015 1198.94 157.821C1199.41 158.154 1199.66 158.673 1199.62 159.192C1199.26 163.411 1196.76 170.744 1184.13 172.594C1168.88 174.829 1164.06 166.592 1163.09 164.516Z" fill="#AF1374"/>
<path d="M1178.12 157.555C1178.12 157.555 1181.28 157.435 1182.03 160.337C1182.63 162.652 1182.19 165.327 1180.45 167.217C1179.62 168.135 1178.66 168.335 1177.53 168.122C1177.07 168.029 1176.52 168.029 1176.08 167.896C1175.54 167.723 1174.98 167.057 1174.52 166.711C1172.7 165.181 1172.2 162.133 1173.13 159.897C1173.54 159.059 1174.5 158.447 1175.2 157.835" fill="#AF1374"/>
<path d="M1131.09 178.369C1124.05 178.369 1117.02 176.067 1115.98 164.689C1115.11 155.093 1118.17 150.875 1120.88 149.012C1123.24 147.401 1127.43 146.15 1133.95 149.411C1135.72 150.289 1137.3 150.915 1138.71 151.46C1144.13 153.563 1147.44 155.28 1147.38 163.73C1147.28 175.508 1141.19 177.651 1134.62 178.21C1133.46 178.303 1132.29 178.369 1131.1 178.369H1131.09ZM1126.4 152.671C1125.49 152.671 1124.61 152.871 1123.86 153.377C1121.71 154.854 1120.75 158.806 1121.24 164.21C1121.91 171.502 1125.17 173.712 1134.15 172.953C1139.5 172.501 1142.03 171.436 1142.08 163.704C1142.12 158.474 1141.31 158.154 1136.78 156.398C1135.35 155.839 1133.56 155.147 1131.58 154.149C1130.29 153.51 1128.27 152.685 1126.39 152.685L1126.4 152.671Z" fill="#AF1374"/>
<path d="M1127.96 159.711C1127.96 159.711 1130.62 158.207 1133.07 159.444C1135.03 160.443 1136.61 162.372 1136.85 164.714C1136.97 165.846 1136.55 166.618 1135.71 167.27C1135.36 167.536 1135.03 167.908 1134.66 168.135C1134.2 168.414 1133.4 168.388 1132.89 168.481C1130.72 168.8 1128.31 167.31 1127.34 165.3C1127.02 164.502 1127.18 163.477 1127.18 162.612" fill="#AF1374"/>
<path d="M1173.95 135.597H1170.19V150.528H1173.95V135.597Z" fill="#AF1374"/>
<path d="M1178.47 136.657L1176.55 148.668L1180.26 149.263L1182.19 137.252L1178.47 136.657Z" fill="#AF1374"/>
<path d="M1187.3 140.488L1183.04 150.809L1186.53 152.251L1190.79 141.93L1187.3 140.488Z" fill="#AF1374"/>
<path d="M1115.37 140.657L1112.41 142.991L1120.06 152.674L1123.01 150.34L1115.37 140.657Z" fill="#AF1374"/>
<path d="M1107.46 154.005L1107 157.743L1120.12 159.365L1120.58 155.627L1107.46 154.005Z" fill="#AF1374"/>
</svg>
