<svg width="484" height="336" viewBox="0 0 484 336" fill="none" xmlns="http://www.w3.org/2000/svg">
<path d="M215.964 243.757C215.964 251.004 210.088 256.895 202.825 256.895C195.563 256.895 187.377 251.019 187.377 243.757C187.377 236.494 195.578 230.618 202.825 230.618C210.073 230.618 215.964 236.494 215.964 243.757Z" stroke="white" stroke-width="5.73183" stroke-miterlimit="10"/>
<path d="M231.051 226.691V147.6" stroke="white" stroke-width="8.18627" stroke-miterlimit="10"/>
<path d="M199.159 196.819C199.159 196.819 181.155 175.22 185.573 153.202C190.799 127.113 209.092 121.554 222.808 120.486" stroke="white" stroke-width="8.18627" stroke-miterlimit="10"/>
<path d="M242.703 111H223.746V129.957H242.703V111Z" stroke="white" stroke-width="5.73183" stroke-miterlimit="10"/>
<path d="M242.703 111H223.746V129.957H242.703V111Z" stroke="white" stroke-width="4.20142" stroke-miterlimit="10" stroke-linecap="square"/>
<path d="M201.367 263.781V256.562" stroke="white" stroke-width="4.08592" stroke-miterlimit="10" stroke-linecap="square"/>
<path d="M194.726 254.613L188.965 260.36" stroke="white" stroke-width="4.08592" stroke-miterlimit="10" stroke-linecap="square"/>
<path d="M211.098 256.562L214.649 260.114" stroke="white" stroke-width="4.08592" stroke-miterlimit="10" stroke-linecap="square"/>
<path d="M226.446 251.856L281.18 248.203L257.343 299.79H188.965L162.125 254.614L231.051 144.496L274.134 227.427" stroke="white" stroke-width="10.2365" stroke-miterlimit="10"/>
<path d="M197.83 242.89C197.83 242.89 198.292 240.594 200.703 240.031C202.638 239.569 204.789 239.959 206.19 241.374C206.868 242.053 206.955 242.818 206.695 243.727C206.594 244.103 206.536 244.536 206.392 244.897C206.204 245.344 205.627 245.778 205.294 246.124C203.894 247.568 201.382 247.943 199.635 247.178C198.985 246.832 198.566 246.066 198.119 245.489" fill="white"/>
<path d="M176.923 335.48L193.093 304.901H254.425L272.516 335.48H284.413L260.258 294.664H186.943L165.344 335.48H176.923Z" fill="white"/>
<path d="M1 226.815L64.956 227.55L64.7274 294.413L79.0342 294.789" stroke="white" stroke-width="9.26023" stroke-miterlimit="10"/>
<path d="M20.3691 202.84C37.8607 217.653 59.0269 211.954 64.1388 193.907C59.9742 208.606 92.8994 221.9 95.5126 194.495C94.7776 202.203 107.778 212.738 117.642 204.425" stroke="white" stroke-width="6.4838" stroke-linejoin="bevel"/>
<path d="M59.9258 125.998C68.99 128.089 75.8821 127.615 81.7126 125.884L72.5994 95.4736L59.9421 125.998H59.9258Z" fill="white"/>
<path d="M23.5377 334.541L26.5264 334.411L21.0716 205.519C21.0716 205.176 21.1369 204.849 21.3329 204.588C40.6046 177.15 64.9066 117.228 72.9583 96.7641C78.7888 119.319 96.9499 184.614 116.336 203.2L112.678 334.525H124.257L127.915 203.298C127.997 200.162 126.739 197.108 124.437 194.919C107.304 178.669 88.2123 111.12 82.3165 86.4423L81.2549 82H66.2458L64.8249 85.7237C64.5146 86.524 33.9901 166.42 11.8766 197.908C10.2435 200.244 9.39419 203.118 9.52484 205.992L14.9634 334.525H23.554L23.5377 334.541Z" fill="white"/>
<path d="M134.122 246.463C133.976 265.375 125.908 268.952 113.495 269.997C95.8567 271.484 90.4018 267.09 88.5563 247.067C86.3188 222.798 88.2786 222.194 110.294 222.798C127.704 223.272 134.269 228.155 134.122 246.463Z" stroke="white" stroke-width="9.26023" stroke-miterlimit="10"/>
<path d="M107.061 240.11C107.061 240.11 110.882 237.937 114.394 239.734C117.203 241.171 119.473 243.931 119.816 247.296C119.996 248.913 119.375 250.039 118.166 250.97C117.676 251.346 117.203 251.885 116.664 252.212C116.011 252.604 114.867 252.571 114.132 252.702C111.029 253.175 107.567 251.019 106.179 248.129C105.705 246.985 105.95 245.515 105.95 244.274" fill="white"/>
<path d="M483.032 85.1739L482.993 85.4696C478.537 118.277 449.929 133.676 432.835 142.863C429.345 144.756 426.328 146.373 424.416 147.694C419.428 151.105 416.687 154.338 415.228 156.546C414.163 158.143 413.769 159.208 413.67 159.504V159.386L408.761 158.341C408.761 158.341 408.761 158.321 408.722 158.321L407.184 158.005L400.678 156.625C400.697 156.507 400.756 156.251 400.855 155.896C401.111 154.989 401.683 153.372 402.827 151.322C404.936 147.497 409.057 142.075 416.865 136.712C419.368 134.997 422.681 133.222 426.525 131.152C439.361 124.251 457.48 114.492 465.78 97.1416C467.397 93.7898 468.619 90.1423 469.369 86.1794C469.526 85.4104 469.645 84.6218 469.763 83.8331C472.247 55.0278 434.195 27.8787 418.146 17.7643C419.999 25.5522 420.827 36.8298 414.006 46.0964C407.125 55.4221 397.838 61.7313 389.636 67.2913C383.741 71.2937 378.398 74.9412 374.573 79.1013C372.681 81.132 371.182 83.3008 370.157 85.7062C370.157 85.7653 370.098 85.8442 370.078 85.9033C354.798 122.043 384.944 146.274 391.766 151.164C392.456 151.657 392.89 151.953 393.047 152.051L390.11 156.625L389.459 157.631L385.851 163.23C385.023 162.698 384.155 162.106 383.268 161.475C382.006 160.568 380.725 159.563 379.404 158.479C362.704 144.638 342.771 115.951 357.933 80.4814C362.586 69.5981 372.543 62.8354 382.164 56.2897C389.834 51.0846 397.76 45.7021 403.28 38.1902C409.944 29.1602 403.043 14.3534 402.984 14.2154L400.52 9.01029L414.006 0L417.535 1.91247C420.374 3.45033 487.113 40.1618 483.012 85.1739H483.032Z" fill="white"/>
<path d="M475.973 91.7397C475.539 92.0157 475.105 92.272 474.691 92.5283C471.557 94.4211 468.599 95.9589 465.799 97.1419C457.637 100.651 450.855 101.223 445.216 98.9361C434.963 94.7562 431.947 82.5914 429.739 73.6994C429.206 71.57 428.536 68.8689 427.925 67.2522C425.736 69.9139 423.232 78.589 421.931 83.104C418.914 93.5536 415.819 104.319 408.327 104.319C407.676 104.319 406.986 104.24 406.276 104.082C398.39 102.229 397.562 93.6127 396.951 87.3233C396.714 84.9179 396.339 80.8958 395.531 80.1268C394.427 79.8311 394.092 79.7325 391.785 83.3997C390.011 86.1797 387.605 89.9849 382.834 90.6356C379.226 91.1482 375.164 89.6695 370.097 85.9037C368.441 84.701 366.686 83.242 364.794 81.5464C364.774 81.5267 364.754 81.507 364.734 81.4873L364.971 81.231L370.215 75.4344C371.891 76.9525 373.331 78.1355 374.592 79.1016C379.147 82.5125 381.138 82.6308 381.73 82.5519C382.676 82.4336 383.583 81.0732 384.884 79.0227C386.974 75.7301 390.464 70.1899 397.976 72.3587C403.871 74.074 404.522 80.6986 405.074 86.5346C405.567 91.5819 406.099 95.5055 408.031 96.0969C410.062 94.8154 412.664 85.746 414.084 80.8366C417.199 70.0716 420.117 59.8981 427.412 58.4588C434.056 57.1772 435.89 64.5708 437.664 71.7475C439.538 79.3185 441.884 88.7625 448.292 91.3651C453.063 93.2973 460.161 91.5622 469.388 86.1797C470.117 85.7657 470.886 85.2925 471.655 84.8193L475.244 90.5567L475.973 91.7397Z" fill="white"/>
<path d="M418.739 177.703C418.246 178.767 417.694 179.773 417.122 180.64L413.06 177.979L408.999 175.317C409.413 174.706 409.788 173.976 410.123 173.188C410.99 171.137 411.503 168.712 410.99 166.8C410.734 165.853 410.123 164.473 407.816 163.29C399.456 159.012 392.142 160.037 388.593 162.935C386.404 164.71 385.537 167.214 386.03 170.27C386.108 170.703 386.207 171.157 386.325 171.63L381.653 172.931L376.96 174.233C376.684 173.227 376.467 172.221 376.329 171.255C375.698 166.464 376.783 162.048 379.444 158.479C380.292 157.355 381.298 156.311 382.441 155.384C383.112 154.832 383.821 154.339 384.551 153.925C386.72 152.564 389.164 151.658 391.806 151.165C395.257 150.494 399.023 150.553 402.867 151.322C405.036 151.756 407.224 152.407 409.393 153.314C410.34 153.708 411.286 154.142 412.232 154.615C413.336 155.167 414.342 155.818 415.249 156.547C417.812 158.578 419.567 161.22 420.375 164.296C421.617 168.949 420.533 173.878 418.758 177.703H418.739Z" fill="white"/>
<path d="M338.473 264.118L346.104 334.82H332.046L324.278 262.62L323.785 258.065L323.193 252.564C325.855 255.719 330.37 256.764 337.645 256.33L338.059 260.214L338.473 264.118Z" fill="white"/>
<path d="M447.917 334.82H433.918L430.291 258.124L429.837 248.641L429.522 241.858L429.147 233.637L428.989 230.462L428.575 221.669V221.294C428.023 209.879 422.996 199.271 414.794 192.193C407.518 185.943 398.469 183.025 389.261 183.972L367.14 186.259C350.263 187.994 337.27 202.012 334.904 219.658C334.726 220.979 334.608 222.339 334.549 223.7C334.49 225.099 334.509 226.519 334.588 227.939C332.715 227.091 330.152 226.184 327.747 226.184C326.386 226.184 325.085 226.46 323.981 227.229C322.66 228.136 321.635 229.654 320.945 231.704L320.649 229.023C320.57 227.663 320.531 226.322 320.57 224.981C320.55 224.804 320.55 224.607 320.57 224.429C320.59 223.01 320.669 221.629 320.787 220.249C320.807 220.17 320.807 220.092 320.807 220.013C323.192 195.032 341.568 174.843 365.72 172.359L376.308 171.255L381.178 170.762L386.008 170.269L387.842 170.072C395.492 169.283 403.082 170.367 410.101 173.187C411.6 173.778 413.078 174.468 414.518 175.218C415.957 175.967 417.357 176.795 418.737 177.702C420.511 178.885 422.246 180.186 423.903 181.606C435.003 191.168 441.805 205.383 442.515 220.644L443.086 232.73L443.362 238.506L447.917 334.82Z" fill="white"/>
<path d="M443.086 232.729C442.435 230.718 441.134 228.924 439.34 227.643C435.693 225.04 432.084 223.068 428.575 221.669C425.48 220.407 422.424 219.579 419.466 219.105C417.495 218.751 415.543 218.593 413.65 218.553C411.698 218.494 409.766 218.593 407.912 218.829C405.901 219.046 403.949 219.421 402.076 219.894C400.736 220.229 399.434 220.604 398.192 221.038C396.457 221.629 394.821 222.299 393.263 223.009C382.439 227.938 375.558 235.233 375.42 235.391L374.533 236.357L373.725 244.993L373.981 245.801C374.06 245.998 380.606 264.295 405.527 264.275C408.129 264.275 410.949 264.078 413.965 263.644C420.905 262.639 426.229 260.628 430.29 258.124C439.754 252.327 442.554 243.81 443.362 238.506C443.461 237.856 443.54 237.244 443.579 236.712C443.697 235.352 443.54 233.991 443.086 232.729ZM429.837 248.64C426.406 251.913 421.083 254.693 412.841 255.896C394.762 258.538 386.58 251.263 383.287 246.669C382.479 245.525 381.946 244.539 381.67 243.928L382.065 239.788C382.38 239.472 382.774 239.098 383.248 238.684C387.664 234.701 398.587 226.322 412.467 226.322C417.633 226.322 423.212 227.485 428.989 230.462C430.073 231.014 431.178 231.645 432.282 232.335C433.11 232.848 433.938 233.419 434.786 234.011C435.476 234.504 435.85 235.273 435.791 236.042C435.712 237.106 435.515 238.329 435.18 239.61C434.411 242.509 432.853 245.762 429.837 248.64Z" fill="white"/>
<path d="M404.364 233.42C404.364 233.42 409.056 233.243 410.16 237.541C411.047 240.971 410.397 244.934 407.814 247.734C406.592 249.094 405.172 249.39 403.496 249.075C402.806 248.937 401.998 248.937 401.347 248.739C400.539 248.483 399.711 247.497 399.04 246.985C396.339 244.717 395.59 240.202 396.97 236.89C397.581 235.648 399.001 234.741 400.046 233.834L404.364 233.44V233.42Z" fill="white"/>
<path d="M345.983 224.39C343.893 223.582 341.547 222.675 338.925 221.354C337.505 220.644 336.165 220.092 334.903 219.658C328.455 217.411 323.862 218.377 320.806 220.013C320.766 220.033 320.707 220.052 320.668 220.092C320.273 220.289 319.899 220.526 319.563 220.762C318.499 221.492 317.414 222.458 316.409 223.739C315.187 225.277 314.082 227.269 313.313 229.871C312.821 231.468 312.446 233.282 312.249 235.372C312.012 237.856 312.012 240.715 312.308 243.988C313.313 255.029 318.144 260.313 324.276 262.62C327.489 263.862 331.078 264.256 334.686 264.256C335.967 264.256 337.229 264.197 338.471 264.118C338.944 264.118 339.418 264.059 339.891 264.02C344.761 263.605 349.453 262.6 352.943 259.524C356.433 256.449 358.72 251.303 358.799 242.568C358.897 230.049 353.988 227.505 345.983 224.39ZM350.971 242.509C350.952 245.624 350.656 248.01 350.084 249.844C348.546 254.773 344.997 255.719 339.221 256.212C338.668 256.251 338.156 256.291 337.643 256.33C330.368 256.764 325.853 255.719 323.191 252.564C321.634 250.711 320.727 248.187 320.273 244.816C320.194 244.323 320.135 243.81 320.096 243.278C319.859 240.774 319.859 238.487 320.017 236.456C320.175 234.682 320.49 233.085 320.944 231.724C321.634 229.654 322.659 228.136 323.98 227.229C325.084 226.46 326.385 226.184 327.746 226.184C330.151 226.184 332.714 227.091 334.587 227.939C334.883 228.097 335.179 228.215 335.435 228.353C338.373 229.832 341.015 230.857 343.144 231.685C349.67 234.228 350.971 234.741 350.971 241.997V242.509Z" fill="white"/>
<path d="M343.223 244.046C343.42 245.702 342.769 246.866 341.527 247.832C341.015 248.226 340.522 248.778 339.97 249.113C339.93 249.133 339.891 249.153 339.851 249.173C339.181 249.527 338.077 249.488 337.367 249.626C337.229 249.646 337.071 249.665 336.914 249.646C335.021 249.823 333.03 249.054 331.472 247.792C330.486 247.004 329.678 245.998 329.145 244.914C328.653 243.731 328.909 242.213 328.889 240.931L329.343 239.255L330.052 236.613C330.052 236.613 332.556 235.194 335.395 235.549C336.125 235.647 336.874 235.844 337.623 236.219C339.832 237.343 341.685 239.236 342.631 241.602C342.927 242.37 343.144 243.199 343.223 244.046Z" fill="white"/>
<path d="M398.193 200.889H392.613V223.01H398.193V200.889Z" fill="white"/>
<path d="M404.878 202.459L402.031 220.253L407.541 221.135L410.388 203.341L404.878 202.459Z" fill="white"/>
<path d="M417.964 208.135L411.652 223.425L416.828 225.562L423.14 210.271L417.964 208.135Z" fill="white"/>
<path d="M311.401 208.385L307.021 211.842L318.347 226.188L322.726 222.73L311.401 208.385Z" fill="white"/>
<path d="M299.685 228.159L299 233.696L318.43 236.099L319.115 230.562L299.685 228.159Z" fill="white"/>
</svg>
