<svg width="278" height="374" viewBox="0 0 278 374" fill="none" xmlns="http://www.w3.org/2000/svg">
<path d="M238.441 67.2891C243.59 71.3973 246.502 77.5339 246.424 84.1123L245.618 150.988C262.727 157.411 271.723 168.93 275.571 175.248C278.665 180.266 277.938 186.74 273.804 190.952C269.097 195.762 259.113 204.63 244.916 210.298L242.966 373.249H224.53L226.402 215.082C223.62 215.446 220.708 215.628 217.718 215.628C213.662 215.628 209.423 215.29 205.029 214.51L206.512 230.475L199.179 231.151L197.463 212.82C193.199 211.676 188.779 210.116 184.229 208.088L177.832 223.585L171.02 220.776L177.598 204.837C173.698 202.757 169.693 200.313 165.611 197.505L149.776 206.71L146.084 200.365L160.281 192.097C158.643 189.471 157.759 186.402 157.759 183.256C157.759 181.852 157.941 180.396 158.305 178.992C161.139 168.41 171.539 150.183 209.189 146.776C215.768 146.178 221.774 146.23 227.234 146.802L227.495 124.154C216.938 122.126 197.905 117.004 176.714 104.237C158.825 93.4987 149.282 79.588 144.498 65.7812C138.544 83.6183 127.935 99.2187 113.218 111.231C91.6626 128.808 65.5835 131.799 50.2686 131.799C49.3845 131.799 48.5004 131.799 47.6943 131.773L40.8555 320.44L67.1953 318.646V290.513C59.7849 288.459 54.3507 281.646 54.3506 273.56C54.3506 263.835 62.2295 255.931 71.9541 255.931C81.6785 255.931 89.5566 263.835 89.5566 273.56C89.5566 282.4 83.0562 289.732 74.5537 290.954V318.672L95.5107 320.362V288.927L207.031 293.19L198.425 337.471L198.062 337.394L197.567 343.426L70.8359 333.155L40.3096 335.235L38.9316 373.275H20.4971L21.8223 336.483L0.995117 337.913L0.0078125 323.196L22.3691 321.688L31.5469 68.7197C31.8589 60.6073 36.5135 53.3006 43.7158 49.6084L140.571 -0.00292969H153.755L238.441 67.2891ZM110.254 321.559L185.347 327.616L189.299 307.283L110.254 304.241V321.559ZM71.9541 266.279C67.9239 266.279 64.6475 269.529 64.6475 273.56C64.6476 277.59 67.9239 280.84 71.9541 280.84C75.9841 280.84 79.2597 277.59 79.2598 273.56C79.2598 269.529 75.9841 266.28 71.9541 266.279ZM91.8711 221.738H91.8447C91.8491 221.738 91.854 221.737 91.8584 221.737C91.8626 221.737 91.8669 221.738 91.8711 221.738ZM62.9053 150.338C68.8596 143.994 79.2345 144.279 94.9395 144.695C118.513 145.31 133.242 151.795 133.474 181.734V188.3H133.266C131.576 213.391 118.575 219.788 99.7236 221.374C96.9205 221.608 94.2988 221.737 91.8584 221.737C69.8708 221.733 61.6047 211.749 59.083 184.479C57.5229 167.448 56.9769 156.656 62.9053 150.338ZM85.0068 154.836C77.2584 154.836 72.318 155.357 70.4199 157.385C67.5079 160.505 68.2355 171.529 69.3535 183.516C71.7716 209.647 77.8042 212.871 98.8652 211.077C113.4 209.829 122.943 207.229 123.125 183.074V180.733C122.839 160.947 116.598 155.59 94.6533 154.992C91.0651 154.888 87.841 154.836 85.0068 154.836ZM266.783 180.63C260.569 170.463 244.968 153.9 210.126 157.072C186.829 159.152 171.981 167.889 168.289 181.644C167.587 184.218 168.601 187.001 170.785 188.509C219.564 222.597 253.912 196.517 266.419 183.725C267.251 182.893 267.381 181.618 266.783 180.63ZM211.453 168.93C219.643 168.93 226.3 175.56 226.3 183.75C226.3 191.94 219.643 198.596 211.453 198.597C203.263 198.597 196.605 191.94 196.605 183.75C196.606 175.56 203.263 168.93 211.453 168.93ZM92.9355 164.925C100.06 164.925 105.625 171.842 105.625 180.708C105.625 189.575 100.06 196.517 92.9355 196.517C85.8113 196.516 80.2207 189.574 80.2207 180.708C80.2208 171.842 85.8113 164.925 92.9355 164.925ZM52.0889 66.041C50.8408 66.6911 50.0081 67.9654 49.9561 69.3955L48.2402 116.979C60.903 117.213 84.9541 115.236 103.909 99.791C125.88 81.902 137.009 54.4448 135.189 23.4512L52.0889 66.041ZM155.938 25.2969C153.078 41.2618 152.455 72.4635 184.307 91.6006C201.936 102.183 217.978 106.994 227.677 109.126L227.989 83.9043C227.989 83.0724 227.625 82.2661 226.949 81.7461L155.938 25.2969Z" fill="#1B1B1B"/>
</svg>
