<?xml version="1.0" encoding="UTF-8"?>
<svg id="Capa_2" data-name="Capa 2" xmlns="http://www.w3.org/2000/svg" viewBox="0 0 93.43 169.82">
  <defs>
    <style>
      .cls-1 {
        fill: #fff;
      }

      .cls-2 {
        fill: #1d1d1b;
      }
    </style>
  </defs>
  <g id="PESTAÑAS_IZQ" data-name="PESTAÑAS IZQ">
    <g>
      <g>
        <g>
          <path class="cls-1" d="M58.52,3.93l-2.73,1.82s4.49,9.3-.17,15.63c-6.52,8.84-18.03,11.92-22.16,19.82-.04.05-.06.1-.09.16-.13.26-.26.52-.37.79-7.82,18.31,4.75,31.28,10.38,35.92.97.8,1.74,1.36,2.15,1.64.23.16.35.24.35.24h.01l8.98.19s.01-.05.04-.15c.09-.31.37-1.13,1.07-2.23.95-1.5,2.66-3.54,5.72-5.64,5.54-3.79,22.83-9.85,27.41-25.19.1-.33.19-.66.28-1,.25-.97.45-1.98.59-3.03,1.9-20.88-31.46-38.97-31.46-38.97ZM45.98,34.13c4.16-2.82,8.87-6.02,12.36-10.75,3.46-4.7,3.04-10.42,2.1-14.37,8.14,5.13,27.44,18.9,26.18,33.51-.06.4-.12.8-.2,1.19-4.68,2.73-8.28,3.61-10.7,2.63-3.25-1.32-4.44-6.11-5.39-9.95-.9-3.64-1.83-7.39-5.2-6.74-3.7.73-5.18,5.89-6.76,11.35-.72,2.49-2.04,7.09-3.07,7.74-.98-.3-1.25-2.29-1.5-4.85-.28-2.96-.61-6.32-3.6-7.19-3.81-1.1-5.58,1.71-6.64,3.38-.66,1.04-1.12,1.73-1.6,1.79-.3.04-1.31-.02-3.62-1.75,1.94-2.11,4.65-3.96,7.64-5.99ZM64.69,66.52c-1.95,1.05-3.63,1.95-4.9,2.82-3.96,2.72-6.05,5.47-7.12,7.41-1.95-.39-3.86-.42-5.61-.08-3.46-2.48-18.75-14.77-11-33.1,2.57,1.91,4.63,2.66,6.46,2.4,2.42-.33,3.64-2.26,4.54-3.67,1.17-1.86,1.34-1.81,1.9-1.66.41.39.6,2.43.72,3.65.31,3.19.73,7.56,4.73,8.5.36.08.71.12,1.04.12,3.8,0,5.37-5.46,6.9-10.76.66-2.29,1.93-6.69,3.04-8.04.31.82.65,2.19.92,3.27,1.12,4.51,2.65,10.68,7.85,12.8,2.86,1.16,6.3.87,10.44-.91-4.21,8.8-13.4,13.75-19.91,17.25Z"/>
          <path class="cls-2" d="M93.34,43.2l-.02.15c-2.26,16.64-16.77,24.45-25.44,29.11-1.77.96-3.3,1.78-4.27,2.45-2.53,1.73-3.92,3.37-4.66,4.49-.54.81-.74,1.35-.79,1.5v-.06s-2.49-.53-2.49-.53c0,0,0-.01-.02-.01l-.78-.16-3.3-.7c.01-.06.04-.19.09-.37h0c.13-.46.42-1.28,1-2.32,1.07-1.94,3.16-4.69,7.12-7.41,1.27-.87,2.95-1.77,4.9-2.82,6.51-3.5,15.7-8.45,19.91-17.25.82-1.7,1.44-3.55,1.82-5.56.08-.39.14-.79.2-1.19,1.26-14.61-18.04-28.38-26.18-33.51.94,3.95,1.36,9.67-2.1,14.37-3.49,4.73-8.2,7.93-12.36,10.75-2.99,2.03-5.7,3.88-7.64,5.99-.96,1.03-1.72,2.13-2.24,3.35,0,.03-.03.07-.04.1-7.75,18.33,7.54,30.62,11,33.1.35.25.57.4.65.45l-1.49,2.32-.33.51-1.83,2.84c-.42-.27-.86-.57-1.31-.89-.64-.46-1.29-.97-1.96-1.52-8.47-7.02-18.58-21.57-10.89-39.56,2.36-5.52,7.41-8.95,12.29-12.27,3.89-2.64,7.91-5.37,10.71-9.18,3.38-4.58-.12-12.09-.15-12.16l-1.25-2.64,6.84-4.57,1.79.97c1.44.78,35.29,19.4,33.21,42.23Z"/>
        </g>
        <path class="cls-2" d="M89.76,46.53c-.22.14-.44.27-.65.4-1.59.96-3.09,1.74-4.51,2.34-4.14,1.78-7.58,2.07-10.44.91-5.2-2.12-6.73-8.29-7.85-12.8-.27-1.08-.61-2.45-.92-3.27-1.11,1.35-2.38,5.75-3.04,8.04-1.53,5.3-3.1,10.76-6.9,10.76-.33,0-.68-.04-1.04-.12-4-.94-4.42-5.31-4.73-8.5-.12-1.22-.31-3.26-.72-3.65-.56-.15-.73-.2-1.9,1.66-.9,1.41-2.12,3.34-4.54,3.67-1.83.26-3.89-.49-6.46-2.4-.84-.61-1.73-1.35-2.69-2.21-.01-.01-.02-.02-.03-.03l.12-.13,2.66-2.94c.85.77,1.58,1.37,2.22,1.86,2.31,1.73,3.32,1.79,3.62,1.75.48-.06.94-.75,1.6-1.79,1.06-1.67,2.83-4.48,6.64-3.38,2.99.87,3.32,4.23,3.6,7.19.25,2.56.52,4.55,1.5,4.85,1.03-.65,2.35-5.25,3.07-7.74,1.58-5.46,3.06-10.62,6.76-11.35,3.37-.65,4.3,3.1,5.2,6.74.95,3.84,2.14,8.63,5.39,9.95,2.42.98,6.02.1,10.7-2.63.37-.21.76-.45,1.15-.69l1.82,2.91.37.6Z"/>
      </g>
      <g>
        <path class="cls-1" d="M56.3,80.62c-.21-.11-.42-.21-.63-.31,0,0,0-.01-.02-.01-.25-.11-.5-.22-.74-.31-1.11-.45-2.19-.75-3.24-.92h0c-2.01-.33-3.88-.18-5.44.37-.24.08-.47.17-.69.27-1.15.52-2.1,1.26-2.78,2.19-.92,1.26-1.34,2.86-1.07,4.71.05.36.13.73.23,1.1l15.93,2.56h0c.25-.39.51-.86.74-1.4,1.08-2.5,1.55-6.29-2.29-8.25ZM45.06,86.26l-.93.1c-.25-1.55.19-2.82,1.3-3.72,1.8-1.47,5.51-1.99,9.75.18,1.17.6,1.48,1.3,1.61,1.78.26.97,0,2.2-.44,3.24-3.56-1.43-7.41-1.98-11.29-1.58Z"/>
        <path class="cls-2" d="M60.73,90.13c-.25.54-.53,1.05-.82,1.49l-2.06-1.35h0l-2.06-1.35c.21-.31.4-.68.57-1.08.44-1.04.7-2.27.44-3.24-.13-.48-.44-1.18-1.61-1.78-4.24-2.17-7.95-1.65-9.75-.18-1.11.9-1.55,2.17-1.3,3.72.04.22.09.45.15.69l-2.37.66-2.38.66c-.14-.51-.25-1.02-.32-1.51-.32-2.43.23-4.67,1.58-6.48.43-.57.94-1.1,1.52-1.57.34-.28.7-.53,1.07-.74,1.1-.69,2.34-1.15,3.68-1.4,1.75-.34,3.66-.31,5.61.08,1.1.22,2.21.55,3.31,1.01.48.2.96.42,1.44.66.56.28,1.07.61,1.53.98,1.3,1.03,2.19,2.37,2.6,3.93.63,2.36.08,4.86-.82,6.8Z"/>
      </g>
      <path class="cls-2" d="M20.02,133.96l3.87,35.86h-7.13l-3.94-36.62-.25-2.31-.3-2.79c1.35,1.6,3.64,2.13,7.33,1.91l.21,1.97.21,1.98Z"/>
      <path class="cls-2" d="M75.53,169.82h-7.1l-1.84-38.9-.23-4.81-.16-3.44-.19-4.17-.08-1.61-.21-4.46v-.19c-.28-5.79-2.83-11.17-6.99-14.76-3.69-3.17-8.28-4.65-12.95-4.17l-11.22,1.16c-8.56.88-15.15,7.99-16.35,16.94-.09.67-.15,1.36-.18,2.05-.03.71-.02,1.43.02,2.15-.95-.43-2.25-.89-3.47-.89-.69,0-1.35.14-1.91.53-.67.46-1.19,1.23-1.54,2.27l-.15-1.36c-.04-.69-.06-1.37-.04-2.05-.01-.09-.01-.19,0-.28.01-.72.05-1.42.11-2.12.01-.04.01-.08.01-.12,1.21-12.67,10.53-22.91,22.78-24.17l5.37-.56,2.47-.25,2.45-.25.93-.1c3.88-.4,7.73.15,11.29,1.58.76.3,1.51.65,2.24,1.03.73.38,1.44.8,2.14,1.26.9.6,1.78,1.26,2.62,1.98,5.63,4.85,9.08,12.06,9.44,19.8l.29,6.13.14,2.93,2.31,48.85Z"/>
      <path class="cls-2" d="M73.08,118.04c-.33-1.02-.99-1.93-1.9-2.58-1.85-1.32-3.68-2.32-5.46-3.03-1.57-.64-3.12-1.06-4.62-1.3-1-.18-1.99-.26-2.95-.28-.99-.03-1.97.02-2.91.14-1.02.11-2.01.3-2.96.54-.68.17-1.34.36-1.97.58-.88.3-1.71.64-2.5,1-5.49,2.5-8.98,6.2-9.05,6.28l-.45.49-.41,4.38.13.41c.04.1,3.36,9.38,16,9.37,1.32,0,2.75-.1,4.28-.32,3.52-.51,6.22-1.53,8.28-2.8,4.8-2.94,6.22-7.26,6.63-9.95.05-.33.09-.64.11-.91.06-.69-.02-1.38-.25-2.02ZM66.36,126.11c-1.74,1.66-4.44,3.07-8.62,3.68-9.17,1.34-13.32-2.35-14.99-4.68-.41-.58-.68-1.08-.82-1.39l.2-2.1c.16-.16.36-.35.6-.56,2.24-2.02,7.78-6.27,14.82-6.27,2.62,0,5.45.59,8.38,2.1.55.28,1.11.6,1.67.95.42.26.84.55,1.27.85.35.25.54.64.51,1.03-.04.54-.14,1.16-.31,1.81-.39,1.47-1.18,3.12-2.71,4.58Z"/>
      <path class="cls-2" d="M53.44,118.39s2.38-.09,2.94,2.09c.45,1.74.12,3.75-1.19,5.17-.62.69-1.34.84-2.19.68-.35-.07-.76-.07-1.09-.17-.41-.13-.83-.63-1.17-.89-1.37-1.15-1.75-3.44-1.05-5.12.31-.63,1.03-1.09,1.56-1.55l2.19-.2Z"/>
      <path class="cls-2" d="M23.83,113.81c-1.06-.41-2.25-.87-3.58-1.54-.72-.36-1.4-.64-2.04-.86-3.27-1.14-5.6-.65-7.15.18-.02.01-.05.02-.07.04-.2.1-.39.22-.56.34-.54.37-1.09.86-1.6,1.51-.62.78-1.18,1.79-1.57,3.11-.25.81-.44,1.73-.54,2.79-.12,1.26-.12,2.71.03,4.37.51,5.6,2.96,8.28,6.07,9.45,1.63.63,3.45.83,5.28.83.65,0,1.29-.03,1.92-.07.24,0,.48-.03.72-.05,2.47-.21,4.85-.72,6.62-2.28,1.77-1.56,2.93-4.17,2.97-8.6.05-6.35-2.44-7.64-6.5-9.22ZM26.36,123c-.01,1.58-.16,2.79-.45,3.72-.78,2.5-2.58,2.98-5.51,3.23-.28.02-.54.04-.8.06-3.69.22-5.98-.31-7.33-1.91h0c-.79-.94-1.25-2.22-1.48-3.93-.04-.25-.07-.51-.09-.78-.12-1.27-.12-2.43-.04-3.46.08-.9.24-1.71.47-2.4h0c.35-1.05.87-1.82,1.54-2.28.56-.39,1.22-.53,1.91-.53,1.22,0,2.52.46,3.47.89.15.08.3.14.43.21,1.49.75,2.83,1.27,3.91,1.69,3.31,1.29,3.97,1.55,3.97,5.23v.26Z"/>
      <path class="cls-2" d="M22.43,123.78c.1.84-.23,1.43-.86,1.92-.26.2-.51.48-.79.65-.02.01-.04.02-.06.03-.34.18-.9.16-1.26.23-.07.01-.15.02-.23.01-.96.09-1.97-.3-2.76-.94-.5-.4-.91-.91-1.18-1.46-.25-.6-.12-1.37-.13-2.02l.23-.85.36-1.34s1.27-.72,2.71-.54c.37.05.75.15,1.13.34,1.12.57,2.06,1.53,2.54,2.73.15.39.26.81.3,1.24Z"/>
      <g>
        <rect class="cls-2" x="47.48" y="101.89" width="2.83" height="11.22"/>
        <rect class="cls-2" x="49.8" y="106" width="9.14" height="2.83" transform="translate(-60.28 144.14) rotate(-80.91)"/>
        <rect class="cls-2" x="55.85" y="108.57" width="8.39" height="2.84" transform="translate(-64.53 123.52) rotate(-67.57)"/>
      </g>
      <g>
        <rect class="cls-2" x="6.64" y="105.57" width="2.83" height="9.27" transform="translate(-66.56 28.7) rotate(-38.29)"/>
        <rect class="cls-2" x="3.69" y="112.78" width="2.83" height="9.93" transform="translate(-112.38 108.35) rotate(-82.95)"/>
      </g>
    </g>
  </g>
</svg>