<?xml version="1.0" encoding="UTF-8"?>
<svg id="Capa_2" data-name="Capa 2" xmlns="http://www.w3.org/2000/svg" viewBox="0 0 159.62 277.66">
  <defs>
    <style>
      .cls-1 {
        fill: #fee081;
      }
    </style>
  </defs>
  <g id="Capa_1-2" data-name="Capa 1">
    <g>
      <path class="cls-1" d="M159.62,82.08v13.63c-9.13-3.86-19.8-5.62-30.59-4.85l-29.41,2.09c-15.93,1.13-29.92,7.46-38.35,17.33-5.18,6.06-7.72,12.92-7.41,19.93l2.5,5.25,2.63,5.52,27.67,58.11c1.95,4.09,2.52,8.78,1.66,13.21l-12.85,65.36h-13.01l13.33-67.83c.34-1.76.11-3.64-.66-5.26l-33.81-71.02h.03l-.09-1.16c-.93-10.88,2.63-21.39,10.35-30.42,8.08-9.45,19.92-16.3,33.6-19.65,4.11-1.01,8.38-1.7,12.78-2.05.25-.02.51-.04.76-.06l29.41-2.09c10.87-.77,21.7.65,31.46,3.96Z"/>
      <path class="cls-1" d="M108.25,117.01c-14.46,0-30.59,9.06-31.51,21.36-.03.37-.04.74-.04,1.11,0,1.42.2,2.79.58,4.12,3.07,10.73,17.72,18.34,30.97,18.34s23.66-7.31,26.58-17.14c.49-1.62.75-3.32.77-5.07.01-.08.01-.17.01-.25,0-12.39-12.27-22.47-27.36-22.47ZM108.25,154.68c-11.76,0-23.73-7.33-24.25-14.69h0c-.02-.18-.03-.34-.03-.51v-.08c.09-7.5,12.29-15.12,24.28-15.12,11.08,0,20.1,6.81,20.1,15.2s-9.02,15.2-20.1,15.2Z"/>
      <rect class="cls-1" x="139.98" y="128.66" width="5.1" height="27.91" transform="translate(-6.73 278.17) rotate(-87.26)"/>
      <rect class="cls-1" x="64.47" y="122.68" width="5.1" height="33.75" transform="translate(-80.62 186.15) rotate(-81.87)"/>
      <polygon class="cls-1" points="26.75 21.39 159.62 0 159.62 12.94 48.66 30.8 97.99 45.49 97.99 87.02 85.21 87.02 85.21 55.02 35.95 40.35 29.1 38.31 21.84 36.15 26.75 21.39"/>
      <rect class="cls-1" x="-1.22" y="56.62" width="55.73" height="7.15" transform="translate(-38.51 69.54) rotate(-74.28)"/>
      <path class="cls-1" d="M35.43,89.7c-1.67-4.85-5.72-7.57-11.2-7.73-.86-.03-1.76.01-2.69.11-1.41-.68-2.9-1.09-4.43-1.19-1.63-.13-3.3.08-4.95.65-5.48,1.88-9.17,7.09-9.39,13.28l.15,1.17c2.1,6.91,2.62,11.73-1.28,14.38l-1.22,1.42c-.84,1.78-.39,3.78,1.11,4.98.91.72,2.4,1.02,4.23,1.02,6.42,0,16.91-3.72,19.95-5.73,7.88-4.15,12.41-14.53,9.72-22.36ZM22.24,105.79l-.61.39c-1.47,1.17-6.61,2.78-10.86,3.73,2.01-5.4.33-11.57-.82-15.38.33-3.33,2.47-5.51,4.53-6.22,2.26-.78,4.49-.02,6.29,2.12l1.48-1.23c3.46-.44,5.62.52,6.41,2.83,1.4,4.05-1.15,11.1-6.42,13.76Z"/>
      <path class="cls-1" d="M154.74,133.63l-.87.84-.91,6.09-.26,1.76.2.74c.01.05.32,1.09,1.11,2.66.99,1.97,2.74,4.78,5.61,7.48v-23.47c-3.05,2.16-4.81,3.83-4.88,3.9Z"/>
      <path class="cls-1" d="M107.38,132.27s4.29.07,5.08,4.05c.63,3.19-.16,6.78-2.65,9.19-1.19,1.17-2.49,1.39-4.02,1.01-.61-.14-1.35-.2-1.95-.41-.74-.27-1.44-1.21-2.02-1.73-2.36-2.22-2.81-6.36-1.39-9.32.63-1.1,1.96-1.86,2.96-2.65l3.98-.14Z"/>
    </g>
  </g>
</svg>