<?xml version="1.0" encoding="UTF-8"?>
<svg id="Capa_2" data-name="Capa 2" xmlns="http://www.w3.org/2000/svg" viewBox="0 0 61.82 169.82">
  <defs>
    <style>
      .cls-1 {
        fill: #e7b8d5;
      }
    </style>
  </defs>
  <g id="PESTAÑAS_IZQ" data-name="PESTAÑAS IZQ">
    <g>
      <g>
        <g>
          <path class="cls-1" d="M61.82,5.88c-2.03-1.26-3.3-1.95-3.3-1.95l-2.73,1.82s4.49,9.3-.17,15.63c-6.52,8.84-18.03,11.92-22.16,19.82-.04.05-.06.1-.09.16-.13.26-.26.52-.37.79-7.82,18.31,4.75,31.28,10.38,35.92.97.8,1.74,1.36,2.15,1.64.23.16.35.24.35.24h.01l8.98.19s.01-.05.04-.15c.09-.31.37-1.13,1.07-2.23.95-1.5,2.66-3.54,5.72-5.64.04-.03.08-.05.12-.08v-3.95c-.35.2-.69.4-1,.59-.19.11-.36.22-.53.33-.18.11-.34.22-.5.33-3.96,2.72-6.05,5.47-7.12,7.41-1.95-.39-3.86-.42-5.61-.08-3.46-2.48-18.75-14.77-11-33.1,2.57,1.91,4.63,2.66,6.46,2.4,2.42-.33,3.64-2.26,4.54-3.67,1.17-1.86,1.34-1.81,1.9-1.66.41.39.6,2.43.72,3.65.31,3.19.73,7.56,4.73,8.5.36.08.71.12,1.04.12.12,0,.24-.01.35-.02.09,0,.18-.02.27-.03.13-.02.26-.05.39-.09.19-.05.38-.13.56-.21.32-.15.61-.35.9-.59.08-.07.17-.15.25-.23.37-.35.7-.77,1-1.24.13-.18.24-.37.36-.57.09-.16.18-.33.26-.5.12-.22.23-.45.34-.69.09-.19.17-.38.25-.58.12-.27.22-.55.33-.83.1-.26.2-.53.29-.81.1-.27.19-.55.28-.83.19-.56.36-1.13.54-1.72v-11.9c-.21.3-.4.61-.58.95-.07.12-.14.25-.21.39-.58,1.12-1.07,2.43-1.53,3.84-.13.4-.26.8-.38,1.21-.25.83-.5,1.68-.75,2.54-.72,2.49-2.04,7.09-3.07,7.74-.98-.3-1.25-2.29-1.5-4.85-.28-2.96-.61-6.32-3.6-7.19-3.81-1.1-5.58,1.71-6.64,3.38-.66,1.04-1.12,1.73-1.6,1.79-.3.04-1.31-.02-3.62-1.75,1.94-2.11,4.65-3.96,7.64-5.99,4.16-2.82,8.87-6.02,12.36-10.75,3.46-4.7,3.04-10.42,2.1-14.37.43.27.89.57,1.38.89v-4.02Z"/>
          <path class="cls-1" d="M60.82,68.68c.31-.19.65-.39,1-.59v8.18c-1.44,1.21-2.33,2.31-2.87,3.13-.54.81-.74,1.35-.79,1.5v-.06s-2.49-.53-2.49-.53c-.01,0-.01-.01-.02-.01l-.78-.16-3.3-.7c.01-.06.04-.19.09-.37h.01c.13-.46.42-1.28,1-2.32,1.07-1.94,3.16-4.69,7.12-7.41.16-.11.32-.22.5-.33.17-.11.34-.22.53-.33Z"/>
          <path class="cls-1" d="M60.13.97c.17.09.76.42,1.69.97v7.96c-.49-.32-.95-.62-1.38-.89.94,3.95,1.36,9.67-2.1,14.37-3.49,4.73-8.2,7.93-12.36,10.75-2.99,2.03-5.7,3.88-7.64,5.99-.96,1.03-1.72,2.13-2.24,3.35-.01.03-.03.07-.04.1-7.75,18.33,7.54,30.62,11,33.1.35.25.57.4.65.45l-1.49,2.32-.33.51-1.83,2.84c-.42-.27-.86-.57-1.31-.89-.64-.46-1.29-.97-1.96-1.52-8.47-7.02-18.58-21.57-10.89-39.56,2.36-5.52,7.41-8.95,12.29-12.27,3.89-2.64,7.91-5.37,10.71-9.18,3.38-4.58-.12-12.09-.15-12.16l-1.25-2.64,6.84-4.57,1.79.97Z"/>
        </g>
        <path class="cls-1" d="M61.24,33.02c.18-.34.37-.65.58-.95v11.9c-.18.59-.35,1.16-.54,1.72-.09.28-.18.56-.28.83-.09.28-.19.55-.29.81-.11.28-.21.56-.33.83-.08.2-.16.39-.25.58-.11.24-.22.47-.34.69-.08.17-.17.34-.26.5-.12.2-.23.39-.36.57-.3.47-.63.89-1,1.24-.08.08-.17.16-.25.23-.29.24-.58.44-.9.59-.18.08-.37.16-.56.21-.13.04-.26.07-.39.09-.09.01-.18.03-.27.03-.11.01-.23.02-.35.02-.33,0-.68-.04-1.04-.12-4-.94-4.42-5.31-4.73-8.5-.12-1.22-.31-3.26-.72-3.65-.56-.15-.73-.2-1.9,1.66-.9,1.41-2.12,3.34-4.54,3.67-1.83.26-3.89-.49-6.46-2.4-.84-.61-1.73-1.35-2.69-2.21l-.03-.03.12-.13,2.66-2.94c.85.77,1.58,1.37,2.22,1.86,2.31,1.73,3.32,1.79,3.62,1.75.48-.06.94-.75,1.6-1.79,1.06-1.67,2.83-4.48,6.64-3.38,2.99.87,3.32,4.23,3.6,7.19.25,2.56.52,4.55,1.5,4.85,1.03-.65,2.35-5.25,3.07-7.74.25-.86.5-1.71.75-2.54.12-.41.25-.81.38-1.21.46-1.41.95-2.72,1.53-3.84.07-.14.14-.27.21-.39Z"/>
      </g>
      <g>
        <path class="cls-1" d="M56.3,80.62c-.21-.11-.42-.21-.63-.31-.01,0-.01-.01-.02-.01-.25-.11-.5-.22-.74-.31-1.11-.45-2.19-.75-3.24-.92h-.01c-2.01-.33-3.88-.18-5.44.37-.24.08-.47.17-.69.27-1.15.52-2.1,1.26-2.78,2.19-.92,1.26-1.34,2.86-1.07,4.71.05.36.13.73.23,1.1l15.93,2.56h.01c.25-.39.51-.86.74-1.4,1.08-2.5,1.55-6.29-2.29-8.25ZM45.06,86.26l-.93.1c-.25-1.55.19-2.82,1.3-3.72,1.8-1.47,5.51-1.99,9.75.18,1.17.6,1.48,1.3,1.61,1.78.26.97,0,2.2-.44,3.24-3.56-1.43-7.41-1.98-11.29-1.58Z"/>
        <path class="cls-1" d="M60.73,90.13c-.25.54-.53,1.05-.82,1.49l-2.06-1.35h0l-2.06-1.35c.21-.31.4-.68.57-1.08.44-1.04.7-2.27.44-3.24-.13-.48-.44-1.18-1.61-1.78-4.24-2.17-7.95-1.65-9.75-.18-1.11.9-1.55,2.17-1.3,3.72.04.22.09.45.15.69l-2.37.66-2.38.66c-.14-.51-.25-1.02-.32-1.51-.32-2.43.23-4.67,1.58-6.48.43-.57.94-1.1,1.52-1.57.34-.28.7-.53,1.07-.74,1.1-.69,2.34-1.15,3.68-1.4,1.75-.34,3.66-.31,5.61.08,1.1.22,2.21.55,3.31,1.01.48.2.96.42,1.44.66.56.28,1.07.61,1.53.98,1.3,1.03,2.19,2.37,2.6,3.93.63,2.36.08,4.86-.82,6.8Z"/>
      </g>
      <path class="cls-1" d="M20.02,133.96l3.87,35.86h-7.13l-3.94-36.62-.25-2.31-.3-2.79c1.35,1.6,3.64,2.13,7.33,1.91l.21,1.97.21,1.98Z"/>
      <path class="cls-1" d="M60.73,90.13c.37.25.73.5,1.09.77v9.98c-.89-1.25-1.93-2.4-3.09-3.4-3.69-3.17-8.28-4.65-12.95-4.17l-11.22,1.16c-8.56.88-15.15,7.99-16.35,16.94-.09.67-.15,1.36-.18,2.05-.03.71-.02,1.43.02,2.15-.95-.43-2.25-.89-3.47-.89-.69,0-1.35.14-1.91.53-.67.46-1.19,1.23-1.54,2.27l-.15-1.36c-.04-.69-.06-1.37-.04-2.05-.01-.09-.01-.19,0-.28.01-.72.05-1.41.11-2.11h0s0-.09,0-.13c1.21-12.67,10.53-22.91,22.78-24.17l5.37-.56,2.47-.25,2.45-.25.93-.1c3.88-.4,7.73.15,11.29,1.58.76.3,1.51.65,2.24,1.03s1.44.8,2.14,1.26Z"/>
      <path class="cls-1" d="M42.73,121.06c2.24-2.02,7.78-6.27,14.82-6.27,1.37,0,2.8.16,4.27.53v-4.06c-.24-.05-.48-.09-.72-.13-1-.18-1.99-.26-2.95-.28-.99-.03-1.97.02-2.91.14-1.02.11-2.01.3-2.96.54-.68.17-1.34.36-1.97.58-.88.3-1.71.64-2.5,1-5.49,2.5-8.98,6.2-9.05,6.28l-.45.49-.41,4.38.13.41c.04.1,3.36,9.38,16,9.37,1.32,0,2.75-.1,4.28-.32,1.27-.18,2.44-.44,3.51-.75v-4.17c-1.17.42-2.52.76-4.08.99-9.17,1.34-13.32-2.35-14.99-4.68-.41-.58-.68-1.08-.82-1.39l.2-2.1c.16-.16.36-.35.6-.56Z"/>
      <path class="cls-1" d="M53.44,118.39s2.38-.09,2.94,2.09c.45,1.74.12,3.75-1.19,5.17-.62.69-1.34.84-2.19.68-.35-.07-.76-.07-1.09-.17-.41-.13-.83-.63-1.17-.89-1.37-1.15-1.75-3.44-1.05-5.12.31-.63,1.03-1.09,1.56-1.55l2.19-.2Z"/>
      <path class="cls-1" d="M23.83,113.81c-1.06-.41-2.25-.87-3.58-1.54-.72-.36-1.4-.64-2.04-.86-3.27-1.14-5.6-.65-7.15.18-.02.01-.05.02-.07.04h0c-.2.1-.38.22-.55.34-.54.37-1.09.86-1.6,1.51-.62.78-1.18,1.79-1.57,3.11h0c-.25.82-.44,1.73-.54,2.79-.12,1.26-.12,2.71.03,4.37.51,5.6,2.96,8.28,6.07,9.45,1.63.63,3.45.83,5.28.83.65,0,1.29-.03,1.92-.07.24-.01.48-.03.72-.05,2.47-.21,4.85-.72,6.62-2.28,1.77-1.56,2.93-4.17,2.97-8.6.05-6.35-2.44-7.64-6.5-9.22ZM26.36,123c-.01,1.58-.16,2.79-.45,3.72-.78,2.5-2.58,2.98-5.51,3.23-.28.02-.54.04-.8.06-3.69.22-5.98-.31-7.33-1.91h0c-.79-.94-1.25-2.22-1.48-3.93-.04-.25-.07-.51-.09-.78-.12-1.27-.12-2.43-.04-3.46.08-.9.24-1.71.47-2.4h0c.35-1.05.87-1.82,1.54-2.28.56-.39,1.22-.53,1.91-.53,1.22,0,2.52.46,3.47.89.15.08.3.14.43.21,1.49.75,2.83,1.27,3.91,1.69,3.31,1.29,3.97,1.55,3.97,5.23v.26Z"/>
      <path class="cls-1" d="M22.43,123.78c.1.84-.23,1.43-.86,1.92-.26.2-.51.48-.79.65-.02.01-.04.02-.06.03-.34.18-.9.16-1.26.23-.07.01-.15.02-.23.01-.96.09-1.97-.3-2.76-.94-.5-.4-.91-.91-1.18-1.46-.25-.6-.12-1.37-.13-2.02l.23-.85.36-1.34s1.27-.72,2.71-.54c.37.05.75.15,1.13.34,1.12.57,2.06,1.53,2.54,2.73.15.39.26.81.3,1.24Z"/>
      <g>
        <rect class="cls-1" x="47.48" y="101.89" width="2.83" height="11.22"/>
        <rect class="cls-1" x="49.8" y="106" width="9.14" height="2.83" transform="translate(-60.29 144.15) rotate(-80.91)"/>
        <polygon class="cls-1" points="61.82 106.18 61.82 109.39 61.1 111.13 59.75 114.4 57.13 113.32 58.15 110.85 60.33 105.57 61.82 106.18"/>
      </g>
      <g>
        <rect class="cls-1" x="6.64" y="105.57" width="2.83" height="9.27" transform="translate(-66.56 28.71) rotate(-38.29)"/>
        <rect class="cls-1" x="3.69" y="112.79" width="2.83" height="9.93" transform="translate(-112.38 108.35) rotate(-82.95)"/>
      </g>
    </g>
  </g>
</svg>