<svg width="183" height="264" viewBox="0 0 183 264" fill="none" xmlns="http://www.w3.org/2000/svg">
<path d="M168.807 163.186L172.422 263.53H160.314L156.75 163.766L168.807 163.186Z" fill="#857DD6"/>
<path d="M167.118 118.608L165.276 82.1816L24.6008 83.239L22.8613 263.53H34.9524L36.8794 89.3953L154.055 90.1798L155.044 119.154L167.118 118.608Z" fill="#857DD6"/>
<path d="M71.0879 198.163H163.655" stroke="#857DD6" stroke-width="9.66942" stroke-miterlimit="10"/>
<path d="M26.3403 125.037C26.3403 125.037 4 120.416 4 103.123C4 80.4419 26.3403 82.9147 26.3403 82.9147V125.037Z" stroke="#857DD6" stroke-width="6.7703" stroke-miterlimit="10"/>
<path d="M81.4239 126.93C82.5153 126.93 83.6067 126.965 84.7323 127.067C99.0062 128.175 110.04 136.071 109.375 144.717C108.761 152.681 98.4264 158.514 85.6361 158.514C84.5447 158.514 83.4533 158.48 82.3277 158.377C68.0538 157.269 57.0201 149.373 57.6852 140.727C58.2991 132.763 68.6336 126.93 81.4239 126.93ZM81.4239 120.16C64.6431 120.16 51.8358 128.585 50.932 140.198C49.9599 152.767 63.5175 163.715 81.7991 165.114C83.0781 165.216 84.3571 165.267 85.6191 165.267C102.4 165.267 115.224 156.843 116.111 145.229C116.623 138.697 113.144 132.251 106.595 127.544C100.95 123.503 93.3785 120.928 85.261 120.297C83.9819 120.194 82.7029 120.143 81.4409 120.143L81.4239 120.16Z" fill="#857DD6"/>
<path d="M23.6113 60.1484V84.8933H162.564V60.1484H23.6113ZM51.8863 80.5787H35.7706V64.463H51.8863V80.5787ZM85.2603 80.5787H69.1446V64.463H85.2603V80.5787ZM118.617 80.5787H102.502V64.463H118.617V80.5787ZM151.991 80.5787H135.875V64.463H151.991V80.5787Z" fill="#857DD6"/>
<path d="M32.8878 0L28.0957 27.8657L162.564 64.4628L171.79 31.4299L32.8878 0ZM56.6606 28.9059L40.903 25.5464L44.2626 9.78879L60.0201 13.1484L56.6606 28.9059ZM89.7105 36.6142L73.953 33.2546L77.3125 17.497L93.0701 20.8566L89.7105 36.6142ZM122.351 43.5891L106.594 40.2296L109.953 24.472L125.711 27.8316L122.351 43.5891ZM154.992 51.3656L139.234 48.006L142.594 32.2484L158.351 35.608L154.992 51.3656Z" fill="#857DD6"/>
<path d="M59.0664 171.85L70.0148 159.571" stroke="#857DD6" stroke-width="4.82618" stroke-miterlimit="10" stroke-linecap="square"/>
<path d="M90.3945 161.464L93.5324 174.254" stroke="#857DD6" stroke-width="4.82618" stroke-miterlimit="10" stroke-linecap="square"/>
<path d="M144.864 142.108C144.574 155.086 153.749 162.487 163.623 161.669C173.497 160.85 176.993 149.731 176.993 142.108C176.993 134.485 175.816 120.16 162.003 120.16C148.19 120.16 145.052 134.366 144.864 142.108Z" stroke="#857DD6" stroke-width="6.7703" stroke-miterlimit="10"/>
<path d="M161.456 60.1484C161.456 60.1484 178.459 61.0864 179.124 78.3617C179.806 96.234 163.639 100.122 163.639 100.122L161.439 60.1484H161.456Z" stroke="#857DD6" stroke-width="6.7703" stroke-miterlimit="10"/>
<path d="M80.1789 136.668C80.1789 136.668 84.1695 134.4 87.836 136.276C90.7692 137.776 93.1397 140.658 93.4978 144.171C93.6854 145.86 93.0374 147.036 91.7754 148.009C91.2638 148.401 90.7692 148.964 90.2065 149.305C89.5243 149.714 88.3306 149.68 87.5631 149.816C84.3229 150.311 80.7076 148.06 79.258 145.041C78.7635 143.847 79.0193 142.313 79.0193 141.017" fill="#857DD6"/>
<path d="M161.746 130.87C161.746 130.87 165.805 130.716 166.76 134.434C167.528 137.401 166.965 140.829 164.731 143.25C163.673 144.427 162.446 144.683 160.996 144.41C160.399 144.291 159.7 144.291 159.137 144.12C158.438 143.899 157.722 143.046 157.142 142.602C154.806 140.641 154.158 136.736 155.351 133.871C155.88 132.797 157.108 132.012 158.012 131.228" fill="#857DD6"/>
</svg>
