<?xml version="1.0" encoding="UTF-8"?>
<svg id="Capa_2" data-name="Capa 2" xmlns="http://www.w3.org/2000/svg" viewBox="0 0 119.91 255.94">
  <defs>
    <style>
      .cls-1 {
        fill: #857dd6;
      }

      .cls-2 {
        stroke-width: 9.67px;
      }

      .cls-2, .cls-3, .cls-4 {
        fill: none;
        stroke: #857dd6;
        stroke-miterlimit: 10;
      }

      .cls-3 {
        stroke-width: 6.77px;
      }

      .cls-4 {
        stroke-linecap: square;
        stroke-width: 4.83px;
      }
    </style>
  </defs>
  <g id="Capa_1-2" data-name="Capa 1">
    <g>
      <polygon class="cls-1" points="25.73 75.64 119.91 74.93 119.91 82.37 36.27 81.81 34.34 255.94 22.25 255.94 23.59 116.89 23.97 77.3 23.99 75.65 25.73 75.64"/>
      <line class="cls-2" x1="119.91" y1="190.57" x2="70.48" y2="190.57"/>
      <path class="cls-3" d="M25.73,117.45s-22.34-4.62-22.34-21.91c0-22.68,22.34-20.21,22.34-20.21v42.12Z"/>
      <path class="cls-1" d="M105.99,119.95c-5.65-4.04-13.22-6.61-21.34-7.24-1.28-.11-2.56-.16-3.82-.16l-.02.02c-16.78,0-29.58,8.43-30.49,20.04-.7,9.09,6.19,17.33,16.98,21.72,4.13,1.68,8.83,2.8,13.89,3.19,1.28.11,2.56.16,3.82.16,1.93,0,3.81-.11,5.62-.34,13.95-1.64,24.08-9.43,24.87-19.7.51-6.53-2.97-12.98-9.51-17.69ZM108.77,137.13c-.62,7.96-10.95,13.79-23.74,13.79-1.1,0-2.19-.03-3.31-.13-14.28-1.11-25.31-9.01-24.64-17.65.61-7.97,10.94-13.8,23.73-13.8,1.1,0,2.19.03,3.31.14,14.28,1.11,25.31,9,24.65,17.65Z"/>
      <path class="cls-1" d="M23,52.56v24.74h96.91v-24.74H23ZM101.89,56.87h16.12v16.12h-16.12v-16.12ZM68.53,56.87h16.12v16.12h-16.12v-16.12ZM51.28,56.87v16.12h-16.12v-16.12h16.12Z"/>
      <path class="cls-1" d="M14.56,23.84l8.44,30.2.79,2.83,15.84-4.31,80.28-21.85V0L14.56,23.84ZM31.36,43.78l-3.36-15.76,15.76-3.36,3.36,15.76-15.76,3.36ZM64,36l-3.36-15.76,15.76-3.36,3.36,15.76-15.76,3.36ZM96.64,29.02l-3.36-15.75,15.76-3.36,3.36,15.75-15.76,3.36Z"/>
      <path class="cls-4" d="M58.45,164.26l10.95-12.28"/>
      <path class="cls-4" d="M89.78,153.87l3.14,12.79"/>
      <path class="cls-1" d="M79.56,129.08s3.99-2.27,7.66-.39c2.93,1.5,5.3,4.38,5.66,7.9.19,1.69-.46,2.86-1.72,3.84-.51.39-1.01.96-1.57,1.3-.68.41-1.88.38-2.64.51-3.24.5-6.86-1.76-8.31-4.77-.49-1.19-.24-2.73-.24-4.02l1.16-4.35Z"/>
    </g>
  </g>
</svg>