<?xml version="1.0" encoding="UTF-8"?>
<svg id="Capa_2" data-name="Capa 2" xmlns="http://www.w3.org/2000/svg" viewBox="0 0 141.21 155.78">
  <defs>
    <style>
      .cls-1 {
        fill: #fdc103;
      }
    </style>
  </defs>
  <g id="Capa_2-2" data-name="Capa 2">
    <g>
      <path class="cls-1" d="M46.66,79.06l-.05.3c-.01-.09-.01-.18-.01-.27v-.04h.06Z"/>
      <path class="cls-1" d="M141.21,28.11v-7.74L99.08,0,14.84,13.56l-2.72,8.19,4.03,1.2-6.65,23.62c-.9-.07-1.83.05-2.75.37-3.04,1.05-5.09,3.94-5.21,7.37l.08.65c1.17,3.83,1.46,6.51-.71,7.98l-.67.79c-.47.98-.22,2.09.61,2.76.5.4,1.33.56,2.35.56,3.56,0,9.38-2.06,11.07-3.18,4.37-2.3,6.89-8.06,5.39-12.4-.92-2.7-3.16-4.21-6.21-4.29l6.5-23.1,27.34,8.14v15.15c-7.59,1.86-14.16,5.67-18.65,10.91-4.28,5.01-6.26,10.84-5.74,16.88l.05.64h-.02l18.76,39.41c.43.9.56,1.94.37,2.92l-7.4,37.64h7.22l7.13-36.27c.48-2.46.16-5.06-.92-7.33l-15.35-32.24,10.15,1.45c1.7,5.96,9.83,10.18,17.18,10.18s13.13-4.07,14.75-9.52l10.65.51c1.23,2.48,4.63,7.33,12.53,8.53l-3.8,17.48c-.67,3.05-.4,6.2.77,9.13l15.59,38.09h7.66l-16.67-40.75c-.63-1.58-.78-3.3-.41-4.97l4.12-18.9c2.17-.24,4.03-.7,5.63-1.3l2.31,4.22,2.48-1.36-2.23-4.07c2.33-1.36,3.89-3.07,4.92-4.76l3.24,4.03,2.2-1.78-4.1-5.1c.35-1.01.53-1.91.63-2.62.06-.4.07-.8.03-1.2h2.49l-4.41-3.53c-3.07-2.47-6.13-3.94-9.07-4.7-.54-3.67-2.01-7.14-4.31-10.28l5.26-23.55,30.88-7.05ZM15.91,52.76c.77,2.25-.65,6.16-3.57,7.64l-.33.21c-.82.65-3.67,1.54-6.03,2.08,1.11-3,.18-6.43-.46-8.54.19-1.85,1.37-3.06,2.52-3.45,1.25-.43,2.49-.02,3.49,1.18l.82-.69c1.92-.24,3.12.29,3.56,1.57ZM60.07,87.53c-6.52,0-13.15-4.06-13.46-8.15v-.02c-.01-.09-.01-.18-.01-.27v-.04c.04-4.17,6.82-8.39,13.47-8.39,6.15,0,11.16,3.78,11.16,8.43s-5.01,8.44-11.16,8.44ZM85.87,75.85l-.48.46-.51,3.38-9.63-.46v-.14c0-6.87-6.81-12.47-15.18-12.47s-16.98,5.04-17.48,11.86l-11.31-1.62-1.39-2.91c-.17-3.89,1.24-7.7,4.11-11.06,4.68-5.48,12.44-8.99,21.28-9.62l16.32-1.16c9.31-.66,18.46,2.06,24.48,7.3,3.04,2.65,5.05,5.71,5.93,9-9.25.88-16.04,7.34-16.14,7.44ZM115.56,76.47l.4.32c.33.27.51.67.46,1.06-.45,3.15-2.63,8.56-12.18,9.42-11.54,1.05-14.81-5.32-15.45-6.92l.32-2.09c2.51-2.19,14.19-11.22,26.45-1.79ZM104.39,29.24l-5.26,23.52c-7.35-5.59-17.65-8.45-28.01-7.72l-16.32,1.16c-.14.01-.28.02-.42.03v-19.29l-27.38-8.15L98,7.36l32.8,15.85-26.41,6.03Z"/>
      <path class="cls-1" d="M100.58,75.65s2.38.04,2.82,2.25c.35,1.77-.09,3.76-1.47,5.1-.66.65-1.38.77-2.23.56-.34-.08-.75-.11-1.08-.23-.41-.15-.8-.67-1.12-.96-1.31-1.23-1.56-3.53-.77-5.17.35-.61,1.09-1.03,1.64-1.47l2.21-.08Z"/>
      <path class="cls-1" d="M59.59,75.09s2.38.04,2.82,2.25c.35,1.77-.09,3.76-1.47,5.1-.66.65-1.38.77-2.23.56-.34-.08-.75-.11-1.08-.23-.41-.15-.8-.67-1.12-.96-1.31-1.23-1.56-3.53-.77-5.17.35-.61,1.09-1.03,1.64-1.47l2.21-.08Z"/>
    </g>
  </g>
</svg>